<svg width="75" height="40" viewBox="0 0 75 40" fill="none" xmlns="http://www.w3.org/2000/svg">
<g clip-path="url(#clip0)">
<path d="M13.3491 13.7667C11.4139 14.3021 9.39967 15.5258 7.26697 17.3996C5.68719 18.7763 4.38387 20.3059 3.39651 22.0268C2.56713 23.4417 2.13269 24.7036 2.13269 25.8509C2.13269 27.8012 3.71247 28.7954 6.91152 28.7954C10.5055 28.7954 13.6651 27.7629 16.3112 25.7362C17.2591 25.0096 17.97 24.2448 18.4834 23.4035C18.9968 22.5622 19.2733 21.7973 19.2733 21.0325C19.2733 20.3442 18.9968 19.8088 18.4439 19.3882C17.891 18.9675 17.1801 18.7763 16.2717 18.7763C13.5071 18.7763 10.703 20.0765 7.89888 22.6769C7.22748 23.2887 6.3191 24.283 5.21326 25.6979L4.81831 25.4302C5.48972 24.13 6.51657 22.8681 7.89888 21.6061C10.466 19.2734 13.1516 18.088 15.9953 18.088C17.0616 18.088 17.9305 18.3174 18.6809 18.7381C19.5498 19.2734 19.9447 20 19.9447 20.956C19.9447 22.8298 18.8389 24.5889 16.6272 26.2715C13.8625 28.3748 10.5845 29.4455 6.83253 29.4455C4.66033 29.4455 3.00157 28.9866 1.85623 28.0689C0.552908 27.0363 -0.118498 25.5832 -0.118498 23.7859C-0.118498 21.5297 0.82937 19.4646 2.72511 17.5908C3.79146 16.5201 5.09477 15.6788 6.63506 15.0287C8.17534 14.3786 10.2686 13.7667 12.9147 13.2314C12.5987 12.849 12.3223 12.3901 12.0853 11.9312C10.0711 11.9312 8.4518 11.7017 7.22748 11.2811C6.00315 10.8987 5.09477 10.3251 4.42337 9.56024C3.67297 8.6807 3.27803 7.72468 3.27803 6.65393C3.27803 4.66541 4.34438 3.02105 6.47708 1.72086C8.09635 0.726591 10.0711 0.2677 12.4013 0.2677C14.139 0.2677 15.7583 0.535387 17.2591 1.109L16.9826 1.52965C15.9163 1.22372 14.7709 1.03252 13.5861 1.03252C10.782 1.03252 8.41231 1.68261 6.55607 2.94456C4.9368 4.09179 4.14691 5.39198 4.14691 6.92162C4.14691 7.8394 4.50236 8.64246 5.21326 9.3308C5.92416 10.0191 6.87203 10.5545 8.13585 10.8987C9.12321 11.1664 10.4265 11.3193 12.0458 11.3576C12.0063 11.0516 11.9668 10.784 11.9668 10.5927C11.9668 9.56024 12.3618 8.52774 13.1122 7.49523C13.8625 6.42449 14.9684 5.43022 16.3902 4.51244C17.891 3.51818 19.5892 2.75336 21.4455 2.17975C23.3017 1.64437 25.1185 1.33845 26.8957 1.33845C28.5545 1.33845 29.3839 1.87382 29.3839 2.94456C29.3839 4.16827 28.436 5.58319 26.5798 7.15107C23.4992 9.71321 19.1548 11.2811 13.5071 11.8929C13.4676 12.0841 13.4281 12.2371 13.4281 12.3518C13.4281 12.696 13.5466 12.9254 13.7441 13.1166C14.4155 13.0784 14.9289 13.0402 15.3238 13.0402C15.7583 13.0402 16.1532 13.1166 16.4692 13.2314C16.7851 13.3461 16.9431 13.4991 16.9431 13.6903C16.9431 13.8432 16.8246 13.9962 16.5482 14.1109C16.3112 14.2256 15.9953 14.2639 15.6398 14.2639C14.7314 14.2639 13.981 14.1109 13.3491 13.7667ZM13.5861 11.2811C17.0221 10.9369 20.1422 10.0574 22.9463 8.64246C24.763 7.72468 26.2638 6.65393 27.3697 5.43022C28.199 4.51244 28.594 3.70938 28.594 3.02105C28.594 2.67688 28.4755 2.37095 28.1596 2.17975C27.8831 1.9503 27.5276 1.83558 27.0932 1.83558C25.7109 1.83558 24.1706 2.29447 22.3934 3.21225C20.6161 4.13003 18.8783 5.39198 17.0616 7.03634C15.9953 7.99237 15.2449 8.79543 14.7314 9.36904C14.2575 9.98089 13.8625 10.631 13.5861 11.2811ZM22.7488 28.9484H19.1548L28.6335 16.7113H31.9905L28.3965 21.5679L28.4755 21.6444C30.6082 19.6941 32.3065 18.3174 33.6098 17.5144C34.9131 16.7113 36.019 16.2906 37.0458 16.2906C37.6382 16.2906 38.0727 16.4819 38.4281 16.826C38.7836 17.1702 38.9415 17.7056 38.9415 18.3557C38.9415 19.5029 38.4281 20.6884 37.4408 21.8356L33.6888 26.2333C32.9779 27.1128 32.5434 27.6482 32.425 27.8012C32.3065 27.9924 32.267 28.1453 32.267 28.2601C32.267 28.6042 32.4644 28.7572 32.8199 28.7572C33.3333 28.7572 34.3602 28.2601 35.9005 27.2276C37.4408 26.195 38.981 25.0478 40.4423 23.7094L40.8373 24.13C40.0079 24.9331 38.6651 25.9656 36.7694 27.3423C34.8341 28.7189 33.3728 29.369 32.3855 29.369C31.872 29.369 31.3981 29.1778 31.0032 28.7954C30.6082 28.413 30.4107 27.9541 30.4107 27.4188C30.4107 26.7304 30.6082 26.0421 30.9637 25.3537C31.3191 24.6654 31.951 23.8241 32.8199 22.7916L35.387 19.8853C36.3349 18.7381 36.9273 18.0497 37.0853 17.8203C37.2433 17.5908 37.3223 17.3614 37.3223 17.1702C37.3223 16.9407 37.1643 16.826 36.8088 16.826C35.3475 16.826 33.0569 18.2027 30.0158 20.956C27.6066 23.174 25.8294 24.9713 24.684 26.4627L22.7488 28.9484ZM52.1722 22.7916C50.9084 24.3212 49.7235 25.5832 48.5387 26.5775C46.3665 28.413 44.4708 29.369 42.8515 29.369C42.1801 29.369 41.6272 29.1396 41.2322 28.6807C40.8373 28.2218 40.6398 27.5717 40.6398 26.7687C40.6398 26.0421 40.8373 25.3155 41.1927 24.5889C41.5482 23.8241 42.1801 22.8681 43.128 21.6826L46.9194 16.7878H50.3949L43.128 26.2333C42.4171 27.1511 42.0616 27.8012 42.0616 28.2218C42.0616 28.6425 42.3381 28.8719 42.9305 28.8719C44.0758 28.8719 45.4976 28.2218 47.2354 26.9216C48.9731 25.6214 50.5529 24.0153 51.9747 22.1033C51.9747 21.9121 51.9747 21.7973 51.9747 21.7209C51.9747 20.3442 52.3697 19.0058 53.1991 17.7438C53.752 16.8643 54.2654 16.4436 54.7393 16.4436C55.0948 16.4436 55.2528 16.6731 55.2528 17.0937C55.2528 17.6673 55.0553 18.3557 54.6998 19.0822C54.3049 19.8088 53.6335 20.8413 52.6856 22.1797C52.6856 22.6004 52.8041 22.9446 53.0411 23.174C53.278 23.4035 53.6335 23.5564 54.0679 23.5564C54.3444 23.5564 54.6998 23.5182 55.1738 23.4035L55.2923 23.8623C54.8973 24.0153 54.5024 24.0918 54.1469 24.0918C53.1201 23.9771 52.4882 23.5947 52.1722 22.7916ZM64.8894 29.3308C64.7709 29.4838 64.0205 30.4398 62.6777 32.1606C61.1769 34.0727 59.2417 35.7935 56.872 37.2849C54.6209 38.7381 52.5671 39.5029 50.7109 39.5029C50.1975 39.5029 49.763 39.3882 49.4471 39.197C49.1311 38.9675 48.9731 38.6998 48.9731 38.3557C48.9731 36.7113 50.9084 34.761 54.7788 32.5048C56.7931 31.3193 59.0047 30.2868 61.4139 29.4455L65.0079 24.6272C63.1912 26.2333 61.7299 27.3805 60.624 28.0306C59.5182 28.6807 58.5703 29.0249 57.7804 29.0249C57.2275 29.0249 56.7536 28.8337 56.3586 28.4895C56.0032 28.1453 55.8057 27.6864 55.8057 27.1128C55.8057 26.348 55.9637 25.6214 56.2796 24.9331C56.5956 24.2448 57.188 23.327 58.0569 22.2562L62.3618 16.7878H65.8768L59.3602 25.239C58.1754 26.7687 57.5829 27.6482 57.5829 27.8776C57.5829 28.2218 57.8199 28.3748 58.2938 28.3748C58.8073 28.3748 59.5972 27.9924 60.7425 27.2658C61.8878 26.5392 63.0727 25.6214 64.218 24.5124C66.1532 22.7151 68.0885 20.6119 69.9447 18.2027L71.1295 16.7113H74.6446L65.5213 28.413C66.2717 28.2601 67.654 27.6482 69.6683 26.5775C71.643 25.5067 73.3017 24.5124 74.5656 23.5564L74.842 23.9388C73.8547 24.8184 72.3144 25.8126 70.1817 26.9599C68.0885 28.1071 66.3112 28.9102 64.8894 29.3308ZM60.9005 30.1721C59.0837 30.8222 57.1485 31.7017 55.1738 32.8872C53.5545 33.8432 52.2907 34.7993 51.4218 35.7553C50.4739 36.7878 50.0395 37.6291 50.0395 38.3174C50.0395 38.7381 50.3555 38.9675 50.9479 38.9675C51.6983 38.9675 52.6461 38.5851 53.7915 37.8585C54.8973 37.132 56.0032 36.1759 56.9905 34.9905C59.2022 32.3136 60.545 30.7075 60.9005 30.1721Z" fill="#222222"/>
</g>
<defs>
<clipPath id="clip0">
<rect width="75" height="40" fill="white"/>
</clipPath>
</defs>
</svg>
