<svg viewBox="0 0 1456 222" fill="none" xmlns="http://www.w3.org/2000/svg">
<path d="M16.4112 220.827H61.5418L61.5418 110.425H45.1307L45.1307 0.0224609L0 0.0224609L0 110.425H16.4112L16.4112 220.827Z" fill="#F7F7F7"/>
<path d="M1031.85 220.827V110.425H1015.44V0.0224609L970.312 0.0224609V110.425H986.724V220.827H1031.85Z" fill="#F7F7F7"/>
<path d="M689.819 110.425L641.518 0.0224609L622.869 0.0224609L574.381 110.425L590.792 110.425L542.305 220.827H590.792L603.101 192.108L693.362 192.108L705.67 220.827H754.158L705.857 110.425H689.819ZM618.952 154.996L636.482 110.425H620.071L632.007 80.3998L643.942 110.425H660.353L677.883 154.996L618.952 154.996Z" fill="#F7F7F7"/>
<path d="M941.58 220.827V179.986L844.792 179.986V110.425H828.381V0.0224609L783.25 0.0224609V110.425H799.661V220.827L941.58 220.827Z" fill="#F7F7F7"/>
<path d="M1214.04 110.426L1197.63 110.426C1189.8 104.831 1180.1 99.6093 1168.54 94.5741L1143.36 83.9442C1133.48 79.6549 1126.76 75.7386 1123.03 72.3817C1119.3 69.0249 1117.44 64.7356 1117.44 59.3274C1117.44 52.8002 1120.05 47.765 1125.09 44.2217C1130.31 40.4919 1136.83 38.8135 1144.85 38.8135C1161.64 38.8135 1175.62 47.0191 1187 63.4302L1217.77 40.4919C1210.68 27.997 1200.8 18.113 1188.31 11.0264C1175.81 3.75326 1161.26 0.209961 1144.85 0.209961C1123.59 0.209961 1106.06 5.80466 1092.26 16.8076C1078.46 27.8105 1071.56 42.5433 1071.56 60.6329C1071.56 80.4008 1082.19 96.9985 1103.45 110.612L1119.86 110.612C1126.2 114.715 1133.48 118.445 1141.5 121.988L1165.18 132.245C1176.37 137.28 1183.83 141.383 1187.56 144.74C1191.29 148.097 1193.34 152.759 1193.34 158.727C1193.34 166 1190.54 171.781 1184.95 176.07C1179.35 180.36 1171.71 182.411 1161.82 182.411C1141.31 182.411 1123.22 172.154 1107.56 151.454L1076.41 174.019C1085.18 188.752 1096.93 200.128 1111.66 208.52C1126.58 216.912 1143.17 221.201 1161.64 221.201C1184.2 221.201 1202.67 215.42 1217.21 203.671C1231.76 191.922 1239.03 176.443 1239.03 157.421C1239.03 143.248 1234.74 131.313 1225.98 121.802C1223.18 117.512 1219.08 113.969 1214.04 110.426Z" fill="#F7F7F7"/>
<path d="M389.759 129.633L465.66 129.633V110.425L449.249 110.425V91.2163H373.348V40.8639L480.766 40.8639V0.0224609L328.217 0.0224609V110.425H344.628L344.628 220.827L497.177 220.827V179.986L389.759 179.986V129.633Z" fill="#F7F7F7"/>
<path d="M282.908 109.679C283.281 77.2292 272.278 50.934 249.527 30.2335C226.775 9.53307 197.869 -0.537387 162.622 0.0220845L90.2637 0.0220845L90.2637 110.424H106.675L106.675 220.827L179.033 220.827C213.907 221.2 242.626 210.943 265.751 189.683C288.503 168.61 299.879 142.314 299.506 110.424H283.095V109.679H282.908ZM232.556 160.777C218.942 173.645 201.039 179.985 178.66 179.985L151.806 179.985L151.806 110.424H135.394V40.8635L162.249 40.8635C185.001 40.8635 203.09 47.0177 216.518 59.3261C229.945 71.6344 236.659 88.4186 236.659 109.865C236.659 110.052 236.659 110.238 236.659 110.611H253.07C252.697 131.311 245.983 148.096 232.556 160.777Z" fill="#F7F7F7"/>
<path d="M1455 40.8639V0.0224609L1268.32 0.0224609V40.8639L1339 40.8639V110.425H1355.42V220.827L1400.55 220.827V110.425H1384.13V40.8639L1455 40.8639Z" fill="#F7F7F7"/>
</svg>
