<svg viewBox="0 0 49 49" fill="none" xmlns="http://www.w3.org/2000/svg">
<path d="M18.4269 9.28984C18.7655 9.28984 19.0394 9.01559 19.0394 8.67734V5.51289C19.0394 5.17464 18.7655 4.90039 18.4269 4.90039C18.0884 4.90039 17.8145 5.17464 17.8145 5.51289V8.67734C17.8145 9.01559 18.0884 9.28984 18.4269 9.28984Z" fill="#99918A"/>
<path d="M22.4777 9.28984C22.8163 9.28984 23.0902 9.01559 23.0902 8.67734V5.51289C23.0902 5.17464 22.8163 4.90039 22.4777 4.90039C22.1392 4.90039 21.8652 5.17464 21.8652 5.51289V8.67734C21.8652 9.01559 22.1392 9.28984 22.4777 9.28984Z" fill="#99918A"/>
<path d="M26.5266 9.28984C26.8651 9.28984 27.1391 9.01559 27.1391 8.67734V5.51289C27.1391 5.17464 26.8651 4.90039 26.5266 4.90039C26.188 4.90039 25.9141 5.17464 25.9141 5.51289V8.67734C25.9141 9.01559 26.188 9.28984 26.5266 9.28984Z" fill="#99918A"/>
<path d="M30.5734 9.28984C30.912 9.28984 31.1859 9.01559 31.1859 8.67734V5.51289C31.1859 5.17464 30.912 4.90039 30.5734 4.90039C30.2349 4.90039 29.9609 5.17464 29.9609 5.51289V8.67734C29.9609 9.01559 30.2349 9.28984 30.5734 9.28984Z" fill="#99918A"/>
<path d="M18.4269 16.3338C18.7655 16.3338 19.0394 16.0595 19.0394 15.7213V12.5568C19.0394 12.2186 18.7655 11.9443 18.4269 11.9443C18.0884 11.9443 17.8145 12.2186 17.8145 12.5568V15.7213C17.8145 16.0595 18.0884 16.3338 18.4269 16.3338Z" fill="#99918A"/>
<path d="M22.4777 16.3338C22.8163 16.3338 23.0902 16.0595 23.0902 15.7213V12.5568C23.0902 12.2186 22.8163 11.9443 22.4777 11.9443C22.1392 11.9443 21.8652 12.2186 21.8652 12.5568V15.7213C21.8652 16.0595 22.1392 16.3338 22.4777 16.3338Z" fill="#99918A"/>
<path d="M26.5266 16.3338C26.8651 16.3338 27.1391 16.0595 27.1391 15.7213V12.5568C27.1391 12.2186 26.8651 11.9443 26.5266 11.9443C26.188 11.9443 25.9141 12.2186 25.9141 12.5568V15.7213C25.9141 16.0595 26.188 16.3338 26.5266 16.3338Z" fill="#99918A"/>
<path d="M30.5734 16.3338C30.912 16.3338 31.1859 16.0595 31.1859 15.7213V12.5568C31.1859 12.2186 30.912 11.9443 30.5734 11.9443C30.2349 11.9443 29.9609 12.2186 29.9609 12.5568V15.7213C29.9609 16.0595 30.2349 16.3338 30.5734 16.3338Z" fill="#99918A"/>
<path d="M18.4269 23.3779C18.7655 23.3779 19.0394 23.1036 19.0394 22.7654V19.6009C19.0394 19.2627 18.7655 18.9884 18.4269 18.9884C18.0884 18.9884 17.8145 19.2627 17.8145 19.6009V22.7654C17.8145 23.1036 18.0884 23.3779 18.4269 23.3779Z" fill="#99918A"/>
<path d="M22.4777 23.3779C22.8163 23.3779 23.0902 23.1036 23.0902 22.7654V19.6009C23.0902 19.2627 22.8163 18.9884 22.4777 18.9884C22.1392 18.9884 21.8652 19.2627 21.8652 19.6009V22.7654C21.8652 23.1036 22.1392 23.3779 22.4777 23.3779Z" fill="#99918A"/>
<path d="M26.5266 23.3779C26.8651 23.3779 27.1391 23.1036 27.1391 22.7654V19.6009C27.1391 19.2627 26.8651 18.9884 26.5266 18.9884C26.188 18.9884 25.9141 19.2627 25.9141 19.6009V22.7654C25.9141 23.1036 26.188 23.3779 26.5266 23.3779Z" fill="#99918A"/>
<path d="M30.5734 23.3779C30.912 23.3779 31.1859 23.1036 31.1859 22.7654V19.6009C31.1859 19.2627 30.912 18.9884 30.5734 18.9884C30.2349 18.9884 29.9609 19.2627 29.9609 19.6009V22.7654C29.9609 23.1036 30.2349 23.3779 30.5734 23.3779Z" fill="#99918A"/>
<path d="M18.4269 30.4209C18.7655 30.4209 19.0394 30.1467 19.0394 29.8084V26.644C19.0394 26.3057 18.7655 26.0315 18.4269 26.0315C18.0884 26.0315 17.8145 26.3057 17.8145 26.644V29.8084C17.8145 30.1467 18.0884 30.4209 18.4269 30.4209Z" fill="#99918A"/>
<path d="M22.4777 30.4209C22.8163 30.4209 23.0902 30.1467 23.0902 29.8084V26.644C23.0902 26.3057 22.8163 26.0315 22.4777 26.0315C22.1392 26.0315 21.8652 26.3057 21.8652 26.644V29.8084C21.8652 30.1467 22.1392 30.4209 22.4777 30.4209Z" fill="#99918A"/>
<path d="M26.5266 30.4209C26.8651 30.4209 27.1391 30.1467 27.1391 29.8084V26.644C27.1391 26.3057 26.8651 26.0315 26.5266 26.0315C26.188 26.0315 25.9141 26.3057 25.9141 26.644V29.8084C25.9141 30.1467 26.188 30.4209 26.5266 30.4209Z" fill="#99918A"/>
<path d="M30.5734 30.4209C30.912 30.4209 31.1859 30.1467 31.1859 29.8084V26.644C31.1859 26.3057 30.912 26.0315 30.5734 26.0315C30.2349 26.0315 29.9609 26.3057 29.9609 26.644V29.8084C29.9609 30.1467 30.2349 30.4209 30.5734 30.4209Z" fill="#99918A"/>
<path d="M49 42.8746C49 41.376 47.781 40.1567 46.2821 40.1567C44.7831 40.1567 43.5641 41.376 43.5641 42.8746C43.5641 44.162 44.4658 45.2376 45.6696 45.5169V47.7746H41.0758V41.6823C42.75 41.3907 44.0283 39.9308 44.0283 38.1745C44.0283 36.209 42.4288 34.6099 40.4633 34.6099C38.4979 34.6099 36.899 36.209 36.899 38.1745C36.899 39.9308 38.1768 41.3907 39.8509 41.6823V47.7746H35.3989V0.000264484C35.8747 0 35.125 0 34.7864 0H14.214C13.8754 0 13.6015 0.00011363 13.6015 0.00011363V47.7746H9.14955V41.6823C10.8236 41.3907 12.1014 39.9308 12.1014 38.1745C12.1014 36.209 10.5025 34.6099 8.53705 34.6099C6.57156 34.6099 4.97214 36.209 4.97214 38.1745C4.97214 39.9308 6.25036 41.3907 7.92456 41.6823V47.7746H3.33084V45.5169C4.53456 45.2376 5.4363 44.162 5.4363 42.8746C5.4363 41.376 4.21729 40.1567 2.71835 40.1567C1.21941 40.1567 0.00040363 41.376 0.00040363 42.8746C0.00040363 44.162 0.902137 45.2376 2.10585 45.5169V47.7746H0.000790336C0.000790336 47.7746 0.00040363 48.0489 0.00040363 48.3871C0.00040363 48.7253 0 48.9996 0 48.9996H49C49 48.9996 49 48.7253 49 48.3871C49 48.0489 48.9996 48.1246 48.9996 47.7746H46.8946V45.5169C48.0983 45.2376 49 44.162 49 42.8746ZM38.124 38.1745C38.124 36.8843 39.1732 35.8348 40.4633 35.8348C41.7535 35.8348 42.8033 36.8843 42.8033 38.1745C42.8033 39.4644 41.7535 40.5138 40.4633 40.5138C39.1732 40.5138 38.124 39.4644 38.124 38.1745ZM6.19713 38.1745C6.19713 36.8843 7.24686 35.8348 8.53705 35.8348C9.82724 35.8348 10.8764 36.8843 10.8764 38.1745C10.8764 39.4644 9.82724 40.5138 8.53705 40.5138C7.24686 40.5138 6.19713 39.4644 6.19713 38.1745ZM1.22539 42.8746C1.22539 42.0513 1.89531 41.3817 2.71835 41.3817C3.54139 41.3817 4.21131 42.0513 4.21131 42.8746C4.21131 43.698 3.54139 44.3676 2.71835 44.3676C1.89531 44.3676 1.22539 43.698 1.22539 42.8746ZM34.1739 1.22499V33.8403H14.8265V1.22499H34.1739ZM14.8265 35.0653H34.1739V47.7746H29.5431V40.5012C29.5431 40.163 29.2692 39.8887 28.9306 39.8887H20.0698C19.7312 39.8887 19.4573 40.163 19.4573 40.5012V47.7746H14.8265V35.0653ZM25.1127 41.1137H28.3181V47.7746H25.1127V41.1137ZM23.8877 47.7746H20.6823V41.1137H23.8877V47.7746ZM44.7891 42.8746C44.7891 42.0513 45.459 41.3817 46.2821 41.3817C47.1051 41.3817 47.775 42.0513 47.775 42.8746C47.775 43.698 47.1051 44.3676 46.2821 44.3676C45.459 44.3676 44.7891 43.698 44.7891 42.8746Z" fill="#99918A"/>
</svg>