<svg viewBox="0 0 28 28" fill="none" xmlns="http://www.w3.org/2000/svg">
<path d="M26.8748 0C18.2907 0.0112179 9.70652 0.0112179 1.12236 0C0.586432 0 0.207636 0.16266 0 0.661859V27.3438C0.0589872 27.492 0.147647 27.6267 0.260547 27.7396C0.373447 27.8524 0.50821 27.941 0.656579 28H27.3434C27.4915 27.9406 27.6261 27.8518 27.7389 27.7391C27.8518 27.6263 27.9406 27.4918 28 27.3438V0.664664C27.7896 0.165465 27.4108 0 26.8748 0ZM14.8909 1.76963H17.4835V4.36098H14.8909V1.76963ZM17.3657 13.9776L10.6315 17.8506V10.1046L17.3657 13.9776ZM4.35755 26.2276H1.75649V23.6418H4.35755V26.2276ZM4.35755 4.36939H1.76771V1.77524H4.36036V4.36939H4.35755ZM8.72913 26.2444H6.1421V23.6474H8.73474V26.2388L8.72913 26.2444ZM8.72913 4.36939H6.1421V1.76963H8.73474V4.36098L8.72913 4.36939ZM10.5109 1.77244H13.1007V4.36098H10.5109V1.77244ZM13.1091 26.2276H10.5165V23.6362H13.1091V26.2276ZM17.4863 26.2276H14.8965V23.6446H17.4891V26.236L17.4863 26.2276ZM21.8551 26.2276H19.2681V23.6362H21.8551V26.2276ZM21.8551 4.35256H19.2681V1.76963H21.8551V4.36098V4.35256ZM23.6312 1.76963H26.2295V4.36098H23.6368V1.77524L23.6312 1.76963ZM26.2323 26.2304H23.6453V23.6418H26.2379V26.236L26.2323 26.2304Z" fill="white"/>
</svg>
