<svg width="127" height="56" viewBox="0 0 127 56" fill="none" xmlns="http://www.w3.org/2000/svg">
<path d="M6.38628 46.3605C6.02536 45.2739 5.38332 43.9936 3.97005 43.9936C3.00128 43.9936 2.29465 44.7193 2.29465 45.7032C2.29465 46.653 2.9177 47.2039 4.43734 47.9637C6.24951 48.8451 7.49181 49.81 7.49181 51.5196C7.49181 53.4876 5.81641 55.0262 3.29761 55.0262C2.67456 55.0262 2.07051 54.9388 1.55383 54.7831C1.07134 54.6463 0.740823 54.5057 0.50148 54.4032C0.345718 53.9701 0.121571 52.5226 0 51.4664L0.604056 51.2765C0.949774 52.382 1.96793 54.3158 3.62434 54.3158C4.67669 54.3158 5.34912 53.5901 5.34912 52.5036C5.34912 51.4854 4.58931 50.8472 3.29382 50.1558C1.51584 49.2592 0.288731 48.3246 0.288731 46.6682C0.288731 44.7686 1.78937 43.2832 4.24359 43.2832C5.34913 43.2832 6.33309 43.6289 6.64462 43.7505C6.713 44.3887 6.83457 45.1486 6.97134 46.2199L6.38628 46.3605Z" fill="#133C58"/>
<path d="M17.9012 46.5013C17.6923 45.6047 17.4529 45.0349 17.1414 44.7233C16.8489 44.4118 16.4006 44.3092 15.3976 44.3092H14.6036V52.4773C14.6036 53.9437 14.7746 54.0501 16.2942 54.1679V54.7719H10.6677V54.1679C12.119 54.0463 12.2899 53.9437 12.2899 52.4773V44.3092H11.7011C10.284 44.3092 9.9725 44.4992 9.71416 44.7765C9.43682 45.0691 9.21268 45.6579 8.98853 46.5203H8.36548C8.43386 45.259 8.53644 43.9977 8.57443 43.1201H8.98853C9.26586 43.519 9.49001 43.5532 9.9725 43.5532H16.9134C17.3807 43.5532 17.6201 43.4506 17.9164 43.1201H18.3305C18.3495 43.8457 18.4331 45.3654 18.5205 46.4709L17.9012 46.5013Z" fill="#133C58"/>
<path d="M24.394 54.7719V54.1678C25.4122 54.0121 25.4995 53.8069 25.2222 53.0471C25.0513 52.5304 24.7891 51.8048 24.5308 51.0944H21.2142C21.0242 51.63 20.8001 52.2531 20.5911 52.9407C20.348 53.7689 20.3822 54.0121 21.6435 54.1678V54.7719H17.7798L17.7988 54.1678C18.9385 54.0311 19.1475 53.8411 19.7135 52.3898L23.2543 43.5152L24.1357 43.291C25.2412 46.3113 26.3126 49.3164 27.4333 52.2873C28.0221 53.8069 28.2463 54.0311 29.3328 54.1678V54.7719H24.394ZM22.9276 46.4481H22.8744C22.3919 47.7094 21.9588 48.9517 21.5105 50.1788H24.2041L22.9276 46.4481Z" fill="#133C58"/>
<path d="M38.4165 46.5013C38.2075 45.6047 37.9682 45.0349 37.6567 44.7233C37.3641 44.4118 36.9158 44.3092 35.9129 44.3092H35.1189V52.4773C35.1189 53.9437 35.2898 54.0501 36.8095 54.1679V54.7719H31.1792V54.1679C32.6305 54.0463 32.8014 53.9437 32.8014 52.4773V44.3092H32.2126C30.7955 44.3092 30.484 44.4992 30.2256 44.7765C29.9483 45.0691 29.7241 45.6579 29.5 46.5203H28.877C28.9453 45.259 29.0479 43.9977 29.0859 43.1201H29.5C29.7773 43.519 30.0015 43.5532 30.484 43.5532H37.4249C37.8922 43.5532 38.1315 43.4506 38.4279 43.1201H38.842C38.861 43.8457 38.9446 45.3654 39.0319 46.4709L38.4165 46.5013Z" fill="#133C58"/>
<path d="M51.9678 44.1529C51.018 44.2061 50.5849 44.567 50.5013 45.171C50.4139 45.7067 50.3455 46.345 50.3455 47.5721V49.4526C50.3455 51.2838 50.0682 52.735 49.1032 53.7684C48.3092 54.5966 47.1353 55.0297 45.9082 55.0297C44.7685 55.0297 43.6819 54.7866 42.8537 54.1331C41.8698 53.3733 41.4215 52.0968 41.4215 50.0757V46.0182C41.4215 44.396 41.2505 44.2745 39.9702 44.1529V43.5488H45.1674V44.1529C43.9061 44.2745 43.7351 44.396 43.7351 46.0182V49.7641C43.7351 52.3551 44.6659 53.8558 46.5313 53.8558C48.5866 53.8558 49.4831 52.3019 49.4831 49.4184V47.5721C49.4831 46.345 49.3958 45.6915 49.3122 45.171C49.2248 44.567 48.8107 44.2213 47.6368 44.1529V43.5488H51.9678V44.1529Z" fill="#133C58"/>
<path d="M59.0987 46.3605C58.7378 45.2739 58.0957 43.9936 56.6825 43.9936C55.7137 43.9936 55.0071 44.7193 55.0071 45.7032C55.0071 46.653 55.6301 47.2039 57.1497 47.9637C58.9619 48.8451 60.2042 49.81 60.2042 51.5196C60.2042 53.4876 58.5288 55.0262 56.01 55.0262C55.387 55.0262 54.7829 54.9388 54.2662 54.7831C53.7837 54.6463 53.4532 54.5057 53.2139 54.4032C53.0581 53.9701 52.834 52.5226 52.7124 51.4664L53.3165 51.2765C53.6622 52.382 54.6803 54.3158 56.3367 54.3158C57.3891 54.3158 58.0615 53.5901 58.0615 52.5036C58.0615 51.4854 57.3017 50.8472 56.0062 50.1558C54.2282 49.2592 53.0011 48.3246 53.0011 46.6682C53.0011 44.7686 54.5018 43.2832 56.956 43.2832C58.0615 43.2832 59.0455 43.6289 59.357 43.7505C59.4254 44.3887 59.547 45.1486 59.6837 46.2199L59.0987 46.3605Z" fill="#133C58"/>
<path d="M76.6619 50.0038C75.7995 50.1748 75.6931 50.2469 75.6931 51.4019V52.7657C75.6931 53.3888 75.7121 53.9397 75.7957 54.388C74.7585 54.6463 73.2579 55.0262 71.8598 55.0262C67.8556 55.0262 65.2798 52.7467 65.2798 49.2934C65.2798 45.3575 68.4748 43.2832 72.1182 43.2832C73.5162 43.2832 74.8649 43.6289 75.4842 43.7657C75.5373 44.3697 75.6209 45.2663 75.7615 46.6302L75.1232 46.7518C74.6901 44.837 73.3985 44.005 71.7724 44.005C69.7019 44.005 67.905 45.8704 67.905 48.978C67.905 51.5842 69.1815 54.2968 72.0156 54.2968C72.3613 54.2968 72.7564 54.2436 72.9843 54.0878C73.2427 53.9321 73.3833 53.6547 73.3833 53.1381V51.4968C73.3833 50.2887 73.2959 50.1482 71.4837 49.9962V49.4073H76.6619V50.0038Z" fill="#133C58"/>
<path d="M88.3672 54.9271C88.2646 54.9271 88.0556 54.9081 87.8505 54.9081C85.6736 54.8055 85.0012 54.3193 84.3097 53.2327C83.8614 52.5261 83.3942 51.5915 82.8927 50.6949C82.6153 50.1593 82.3038 49.9541 81.7529 49.9351H81.4262V52.4577C81.4262 53.8748 81.5972 54.0457 82.8927 54.1673V54.7713H77.6765V54.1673C78.972 54.0457 79.162 53.8748 79.162 52.4577V45.8283C79.162 44.4454 79.0062 44.2745 77.7449 44.1529V43.5488H82.5963C84.097 43.5488 84.9784 43.7198 85.6698 44.2061C86.3613 44.6544 86.8437 45.4332 86.8437 46.5007C86.8437 48.0204 85.8408 48.8334 84.6858 49.3159C84.929 49.8173 85.5824 50.9723 86.0839 51.7663C86.707 52.716 87.0679 53.2669 87.4136 53.6316C87.7935 54.0305 88.0708 54.2357 88.4659 54.3724L88.3672 54.9271ZM81.8745 49.2627C82.6001 49.2627 83.1852 49.1411 83.5651 48.7954C84.154 48.3129 84.3933 47.6215 84.3933 46.7401C84.3933 44.9089 83.322 44.2365 82.357 44.2365C81.9239 44.2365 81.6846 44.3048 81.5782 44.4074C81.4566 44.51 81.4224 44.6848 81.4224 45.0457V49.2589H81.8745V49.2627Z" fill="#133C58"/>
<path d="M94.9963 43.3066C98.1229 43.3066 100.695 45.6203 100.695 49.0395C100.695 52.7702 98.0204 55.0306 94.7721 55.0306C91.3187 55.0306 88.9177 52.4929 88.9177 49.1762C88.9177 46.2054 91.0224 43.3066 94.9773 43.3066H94.9963ZM94.6544 44.0133C92.9258 44.0133 91.5619 45.8596 91.5619 48.8495C91.5619 51.8014 92.8726 54.305 95.0836 54.305C96.7249 54.305 98.0545 52.698 98.0545 49.522C98.0545 46.0876 96.6565 44.0133 94.6696 44.0133H94.6544Z" fill="#133C58"/>
<path d="M113.749 44.1529C112.799 44.2061 112.366 44.567 112.282 45.171C112.195 45.7067 112.127 46.345 112.127 47.5721V49.4526C112.127 51.2838 111.849 52.735 110.884 53.7684C110.09 54.5966 108.916 55.0297 107.689 55.0297C106.549 55.0297 105.463 54.7866 104.635 54.1331C103.651 53.3733 103.202 52.0968 103.202 50.0757V46.0182C103.202 44.396 103.032 44.2745 101.751 44.1529V43.5488H106.948V44.1529C105.687 44.2745 105.516 44.396 105.516 46.0182V49.7641C105.516 52.3551 106.447 53.8558 108.312 53.8558C110.368 53.8558 111.264 52.3019 111.264 49.4184V47.5721C111.264 46.345 111.177 45.6915 111.093 45.171C111.006 44.567 110.592 44.2213 109.418 44.1529V43.5488H113.753V44.1529H113.749Z" fill="#133C58"/>
<path d="M119.326 43.5497C120.69 43.5497 121.674 43.7397 122.346 44.2221C123.159 44.773 123.623 45.6392 123.623 46.7599C123.623 49.0736 121.913 50.1259 120.101 50.3501C119.843 50.3843 119.565 50.3843 119.375 50.3843L118.202 50.1069V52.4738C118.202 53.9402 118.357 54.0618 119.843 54.1834V54.7722H114.475V54.1834C115.77 54.0618 115.926 53.9402 115.926 52.4738V45.8595C115.926 44.3931 115.77 44.2867 114.577 44.15V43.5459H119.326V43.5497ZM118.205 49.4193C118.414 49.5067 118.775 49.5903 119.136 49.5903C119.774 49.5903 121.157 49.142 121.157 46.8093C121.157 44.8566 120.052 44.2183 118.999 44.2183C118.673 44.2183 118.464 44.3057 118.361 44.3893C118.259 44.4919 118.205 44.6666 118.205 44.925V49.4193Z" fill="#133C58"/>
<path d="M79.5609 11.3023C77.8361 7.76155 75.3705 5.07179 72.2324 3.17984C69.1666 1.17012 65.5042 0 61.5646 0C50.7979 0 42.0676 8.73032 42.0676 19.497C42.0676 30.2636 50.7941 38.9939 61.5646 38.9939C63.2286 38.9939 64.8432 38.785 66.3818 38.3937C67.7191 38.0821 69.0678 37.63 70.4279 37.0298C75.0476 34.9859 78.1438 31.3805 80.0662 26.738C82.2203 21.5105 82.0227 16.3589 79.5609 11.3023ZM62.7347 35.6811C61.8609 35.6811 61.1923 35.7077 60.5768 35.6925C60.1969 35.6697 59.817 35.6317 59.4447 35.5861C58.852 35.438 58.8406 35.096 59.1788 34.2754C59.8322 32.6988 60.3261 31.0918 60.2995 29.348C60.2577 26.5671 59.2129 24.1356 57.7389 21.8638C56.0445 19.2538 54.6996 16.5413 54.7072 13.3386C54.711 11.4923 55.3987 9.84725 56.5802 8.50997C58.001 6.89916 59.6612 5.54668 61.4848 4.34996C62.6283 3.60154 63.7415 3.70032 64.8622 3.79909C65.9677 3.89787 67.0429 4.23599 68.0914 4.6311C68.6157 4.86284 69.1286 5.12118 69.6225 5.40231C69.6453 5.4593 69.6642 5.52008 69.668 5.59607C69.7098 6.08615 69.2691 6.05956 69.0222 6.19252C65.888 7.88692 63.0728 9.96123 61.3518 13.1715C60.0487 15.6029 59.4029 18.1635 59.8018 21.0166C60.5236 26.1302 63.5325 29.5076 67.6963 32.1099C68.2434 32.4519 68.8322 32.7292 69.3793 33.0749C69.5465 33.1813 69.7782 33.2079 69.8732 33.4358C67.7571 34.7009 65.3295 35.4987 62.7347 35.6811ZM51.535 16.7882C52.0478 19.2196 53.4497 21.2103 54.692 23.2847C55.8773 25.2602 56.8575 27.3079 56.7131 29.7013C56.641 30.9018 56.3636 32.0302 55.8697 33.1471C55.4708 34.0475 54.9845 34.0703 54.2779 33.6752C51.2728 31.9998 49.0314 29.5874 47.5915 26.4759C46.5923 24.318 46.0643 22.0234 46.2238 19.7933C46.0643 15.223 47.6485 11.4657 50.5662 8.27823C51.611 7.1385 52.9178 6.23431 54.2551 5.42131C54.4565 5.29974 54.7072 5.21616 54.8554 5.40611C55.0263 5.63026 54.901 5.8582 54.7186 6.08615C53.3623 7.77675 52.3062 9.61931 51.5312 11.6632C50.8625 13.4222 51.1741 15.0786 51.535 16.7882ZM73.4747 29.7659C73.4443 28.2805 73.4633 26.7912 73.4633 25.302C73.4633 23.7405 73.4254 22.1753 73.4785 20.6177C73.5051 19.8237 73.2126 19.5615 72.4452 19.5957C69.8732 19.7097 69.8732 18.9461 69.8884 22.1107C69.8998 24.2686 69.8808 26.4265 69.896 28.5806C69.8998 29.2188 69.7364 29.405 69.14 29.0175C66.6212 27.3915 64.2163 25.5907 63.3919 22.5552C62.2142 18.2167 63.0196 13.9351 67.1379 11.0288C68.836 9.82826 70.633 8.92027 72.5212 8.12246C72.7149 8.04268 72.8783 8.00469 73.0302 8.00849C75.9745 10.9452 77.7943 15.0064 77.7943 19.4932C77.7943 23.7633 76.1455 27.6498 73.4481 30.5485C73.3342 30.3282 73.4785 30.0052 73.4747 29.7659Z" fill="#133C58"/>
<path d="M127 44.7724C127 45.46 126.461 46.0033 125.754 46.0033C125.059 46.0033 124.5 45.4638 124.5 44.7724C124.5 44.0999 125.055 43.5566 125.754 43.5566C126.461 43.5566 127 44.0999 127 44.7724ZM124.816 44.7724C124.816 45.3118 125.214 45.7411 125.765 45.7411C126.297 45.7411 126.692 45.3118 126.692 44.7761C126.692 44.2367 126.301 43.7998 125.758 43.7998C125.214 43.8036 124.816 44.2405 124.816 44.7724ZM125.564 45.4106H125.283V44.1949C125.393 44.1721 125.549 44.1569 125.75 44.1569C125.978 44.1569 126.084 44.1949 126.172 44.2443C126.24 44.2975 126.29 44.3924 126.29 44.5102C126.29 44.6432 126.187 44.7458 126.039 44.7913V44.8065C126.157 44.8521 126.225 44.9395 126.263 45.1029C126.301 45.289 126.324 45.3612 126.35 45.4068H126.046C126.008 45.3612 125.986 45.251 125.951 45.1105C125.929 44.9775 125.857 44.9167 125.701 44.9167H125.568V45.4106H125.564ZM125.572 44.723H125.705C125.86 44.723 125.986 44.6698 125.986 44.5444C125.986 44.4342 125.906 44.3582 125.727 44.3582C125.655 44.3582 125.602 44.3658 125.572 44.3734V44.723Z" fill="#133C58"/>
</svg>
