<svg viewBox="0 0 13 13" fill="none" xmlns="http://www.w3.org/2000/svg">
<path d="M7.00198 2.91821C5.30014 2.91821 3.92236 4.29749 3.92236 5.99783C3.92236 7.69967 5.30164 9.07745 7.00198 9.07745C8.70382 9.07745 10.0816 7.69817 10.0816 5.99783C10.0816 4.29599 8.70232 2.91821 7.00198 2.91821ZM7.00198 7.99673C5.89726 7.99673 5.00308 7.10205 5.00308 5.99783C5.00308 4.89361 5.89776 3.99893 7.00198 3.99893C8.1062 3.99893 9.00088 4.89361 9.00088 5.99783C9.00138 7.10205 8.1067 7.99673 7.00198 7.99673Z" fill="#EB8271"/>
<path d="M9.4741 0.0377009C8.36988 -0.0138094 5.63483 -0.0113089 4.52961 0.0377009C3.55842 0.08321 2.70175 0.317757 2.01111 1.0084C0.856876 2.16263 1.00441 3.71794 1.00441 5.9989C1.00441 8.33337 0.87438 9.85267 2.01111 10.9894C3.16984 12.1476 4.74766 11.9961 7.00161 11.9961C9.31407 11.9961 10.1122 11.9976 10.9299 11.681C12.0416 11.2494 12.8808 10.2557 12.9628 8.47089C13.0148 7.36617 13.0118 4.63162 12.9628 3.5264C12.8638 1.41948 11.7331 0.141722 9.4741 0.0377009ZM11.222 10.2257C10.4653 10.9824 9.41559 10.9149 6.9871 10.9149C4.4866 10.9149 3.4839 10.9519 2.75226 10.2182C1.90959 9.37957 2.06212 8.0328 2.06212 5.99089C2.06212 3.22784 1.77856 1.23794 4.55162 1.09591C5.18874 1.07341 5.37628 1.06591 6.9801 1.06591L7.00261 1.08091C9.66764 1.08091 11.7586 0.801854 11.8841 3.57441C11.9126 4.20704 11.9191 4.39708 11.9191 5.9984C11.9186 8.46989 11.9656 9.47859 11.222 10.2257Z" fill="#EB8271"/>
<path d="M10.2038 3.51619C10.6012 3.51619 10.9234 3.194 10.9234 2.79655C10.9234 2.3991 10.6012 2.0769 10.2038 2.0769C9.80633 2.0769 9.48413 2.3991 9.48413 2.79655C9.48413 3.194 9.80633 3.51619 10.2038 3.51619Z" fill="#EB8271"/>
</svg>
