<svg viewBox="0 0 144 35" fill="none" xmlns="http://www.w3.org/2000/svg">
<path d="M1.6242 21.8551H6.09075V10.9287H4.46655V0.00228882H0V10.9287H1.6242V21.8551Z" fill="#221F20"/>
<path d="M102.122 21.855V10.9286H100.497V0.00219727H96.0308V10.9286H97.655V21.855H102.122Z" fill="#221F20"/>
<path d="M68.2717 10.9286L63.4914 0.00219727H61.6457L56.8469 10.9286H58.4711L53.6724 21.855H58.4711L59.6893 19.0127H68.6224L69.8405 21.855H74.6393L69.859 10.9286H68.2717ZM61.2581 15.3398L62.9931 10.9286H61.3689L62.5501 7.95708L63.7313 10.9286H65.3555L67.0905 15.3398H61.2581Z" fill="#221F20"/>
<path d="M93.1884 21.855V17.813H83.6093V10.9286H81.9851V0.00219727H77.5186V10.9286H79.1428V21.855H93.1884Z" fill="#221F20"/>
<path d="M120.154 10.9286H118.53C117.754 10.3749 116.795 9.85813 115.65 9.3598L113.159 8.30777C112.18 7.88326 111.516 7.49566 111.147 7.16344C110.778 6.83122 110.593 6.40671 110.593 5.87146C110.593 5.22548 110.852 4.72714 111.35 4.37646C111.867 4.00733 112.513 3.84122 113.306 3.84122C114.967 3.84122 116.352 4.65332 117.477 6.27752L120.523 4.00733C119.822 2.77072 118.843 1.79251 117.607 1.09115C116.37 0.371337 114.93 0.0206604 113.306 0.0206604C111.202 0.0206604 109.467 0.574363 108.101 1.66331C106.736 2.75227 106.053 4.21035 106.053 6.00066C106.053 7.95709 107.105 9.59974 109.209 10.9471H110.833C111.461 11.3531 112.18 11.7223 112.974 12.073L115.318 13.0881C116.425 13.5864 117.164 13.9925 117.533 14.3247C117.902 14.6569 118.105 15.1183 118.105 15.7089C118.105 16.4288 117.828 17.0009 117.274 17.4254C116.721 17.8499 115.964 18.053 114.986 18.053C112.956 18.053 111.165 17.0378 109.615 14.9891L106.533 17.2224C107.4 18.6805 108.563 19.8064 110.021 20.6369C111.497 21.4675 113.14 21.892 114.967 21.892C117.201 21.892 119.028 21.3198 120.468 20.157C121.907 18.9943 122.627 17.4623 122.627 15.5797C122.627 14.177 122.202 12.9958 121.335 12.0545C121.058 11.63 120.652 11.2793 120.154 10.9286Z" fill="#221F20"/>
<path d="M38.5746 12.8297H46.0866V10.9286H44.4624V9.02757H36.9504V4.04424H47.5816V0.00219727H32.4839V10.9286H34.1081V21.855H49.2058V17.813H38.5746V12.8297Z" fill="#221F20"/>
<path d="M27.999 10.8548C28.0359 7.64331 26.947 5.04089 24.6952 2.99219C22.4435 0.94348 19.5827 -0.0531848 16.0943 0.00218568H8.93311V10.9286H10.5573V21.8551H17.7185C21.17 21.892 24.0123 20.8768 26.301 18.7728C28.5527 16.6871 29.6786 14.0847 29.6417 10.9286H28.0175V10.8548H27.999ZM23.0157 15.912C21.6683 17.1855 19.8965 17.813 17.6816 17.813H15.0239V10.9286H13.3997V4.04423H16.0574C18.3092 4.04423 20.0995 4.6533 21.4284 5.87145C22.7573 7.0896 23.4217 8.75072 23.4217 10.8733C23.4217 10.8917 23.4217 10.9102 23.4217 10.9471H25.0459C25.009 12.9958 24.3445 14.6569 23.0157 15.912Z" fill="#221F20"/>
<path d="M144 4.04424V0.00219727H125.525V4.04424H132.52V10.9286H134.144V21.855H138.611V10.9286H136.987V4.04424H144Z" fill="#221F20"/>
<path d="M4.22638 29.7915C4.90928 29.7915 5.46299 30.0683 5.88749 30.6405L6.25663 30.3452C5.75829 29.6623 5.07539 29.3116 4.22638 29.3116C3.50656 29.2931 2.89749 29.5515 2.3807 30.0683C1.86391 30.5851 1.60551 31.2126 1.62397 31.914C1.60551 32.6338 1.86391 33.2429 2.3807 33.7781C2.89749 34.2949 3.50656 34.5533 4.22638 34.5349C5.07539 34.5349 5.75829 34.1842 6.27508 33.5013L5.90595 33.206C5.46298 33.7597 4.90928 34.055 4.24484 34.055C3.67268 34.055 3.17434 33.852 2.78675 33.4275C2.39916 33.0214 2.19613 32.5046 2.19613 31.914C2.19613 31.3234 2.39916 30.825 2.78675 30.4005C3.15589 29.9945 3.63576 29.7915 4.22638 29.7915Z" fill="#221F20"/>
<path d="M13.5842 26.6169H13.0674V34.4241H13.5842V26.6169Z" fill="#221F20"/>
<path d="M24.1967 32.56C24.1967 33.003 24.0675 33.3721 23.7907 33.649C23.5138 33.9258 23.1632 34.055 22.7571 34.055C22.3326 34.055 21.9819 33.9258 21.7051 33.649C21.4282 33.3721 21.299 33.003 21.299 32.56V29.4224H20.7822V32.5416C20.7822 33.1322 20.9668 33.6305 21.3359 33.9996C21.7051 34.3688 22.1849 34.5533 22.7571 34.5533C23.3108 34.5533 23.7907 34.3688 24.1598 33.9996C24.529 33.6305 24.7135 33.1506 24.7135 32.5416V29.4224H24.1967V32.56Z" fill="#221F20"/>
<path d="M34.4587 29.2931C34.0342 29.2931 33.6281 29.3854 33.259 29.5884C32.8898 29.7915 32.613 30.0499 32.4284 30.3821V26.6169H31.9116V34.4241H32.41V33.409C32.5945 33.7412 32.8714 34.0181 33.2405 34.2211C33.6097 34.4241 34.0157 34.5164 34.4587 34.5164C35.16 34.5164 35.7507 34.258 36.2305 33.7597C36.7104 33.2613 36.9504 32.6338 36.9504 31.914C36.9504 31.1757 36.7104 30.5482 36.2305 30.0499C35.7507 29.5515 35.16 29.2931 34.4587 29.2931ZM35.8429 33.4459C35.4553 33.852 34.9755 34.055 34.4033 34.055C33.8496 34.055 33.3697 33.8704 33.0006 33.5013C32.613 33.1321 32.4284 32.6153 32.4284 31.9324C32.4284 31.2495 32.613 30.7143 33.0006 30.3452C33.3882 29.976 33.8496 29.7915 34.4033 29.7915C34.9755 29.7915 35.4553 29.9945 35.8429 30.4005C36.2305 30.8066 36.4151 31.3049 36.4151 31.914C36.4151 32.5231 36.2121 33.0214 35.8429 33.4459Z" fill="#221F20"/>
<path d="M53.137 29.3669C52.3987 29.3669 51.845 29.6622 51.4759 30.2529V29.4039H50.9775V34.4426H51.4943V31.4895C51.4943 31.0096 51.6604 30.6035 52.0111 30.3082C52.3433 30.0129 52.7494 29.8653 53.2108 29.8653H53.4692V29.4039C53.4507 29.4039 53.4138 29.4039 53.34 29.3854C53.2477 29.3854 53.1739 29.3669 53.137 29.3669Z" fill="#221F20"/>
<path d="M61.9781 29.2932C61.2768 29.2747 60.6862 29.5331 60.1694 30.0499C59.671 30.5667 59.4126 31.1942 59.4311 31.914C59.4126 32.6338 59.671 33.2429 60.1878 33.7597C60.7046 34.2765 61.3137 34.5349 62.0335 34.5164C62.8456 34.5164 63.5285 34.2027 64.0638 33.5751L63.7315 33.2245C63.2886 33.7597 62.7349 34.0181 62.052 34.0181C61.4798 34.0181 60.9999 33.8335 60.6123 33.4459C60.2247 33.0583 60.0033 32.5785 59.9848 32.0063H64.193C64.2299 31.8956 64.2299 31.7295 64.2299 31.508C64.2299 30.8435 64.0084 30.3083 63.5839 29.8838C63.1409 29.5146 62.6057 29.2932 61.9781 29.2932ZM60.0033 31.5633C60.0771 31.0466 60.2986 30.6221 60.6677 30.2898C61.0368 29.9576 61.4613 29.773 61.9781 29.773C62.4765 29.773 62.901 29.9391 63.2332 30.2714C63.5654 30.6036 63.7315 31.0281 63.7131 31.5633H60.0033Z" fill="#221F20"/>
<path d="M81.6716 29.4039H81.1548V34.4426H81.6716V29.4039Z" fill="#221F20"/>
<path d="M93.0775 30.3821C92.8745 30.0499 92.5976 29.7915 92.2469 29.5885C91.8778 29.3855 91.4902 29.2932 91.0472 29.2932C90.3274 29.2932 89.7368 29.5516 89.2569 30.0499C88.777 30.5482 88.5371 31.1758 88.5371 31.914C88.5371 32.6523 88.777 33.2614 89.2569 33.7597C89.7368 34.2581 90.3274 34.5164 91.0288 34.5164C91.4717 34.5164 91.8778 34.4242 92.2469 34.2211C92.6161 34.0181 92.8929 33.7413 93.0775 33.3906V34.4057H93.5758V26.5985H93.0775V30.3821ZM92.4869 33.5013C92.0993 33.8705 91.6379 34.055 91.0841 34.055C90.512 34.055 90.0321 33.852 89.6445 33.446C89.2569 33.0399 89.0724 32.5231 89.0724 31.9325C89.0724 31.3234 89.2569 30.8251 89.6445 30.419C90.0321 30.013 90.512 29.81 91.0841 29.81C91.6379 29.81 92.1177 29.9945 92.4869 30.3637C92.8745 30.7328 93.059 31.2681 93.059 31.951C93.0775 32.6154 92.8745 33.1322 92.4869 33.5013Z" fill="#221F20"/>
<path d="M102.989 29.2932C102.288 29.2747 101.697 29.5331 101.18 30.0499C100.682 30.5667 100.423 31.1942 100.442 31.914C100.423 32.6338 100.682 33.2429 101.199 33.7597C101.715 34.2765 102.324 34.5349 103.044 34.5164C103.856 34.5164 104.539 34.2027 105.074 33.5751L104.742 33.2245C104.299 33.7597 103.746 34.0181 103.063 34.0181C102.491 34.0181 102.011 33.8335 101.623 33.4459C101.235 33.0583 101.014 32.5785 100.996 32.0063H105.204C105.222 31.8956 105.241 31.7295 105.241 31.508C105.241 30.8435 105.019 30.3083 104.595 29.8838C104.17 29.5146 103.635 29.2932 102.989 29.2932ZM101.014 31.5633C101.088 31.0466 101.309 30.6221 101.678 30.2898C102.048 29.9576 102.472 29.773 102.989 29.773C103.487 29.773 103.912 29.9391 104.244 30.2714C104.576 30.6036 104.742 31.0281 104.724 31.5633H101.014Z" fill="#221F20"/>
<path d="M114.211 29.2932C113.509 29.2932 112.974 29.5515 112.605 30.0683V29.3854H112.106V34.4241H112.623V31.2865C112.623 30.8435 112.771 30.4928 113.048 30.216C113.325 29.9391 113.694 29.7915 114.137 29.7915C114.561 29.7915 114.912 29.9391 115.17 30.216C115.429 30.4928 115.558 30.862 115.558 31.3049V34.4426H116.075V31.268C116.075 30.6774 115.909 30.1975 115.576 29.8469C115.244 29.4777 114.783 29.2932 114.211 29.2932Z" fill="#221F20"/>
<path d="M125.47 29.7915C126.152 29.7915 126.706 30.0683 127.131 30.6405L127.5 30.3452C127.001 29.6623 126.319 29.3116 125.47 29.3116C124.75 29.2931 124.141 29.5515 123.624 30.0683C123.107 30.5851 122.849 31.2126 122.867 31.914C122.849 32.6338 123.107 33.2429 123.624 33.7781C124.141 34.2949 124.75 34.5533 125.47 34.5349C126.319 34.5349 127.001 34.1842 127.518 33.5013L127.149 33.206C126.706 33.7597 126.152 34.055 125.488 34.055C124.916 34.055 124.417 33.852 124.03 33.4275C123.642 33.0214 123.439 32.5046 123.439 31.914C123.439 31.3234 123.642 30.825 124.03 30.4005C124.381 29.9945 124.879 29.7915 125.47 29.7915Z" fill="#221F20"/>
<path d="M136.359 29.2932C135.658 29.2747 135.067 29.5331 134.55 30.0499C134.052 30.5667 133.794 31.1942 133.812 31.914C133.794 32.6338 134.052 33.2429 134.569 33.7597C135.085 34.2765 135.695 34.5349 136.414 34.5164C137.226 34.5164 137.909 34.2027 138.445 33.5751L138.112 33.2245C137.669 33.7597 137.116 34.0181 136.433 34.0181C135.861 34.0181 135.381 33.8335 134.993 33.4459C134.606 33.0583 134.384 32.5785 134.366 32.0063H138.574C138.592 31.8956 138.611 31.7295 138.611 31.508C138.611 30.8435 138.389 30.3083 137.965 29.8838C137.522 29.5146 136.987 29.2932 136.359 29.2932ZM134.384 31.5633C134.458 31.0466 134.679 30.6221 135.049 30.2898C135.418 29.9576 135.842 29.773 136.359 29.773C136.857 29.773 137.282 29.9391 137.614 30.2714C137.946 30.6036 138.112 31.0281 138.094 31.5633H134.384Z" fill="#221F20"/>
<path d="M73.421 31.914H72.7935C72.6643 31.8402 72.5167 31.7664 72.3505 31.6925L71.8891 31.4895C71.52 31.3419 71.2801 31.1942 71.1509 31.065C71.0217 30.9358 70.9478 30.7697 70.9478 30.5667C70.9478 30.3267 71.0401 30.1237 71.2431 29.9761C71.4277 29.8284 71.6861 29.773 71.9814 29.773C72.4613 29.773 72.9042 29.9945 73.2918 30.419L73.6425 30.0868C73.2365 29.5515 72.6828 29.2932 72.0183 29.2932C71.5569 29.2932 71.1878 29.4039 70.874 29.6438C70.5603 29.8838 70.4126 30.1975 70.4126 30.6036C70.4126 30.9174 70.5049 31.1758 70.7079 31.3603C70.8925 31.5449 71.1878 31.7295 71.5754 31.8956H72.2029C72.2213 31.914 72.2583 31.914 72.2767 31.9325L72.7381 32.1355C73.1442 32.3201 73.4026 32.4677 73.5318 32.5785C73.661 32.6892 73.7533 32.8922 73.7717 33.1506C73.7717 33.4275 73.661 33.649 73.4579 33.7966C73.2549 33.9443 72.9781 34.0366 72.6458 34.0366C72.0737 34.0366 71.5384 33.7412 71.077 33.1322L70.7079 33.4829C71.1878 34.1842 71.8153 34.5349 72.6274 34.5349C73.0888 34.5349 73.4949 34.4057 73.8086 34.1658C74.1408 33.9258 74.307 33.5751 74.307 33.1322C74.307 32.7999 74.1962 32.5231 73.9932 32.3016C73.8455 32.1909 73.661 32.0432 73.421 31.914Z" fill="#221F20"/>
</svg>
