<svg width="150" height="56" viewBox="0 0 150 56" fill="none" xmlns="http://www.w3.org/2000/svg">
<path d="M76.3195 19.921C76.3646 19.7858 76.4547 19.6506 76.4998 19.5605C76.635 19.6957 76.7251 19.8309 76.8153 19.921C76.6801 19.921 76.4998 19.921 76.3195 19.921ZM74.4266 19.6055C74.6068 19.5605 74.7871 19.4703 74.9674 19.4253C74.9223 19.5154 74.8773 19.6055 74.8322 19.7408C74.697 19.6506 74.5618 19.6506 74.4266 19.6055ZM73.0745 18.7492C72.9393 18.5689 72.8491 18.4337 72.804 18.2534C72.804 18.2084 72.804 18.1633 72.8491 18.1182C72.8491 18.1182 72.9843 18.0281 73.5702 17.983C74.1561 17.983 74.697 18.1633 75.1928 18.4788C74.6069 18.7041 74.0209 18.9295 73.39 19.1098C73.2548 18.9746 73.1646 18.8844 73.0745 18.7492ZM81.6378 12.3042C81.7279 12.2141 81.773 12.169 81.8631 12.0789C81.6828 13.0704 81.0969 14.107 80.1505 15.1436C79.4744 15.8647 78.7082 16.5408 77.7618 17.0816C78.9786 15.1887 80.2406 13.5662 81.6378 12.3042ZM69.2435 15.9999C70.0998 14.8281 71.0012 13.7915 71.9928 12.845C72.3533 12.5296 72.7139 12.2141 73.0745 11.8986C72.9393 12.9803 72.3533 14.0619 71.3618 15.1887C70.5505 16.0901 69.5139 16.9013 68.297 17.5774C68.6125 16.9915 68.928 16.4506 69.2435 15.9999ZM58.2464 19.7408C58.3816 19.5154 58.4718 19.3351 58.5168 19.245L58.8323 18.6591C59.3281 17.7126 59.8689 16.8563 60.4098 15.9999C61.2661 14.8281 62.1675 13.7915 63.1591 12.845C65.5928 10.5465 68.0266 9.37465 70.4153 9.37465C71.8576 9.37465 72.7139 9.82535 72.9843 10.7268C72.5787 10.9972 72.2181 11.2676 71.9026 11.538C69.9196 13.1155 68.0717 15.2788 66.4942 17.938C66.359 18.2084 66.2689 18.3887 66.1788 18.5689C65.5928 18.7943 64.9619 19.0196 64.2858 19.1999C63.9252 19.0647 63.6548 18.9295 63.3393 18.7943C63.0689 18.6591 62.7985 18.4788 62.5732 18.2985L62.483 18.2534H62.3929C62.1675 18.2534 62.0774 18.5239 62.0774 18.6591V18.7041C62.0774 19.1098 62.2577 19.2901 62.3929 19.3351C62.5281 19.4253 62.6182 19.4703 62.7534 19.5154C61.6267 19.6957 60.4549 19.8309 59.283 19.8309C58.9675 19.7858 58.607 19.7858 58.2464 19.7408ZM67.0802 19.7408C67.2154 19.5154 67.3055 19.3351 67.3506 19.245L67.5309 18.8844C69.4238 18.0732 71.0012 17.0816 72.2181 15.8647C73.7054 14.4225 74.4716 12.8901 74.4716 11.3127C74.4716 11.1775 74.4716 11.0422 74.4266 10.862C76.004 9.87042 77.6265 9.32958 79.204 9.32958C80.7814 9.32958 81.6378 9.87042 81.8631 10.907C81.5927 11.0873 81.3674 11.2676 81.142 11.4479C79.204 13.0253 77.4012 15.0985 75.8688 17.6675C75.1477 17.307 74.3815 17.1267 73.5252 17.1267C72.128 17.1267 71.8125 17.7126 71.8125 18.2084C71.8125 18.614 71.9477 18.9746 72.2181 19.2901C70.9111 19.5605 69.559 19.6957 68.1168 19.6957C67.8013 19.7858 67.4407 19.7858 67.0802 19.7408ZM77.1308 18.5239C78.7082 17.7577 80.0153 16.8563 81.0969 15.8647C82.5842 14.4225 83.3504 12.8901 83.3504 11.3127C83.3504 11.2225 83.3504 11.1324 83.3504 10.9972C85.1532 9.82535 87.0462 9.23944 89.0743 9.23944C89.7954 9.23944 90.3814 9.41972 90.8321 9.73521C91.2828 10.0507 91.5081 10.5014 91.5081 11.1324C91.5081 11.8986 91.0123 12.8901 90.0208 14.107C88.8941 15.5492 87.4067 16.8112 85.6039 17.8027C83.4406 19.0196 81.0519 19.6957 78.4829 19.876C78.0322 19.3802 77.5815 18.8844 77.1308 18.5239ZM83.1702 10.1408C82.7645 8.96902 81.6828 8.38311 80.0153 8.38311C79.0688 8.38311 78.1223 8.51832 77.1758 8.78874C76.2294 9.05916 75.2378 9.41972 74.2463 9.91549C73.7956 8.87888 72.759 8.33804 71.1365 8.33804C70.19 8.33804 69.2435 8.47325 68.297 8.74367C65.7281 9.41972 63.745 10.862 63.0239 11.4479C61.0408 13.0253 59.1929 15.1887 57.6154 17.8478C57.4352 18.2084 57.3 18.4337 57.1647 18.7041C57.0295 18.9295 56.8943 19.1548 56.7591 19.4703C55.9028 19.2901 55.1366 19.0196 54.5056 18.7041C54.2352 18.5689 53.9648 18.3887 53.7394 18.2084L53.6493 18.1633H53.5591C53.3338 18.1633 53.2437 18.4337 53.2437 18.5689V18.614C53.2437 19.0196 53.4239 19.1999 53.5591 19.245C54.2352 19.6506 55.1817 19.9661 56.3986 20.1915C55.407 22.2196 54.9112 23.6168 54.9112 24.428C54.9112 24.6534 55.0014 25.014 55.5422 25.1041H55.5873C56.0831 25.1041 56.3535 24.4731 56.4436 24.2478C56.8943 22.5802 57.4352 21.2281 57.8408 20.3717C58.4718 20.4168 59.1478 20.4619 59.8689 20.4619C61.2661 20.4619 62.7084 20.2816 64.1506 19.921C64.4661 20.0112 64.8267 20.1013 65.2323 20.1464C64.2407 22.1745 63.745 23.5717 63.745 24.383C63.745 24.5632 63.79 24.9689 64.376 25.059H64.421C64.9168 25.059 65.1872 24.428 65.2774 24.2027C65.7281 22.5351 66.2689 21.183 66.6745 20.3267C67.3506 20.3717 68.0266 20.4168 68.7027 20.4168C70.1449 20.4168 71.5872 20.2365 73.0745 19.876C73.435 20.0562 73.8857 20.1915 74.4266 20.3267C73.5252 22.2647 73.0745 23.5717 73.0745 24.383C73.0745 24.5632 73.1195 24.9689 73.7055 25.059H73.7505C74.2463 25.059 74.5167 24.428 74.5618 24.2027C74.8773 23.0759 75.328 21.859 75.9139 20.552C76.4096 20.5971 76.8604 20.5971 77.3111 20.5971C78.3026 22.2196 79.2941 23.7971 80.2857 25.4196C81.6378 27.5829 83.08 29.2055 84.5673 30.2421C86.5504 31.6843 88.9391 32.4505 91.6433 32.4505C93.0405 32.4505 94.1672 32.2252 94.9785 31.7294C95.6996 31.3238 96.1503 30.7829 96.2855 30.1519V29.4308V29.3857C96.1053 28.4393 95.294 27.6731 93.8518 27.0421C92.4997 26.4562 91.0123 26.1407 89.3898 26.1407C88.5786 26.1407 87.6321 26.2308 86.5504 26.4111C85.3335 26.6365 85.0631 26.7266 84.9279 26.7717C84.7476 26.9069 84.6124 27.0421 84.6124 27.1773C84.6124 27.4027 84.7476 27.5379 84.973 27.5379C85.018 27.5379 85.0631 27.5379 85.1983 27.4928C86.5504 27.0872 87.8574 26.8618 88.9842 26.8618C90.6968 26.8618 92.1842 27.1773 93.4461 27.8083C94.663 28.3942 95.2039 29.1153 95.2039 29.9717C95.2039 30.4674 94.9334 30.828 94.3475 31.0984C93.5813 31.459 92.725 31.5942 91.8236 31.5942C89.3898 31.5942 87.2265 30.9181 85.4687 29.6111C84.2068 28.6196 82.8997 27.0872 81.6378 25.059C80.7364 23.5717 79.7899 22.0393 78.8434 20.5069C81.0969 20.3267 83.3054 19.7408 85.4687 18.7943C87.587 17.8478 89.3448 16.6309 90.6969 15.2788C92.094 13.8817 92.7701 12.4394 92.7701 11.1324C92.7701 10.2761 92.4546 9.6 91.8236 9.05916C91.1926 8.56339 90.3814 8.29297 89.3898 8.29297C87.3166 8.38311 85.1983 8.96902 83.1702 10.1408Z" fill="#133C58"/>
<path d="M75.1477 0H74.2463C73.6153 0 73.0294 0.0901401 72.4435 0.13521C72.2181 0.18028 71.7674 0.27042 71.7674 0.27042C68.252 0.811261 64.9618 2.2535 62.2126 4.46193C57.8858 7.93233 55.3169 13.3407 55.1816 19.1998V19.4703L55.4521 19.4252H55.6774V19.1998C55.9929 12.9351 59.5985 6.98586 65.052 3.65067C67.8914 1.93801 71.1815 0.991541 74.6068 0.991541C79.7899 0.991541 84.8828 3.10983 88.5335 6.80558C92.2292 10.5013 94.1222 15.6844 93.7616 21.0928C92.9053 29.8814 86.5504 36.8222 77.8519 38.3997C76.8153 38.58 75.7336 38.6701 74.6519 38.6701C67.2604 38.6701 60.1844 33.9828 57.1197 27.042C56.6239 25.9603 56.2633 24.8336 56.038 23.6618L55.9929 23.3913L55.5422 23.5266V23.8871C57.2098 32.2701 64.1055 38.58 72.6688 39.6616C73.2547 39.7518 73.8857 39.7968 74.5167 39.7968H75.4181C85.1081 39.5715 93.401 31.6392 94.3475 21.7688C94.7982 14.783 91.8686 8.11261 86.5053 3.96616C84.2969 2.2535 81.6828 1.08168 78.8885 0.49577C77.6716 0.18028 76.4096 0 75.1477 0Z" fill="#133C58"/>
<path d="M78.9176 53.7239C78.6923 53.4084 78.5571 53.0478 78.5571 52.6873C78.5571 52.507 78.6021 52.3718 78.6923 52.1915C78.7824 52.0563 78.9176 51.9211 79.0979 51.7859C79.3233 52.1915 79.5486 52.552 79.774 52.8675C79.9993 53.183 80.1796 53.4534 80.3148 53.6788C80.1796 53.9041 80.0444 54.0394 79.9542 54.0844C79.8641 54.1295 79.774 54.1746 79.6838 54.1746C79.4134 54.1746 79.143 54.0394 78.9176 53.7239ZM79.5035 50.0732C79.4134 49.8929 79.3683 49.6676 79.3683 49.5324C79.3683 49.3521 79.4134 49.2169 79.5035 49.1267C79.5937 49.0366 79.6838 48.9915 79.819 48.9915C79.9993 48.9915 80.1345 49.0366 80.2247 49.1718C80.3148 49.307 80.4049 49.4873 80.4049 49.7126C80.4049 49.8929 80.3599 50.1183 80.2697 50.2985C80.1796 50.4788 80.0444 50.614 79.9092 50.7492C79.6838 50.4788 79.5486 50.2535 79.5035 50.0732ZM78.7824 48.9014C78.512 49.1718 78.3768 49.5324 78.3768 49.8929C78.3768 50.1183 78.4219 50.3436 78.512 50.569C78.6021 50.7943 78.7374 51.0647 78.9176 51.3802C78.512 51.6506 78.1514 51.9661 77.9261 52.2816C77.6557 52.6422 77.5205 53.0027 77.5205 53.3182C77.5205 53.8591 77.6557 54.2647 77.9712 54.6253C78.2867 54.9858 78.6472 55.1661 79.0528 55.1661C79.3233 55.1661 79.5937 55.076 79.819 54.8506C80.0444 54.6703 80.3148 54.3999 80.5852 53.9943C80.8106 54.3549 81.0359 54.6253 81.2162 54.8055C81.712 55.2112 82.2077 55.2112 82.6134 54.7605C82.7937 54.5351 83.019 54.1746 83.2444 53.6788L83.2894 53.5887L82.9739 53.3633L82.9289 53.4985C82.8387 53.7239 82.7486 53.9042 82.6584 53.9943C82.5683 54.0844 82.5232 54.1295 82.4331 54.1295C82.2979 54.1295 82.1176 54.0394 81.8923 53.814C81.6669 53.6337 81.4866 53.3182 81.2162 52.9126L81.5317 52.4619C81.5768 52.4168 81.5768 52.3718 81.6218 52.3718C81.6218 52.4619 81.6218 52.507 81.6218 52.552C81.6669 52.6873 81.712 52.8225 81.8472 52.9126C81.9373 53.0027 82.0725 53.0478 82.2077 53.0478C82.388 53.0478 82.5683 52.9577 82.7035 52.8225C82.8387 52.6873 82.8838 52.507 82.8838 52.2816C82.8838 52.0563 82.7937 51.876 82.7035 51.7408C82.5683 51.6056 82.388 51.5154 82.2077 51.5154C81.9373 51.5154 81.5768 51.7859 81.2162 52.2816C81.1711 52.3718 81.081 52.4619 81.0359 52.507L80.4951 51.6506C80.2247 51.245 80.1345 51.0647 80.0444 50.9746C80.2697 50.7943 80.4049 50.614 80.5402 50.3887C80.6754 50.1633 80.7655 49.8929 80.7655 49.6225C80.7655 49.2619 80.6754 48.9464 80.4951 48.7211C80.3148 48.4957 80.0444 48.3605 79.7289 48.3605C79.3683 48.4957 79.0528 48.631 78.7824 48.9014ZM61.3403 47.7746V49.8478H61.791V49.3521C61.791 48.9464 61.8812 48.676 62.0164 48.5408C62.1516 48.4056 62.422 48.3605 62.7375 48.3605C62.7375 48.3605 62.7826 48.3605 62.8276 48.3605C63.3685 48.3155 64.0445 48.2704 64.8558 48.2704C64.9008 48.2704 64.991 48.2704 65.1713 48.2704C65.2614 48.2704 65.3515 48.2704 65.4417 48.2704C65.1262 48.7211 64.4051 49.8028 62.4671 52.7323L60.5741 55.6619H67.5149V55.3013V55.2562C67.5149 55.2112 67.5149 55.2112 67.5149 55.1661C67.5149 55.1661 67.5149 55.121 67.5149 55.076C67.5149 55.0309 67.5149 54.9858 67.5149 54.9858V53.4985H67.0642V54.2196C67.0642 54.445 67.0191 54.6253 66.9741 54.7605C66.929 54.8506 66.8389 54.9408 66.7037 54.9858C66.5234 55.076 66.253 55.121 65.8473 55.1661C65.4417 55.2112 64.9459 55.2112 64.4051 55.2112H63.8192C63.8192 55.2112 63.6389 55.2112 63.3685 55.1661C63.1882 55.1661 62.9628 55.1661 62.7826 55.1661C64.2699 52.8675 65.4417 51.1098 66.253 49.8929C67.2896 48.3605 67.4698 48.045 67.5149 48L67.3797 47.9098V47.7746H61.3403ZM92.7541 48.2253H92.8893C93.5654 48.2253 93.7006 48.3155 93.7457 48.3155C93.7907 48.3605 93.8358 48.4507 93.8358 48.8112C93.8358 48.8563 93.8358 48.9464 93.8358 48.9915C93.8358 49.0817 93.8358 49.1267 93.8358 49.1718C93.8358 49.3971 93.8358 49.6225 93.8358 49.8478C93.8358 49.8929 93.8358 49.938 93.8358 49.938V50.1633C93.8358 50.2535 93.8358 50.3436 93.8358 50.4788V50.569C93.8358 50.614 93.8358 50.7492 93.8358 50.8394C93.8358 50.9746 93.8358 51.0647 93.8358 51.1549C93.8358 51.2901 93.8358 51.4704 93.8358 51.6506C93.8358 51.6957 93.8358 51.6957 93.8358 51.6957C93.8358 51.7408 93.8358 51.7859 93.8358 51.9211C93.8358 52.0112 93.8358 52.1013 93.8358 52.1464C93.8358 52.1915 93.8358 52.2816 93.8358 52.4168C93.8358 52.552 93.8358 52.6873 93.8358 52.7774C93.8358 52.8225 93.8358 52.8675 93.8358 52.9577C93.8358 53.0478 93.8358 53.138 93.8358 53.183C93.8358 53.3633 93.8358 53.5887 93.8358 53.814V54.3548C93.8358 54.9408 93.7457 55.076 93.7006 55.076C93.6555 55.121 93.5203 55.1661 92.9795 55.1661H92.7091V55.6168H97.5316C97.5766 55.6168 97.5766 55.6168 97.6217 55.6168C97.7569 55.6168 97.7569 55.6168 97.8921 55.6168C97.9372 55.6168 97.9823 55.6168 97.9823 55.6168C97.9823 55.6168 98.0273 55.6168 98.0724 55.6168C98.1175 55.6168 98.1625 55.6168 98.2076 55.6168C98.2527 55.6168 98.2977 55.6168 98.3879 55.6168C98.433 55.6168 98.478 55.6168 98.478 55.6168H99.2893L99.3794 53.5436H98.9738V53.6788C98.9738 54.1295 98.9287 54.445 98.8837 54.5802C98.8386 54.7154 98.7935 54.8056 98.7034 54.8957C98.6132 54.9408 98.433 55.0309 98.0724 55.076C97.7569 55.121 97.3062 55.1661 96.8104 55.1661H96.3147C95.6837 55.1661 95.5485 55.121 95.5034 55.121C95.5034 55.121 95.4583 55.076 95.4583 54.8055V54.7605C95.4583 54.5802 95.4583 54.3999 95.4583 54.2196V54.1295C95.4583 54.0394 95.4583 53.9492 95.4583 53.8591C95.4583 53.7239 95.4583 53.6337 95.4583 53.5887C95.4583 53.5436 95.4583 53.4084 95.4583 53.0929C95.4583 52.8225 95.4583 52.552 95.4583 52.3267C95.4583 52.2366 95.4583 52.1915 95.4583 52.1013C95.4583 52.0112 95.4583 51.9661 95.4583 51.9661V51.9211C95.5485 51.9211 95.5935 51.9211 95.7288 51.9211C97.4414 51.9661 97.4414 52.6422 97.4414 52.8675V53.0929H97.847V52.9577C97.847 52.9126 97.847 52.8225 97.847 52.6873C97.847 52.1915 97.847 51.876 97.847 51.6957C97.847 51.5154 97.847 51.1999 97.847 50.7042C97.847 50.614 97.847 50.5239 97.847 50.4338V50.2985H97.4414V50.4338C97.4414 50.9295 97.3513 51.1549 97.2611 51.245C97.171 51.3352 96.9456 51.4253 96.4048 51.4253C96.3597 51.4253 96.3597 51.4253 96.3147 51.4253C96.2696 51.4253 96.2245 51.4253 96.2245 51.4253C96.2245 51.4253 96.0893 51.4253 95.9541 51.4253C95.7738 51.4253 95.6386 51.4253 95.5034 51.4253C95.5034 51.245 95.5034 51.0647 95.5034 50.8845C95.5034 50.8394 95.5034 50.7943 95.5034 50.7943C95.5034 50.7042 95.5034 50.614 95.5034 50.4788V49.6676C95.5034 49.5774 95.5034 49.5324 95.5034 49.3971C95.5034 49.307 95.5034 49.2619 95.5034 49.2619C95.5034 49.2169 95.5034 49.1267 95.5034 49.0366C95.5034 48.9464 95.5034 48.9014 95.5034 48.8563C95.5034 48.8112 95.5034 48.7662 95.5034 48.676C95.5034 48.5859 95.5034 48.5408 95.5034 48.4957V48.3155C95.5034 48.1803 95.5034 48.1352 95.5034 48.1352C95.5034 48.1352 95.5935 48.0901 95.7738 48.0901C97.2611 48.0901 97.7569 48.2253 97.9372 48.3155C98.1625 48.4507 98.2977 48.7662 98.2977 49.2169V49.3521H98.7034V48.7662C98.7034 48.676 98.7034 48.631 98.7034 48.5408C98.7034 48.4957 98.7034 48.4507 98.7034 48.4507C98.7034 48.4507 98.7034 48.3605 98.7034 48.3155C98.7034 48.2253 98.7034 48.1803 98.7034 48.1352V47.7746L98.5231 47.6845H92.7541V48.2253ZM119.391 48.2253H119.526C120.202 48.2253 120.337 48.3155 120.382 48.3155C120.427 48.3605 120.472 48.4507 120.472 48.8112C120.472 48.8563 120.472 48.9464 120.472 48.9915C120.472 49.0817 120.472 49.1267 120.472 49.1718C120.472 49.3971 120.472 49.6225 120.472 49.8478C120.472 49.8929 120.472 49.938 120.472 49.938V50.1633C120.472 50.2535 120.472 50.3436 120.472 50.4788V50.569C120.472 50.614 120.472 50.7492 120.472 50.8845C120.472 51.0197 120.472 51.1098 120.472 51.1999C120.472 51.3352 120.472 51.5154 120.472 51.6957C120.472 51.7408 120.472 51.7408 120.472 51.7408C120.472 51.7859 120.472 51.8309 120.472 51.9661C120.472 52.0563 120.472 52.1464 120.472 52.1915C120.472 52.2366 120.472 52.3267 120.472 52.4619C120.472 52.5971 120.472 52.7323 120.472 52.8225C120.472 52.8675 120.472 52.9126 120.472 53.0027C120.472 53.0929 120.472 53.183 120.472 53.2281C120.472 53.4084 120.472 53.6337 120.472 53.8591V54.3999C120.472 54.9858 120.382 55.121 120.382 55.121C120.337 55.1661 120.202 55.2112 119.661 55.2112H119.391V55.6619H124.213C124.258 55.6619 124.258 55.6619 124.303 55.6619C124.438 55.6619 124.438 55.6619 124.574 55.6619C124.619 55.6619 124.664 55.6619 124.664 55.6619C124.664 55.6619 124.709 55.6619 124.754 55.6619C124.799 55.6619 124.844 55.6619 124.889 55.6619C124.934 55.6619 124.979 55.6619 125.069 55.6619C125.114 55.6619 125.159 55.6619 125.159 55.6619H125.971L126.061 53.5887H125.655V53.7239C125.655 54.1746 125.61 54.4901 125.565 54.6253C125.52 54.7605 125.475 54.8506 125.385 54.8957C125.295 54.9408 125.114 55.0309 124.754 55.076C124.438 55.121 123.988 55.1661 123.492 55.1661H123.041C122.41 55.1661 122.275 55.121 122.23 55.121C122.23 55.121 122.185 55.076 122.185 54.8055V54.7605C122.185 54.5802 122.185 54.3999 122.185 54.2196V54.1295C122.185 54.0394 122.185 53.9492 122.185 53.8591C122.185 53.7239 122.185 53.6337 122.185 53.5887C122.185 53.5436 122.185 53.4084 122.185 53.0929C122.185 52.8225 122.185 52.552 122.185 52.3267C122.185 52.2366 122.185 52.1915 122.185 52.1013C122.185 52.0112 122.185 51.9661 122.185 51.9661V51.9211C122.275 51.9211 122.32 51.9211 122.455 51.9211C124.168 51.9661 124.168 52.6422 124.168 52.8675V53.0929H124.574V52.9577C124.574 52.9126 124.574 52.8225 124.574 52.6873C124.574 52.1915 124.574 51.876 124.574 51.6957C124.574 51.5154 124.574 51.1999 124.574 50.7042C124.574 50.614 124.574 50.5239 124.574 50.4338V50.2985H124.168V50.4338C124.168 50.9295 124.078 51.1549 123.988 51.245C123.898 51.3352 123.672 51.4253 123.131 51.4253C123.086 51.4253 123.086 51.4253 123.041 51.4253C122.996 51.4253 122.951 51.4253 122.951 51.4253C122.951 51.4253 122.816 51.4253 122.681 51.4253C122.5 51.4253 122.365 51.4253 122.23 51.4253C122.23 51.245 122.23 51.0647 122.23 50.8845C122.23 50.8394 122.23 50.7943 122.23 50.7943C122.23 50.7042 122.23 50.614 122.23 50.4788C122.23 50.3887 122.23 50.2985 122.23 50.2985V49.6676C122.23 49.5774 122.23 49.5324 122.23 49.4422C122.23 49.3521 122.23 49.307 122.23 49.307C122.23 49.2619 122.23 49.1718 122.23 49.0817C122.23 48.9915 122.23 48.9464 122.23 48.9014C122.23 48.8563 122.23 48.8112 122.23 48.7211C122.23 48.631 122.23 48.5859 122.23 48.5408V48.3605C122.23 48.2253 122.23 48.1803 122.23 48.1803C122.23 48.1803 122.32 48.1352 122.5 48.1352C123.988 48.1352 124.483 48.2704 124.664 48.3605C124.889 48.4957 125.024 48.8112 125.024 49.2619V49.3971H125.43V48.8112C125.43 48.7211 125.43 48.676 125.43 48.5859V48.4957C125.43 48.4957 125.43 48.4056 125.43 48.3605C125.43 48.2704 125.43 48.2253 125.43 48.1803V47.8197L125.25 47.7296H119.481V48.2253H119.391ZM142.737 48.2253H142.872C143.548 48.2253 143.683 48.3155 143.728 48.3155C143.773 48.3605 143.818 48.4507 143.818 48.8112C143.818 48.8563 143.818 48.9464 143.818 48.9915C143.818 49.0817 143.818 49.1267 143.818 49.1718C143.818 49.3971 143.818 49.6225 143.818 49.8478C143.818 49.8929 143.818 49.938 143.818 49.938V50.1633C143.818 50.2535 143.818 50.3436 143.818 50.4788V50.569C143.818 50.614 143.818 50.7492 143.818 50.8845C143.818 51.0197 143.818 51.1098 143.818 51.1999C143.818 51.3352 143.818 51.5154 143.818 51.6957C143.818 51.7408 143.818 51.7408 143.818 51.7408C143.818 51.7859 143.818 51.8309 143.818 51.9661C143.818 52.0563 143.818 52.1464 143.818 52.1915C143.818 52.2366 143.818 52.3267 143.818 52.4619C143.818 52.5971 143.818 52.7323 143.818 52.8225C143.818 52.8675 143.818 52.9126 143.818 53.0027C143.818 53.0929 143.818 53.183 143.818 53.2281C143.818 53.4084 143.818 53.6337 143.818 53.8591V54.3999C143.818 54.9858 143.728 55.121 143.728 55.121C143.683 55.1661 143.548 55.2112 143.007 55.2112H142.737V55.6619H147.559C147.604 55.6619 147.604 55.6619 147.649 55.6619C147.785 55.6619 147.785 55.6619 147.92 55.6619C147.965 55.6619 148.01 55.6619 148.01 55.6619C148.01 55.6619 148.055 55.6619 148.1 55.6619C148.145 55.6619 148.19 55.6619 148.235 55.6619C148.28 55.6619 148.325 55.6619 148.416 55.6619C148.461 55.6619 148.506 55.6619 148.506 55.6619H149.317L149.407 53.5887H149.002V53.7239C149.002 54.1746 148.956 54.4901 148.911 54.6253C148.866 54.7605 148.821 54.8506 148.731 54.8957C148.641 54.9408 148.461 55.0309 148.1 55.076C147.785 55.121 147.334 55.1661 146.838 55.1661H146.342C145.711 55.1661 145.576 55.121 145.531 55.121C145.531 55.121 145.486 55.076 145.486 54.8055V54.7605C145.486 54.5802 145.486 54.3999 145.486 54.2196V54.1295C145.486 54.0394 145.486 53.9492 145.486 53.8591C145.486 53.7239 145.486 53.6337 145.486 53.5887C145.486 53.5436 145.486 53.4084 145.486 53.0929C145.486 52.8225 145.486 52.552 145.486 52.3267C145.486 52.2366 145.486 52.1915 145.486 52.1013C145.486 52.0112 145.486 51.9661 145.486 51.9661V51.9211C145.576 51.9211 145.621 51.9211 145.756 51.9211C147.469 51.9661 147.469 52.6422 147.469 52.8675V53.0929H147.875V52.9577C147.875 52.9126 147.875 52.8225 147.875 52.6873C147.875 52.1915 147.875 51.876 147.875 51.6957C147.875 51.5154 147.875 51.1999 147.875 50.7042C147.875 50.614 147.875 50.5239 147.875 50.4338V50.2985H147.469V50.4338C147.469 50.9295 147.379 51.1549 147.289 51.245C147.199 51.3352 146.973 51.4253 146.433 51.4253C146.387 51.4253 146.387 51.4253 146.342 51.4253C146.297 51.4253 146.252 51.4253 146.252 51.4253C146.252 51.4253 146.117 51.4253 145.982 51.4253C145.802 51.4253 145.666 51.4253 145.531 51.4253C145.531 51.245 145.531 51.0647 145.531 50.8845C145.531 50.8394 145.531 50.7943 145.531 50.7943C145.531 50.7042 145.531 50.614 145.531 50.4788C145.531 50.3887 145.531 50.2985 145.531 50.2985V49.6676C145.531 49.5774 145.531 49.5324 145.531 49.4422C145.531 49.3521 145.531 49.307 145.531 49.307C145.531 49.2619 145.531 49.1718 145.531 49.0817C145.531 48.9915 145.531 48.9464 145.531 48.9014C145.531 48.8563 145.531 48.8112 145.531 48.7211C145.531 48.631 145.531 48.5859 145.531 48.5408V48.3605C145.531 48.2253 145.531 48.1803 145.531 48.1803C145.531 48.1803 145.621 48.1352 145.802 48.1352C147.289 48.1352 147.785 48.2704 147.965 48.3605C148.19 48.4957 148.325 48.8112 148.325 49.2619V49.3971H148.731V48.8112C148.731 48.7211 148.731 48.676 148.731 48.5859V48.4957C148.731 48.4957 148.731 48.4056 148.731 48.3605C148.731 48.2704 148.731 48.2253 148.731 48.1803V47.8197L148.551 47.7296H142.782V48.2253H142.737ZM3.06476 51.7859C2.97462 51.7408 2.88448 51.6957 2.79434 51.6506C2.79434 51.5154 2.79434 51.3802 2.79434 51.1999C2.79434 51.0197 2.79434 50.8845 2.79434 50.7943C2.79434 50.7943 2.79434 50.7042 2.79434 50.6591C2.79434 50.569 2.79434 50.5239 2.79434 50.4788C2.79434 50.4338 2.79434 50.3887 2.79434 50.2985C2.79434 50.2084 2.79434 50.1633 2.79434 50.0732V49.5774C2.79434 49.5324 2.79434 49.4422 2.79434 49.307C2.79434 49.1718 2.79434 49.0366 2.79434 48.9464C2.79434 48.9014 2.79434 48.8112 2.79434 48.7211C2.79434 48.631 2.79434 48.5859 2.79434 48.5408C2.79434 48.2253 2.83941 48.1803 2.83941 48.1803C2.83941 48.1803 2.92955 48.1352 3.29011 48.1352C3.74081 48.1352 4.10137 48.2704 4.37179 48.631C4.64221 48.9464 4.77742 49.3971 4.77742 49.9831C4.77742 50.5239 4.64221 50.9746 4.37179 51.2901C4.10137 51.6056 3.83095 51.7859 3.47039 51.7859C3.29011 51.8309 3.1549 51.8309 3.06476 51.7859ZM0 48.2253H0.36056C0.856331 48.2253 0.991541 48.3155 0.991541 48.3605C1.03661 48.4056 1.12675 48.5859 1.12675 49.3971C1.12675 49.4873 1.12675 49.5774 1.12675 49.6676C1.12675 49.7577 1.12675 49.8478 1.12675 49.8478C1.12675 49.9831 1.12675 50.0732 1.12675 50.2084V50.2535C1.12675 50.2985 1.12675 50.3887 1.12675 50.5239C1.12675 50.7042 1.12675 50.8394 1.12675 50.9746C1.12675 51.0197 1.12675 51.1098 1.12675 51.1999C1.12675 51.2901 1.12675 51.3352 1.12675 51.3352C1.12675 51.5154 1.12675 51.7408 1.12675 51.9661V52.1013C1.12675 52.1464 1.12675 52.2366 1.12675 52.4168C1.12675 52.552 1.12675 52.6873 1.12675 52.7323V54.4901C1.12675 54.9408 1.03661 55.076 1.03661 55.076C0.991541 55.121 0.856331 55.1661 0.36056 55.1661H0V55.6168H0.13521C0.27042 55.6168 0.4507 55.6168 0.676051 55.6168C1.30703 55.6168 1.71266 55.6168 1.93801 55.6168C2.29857 55.6168 2.61406 55.6168 2.92955 55.6168C3.24504 55.6168 3.51546 55.6168 3.83095 55.6168H3.96616V55.1661H3.47039C3.01969 55.1661 2.88448 55.076 2.88448 55.076C2.83941 55.0309 2.79434 54.8957 2.79434 54.445V54.1295C2.79434 54.1295 2.79434 54.0844 2.79434 53.9943C2.79434 53.9492 2.79434 53.8591 2.79434 53.814C2.79434 53.814 2.79434 53.7689 2.79434 53.6788C2.79434 53.5887 2.79434 53.5436 2.79434 53.4985C2.79434 53.4534 2.79434 53.4534 2.79434 53.3633C2.79434 53.3182 2.79434 53.2732 2.79434 53.2281C2.79434 53.183 2.79434 53.183 2.79434 53.0929C2.79434 53.0478 2.79434 53.0027 2.79434 52.9577C2.79434 52.9126 2.79434 52.8225 2.79434 52.7323C2.79434 52.6422 2.79434 52.6422 2.79434 52.5971C2.79434 52.507 2.79434 52.4168 2.79434 52.2816V52.2366C2.79434 52.1915 2.79434 52.1013 2.79434 52.0563C2.92955 52.1013 3.01969 52.1013 3.1549 52.1464C3.33518 52.1915 3.51546 52.1915 3.69574 52.1915C4.507 52.1915 5.13798 51.9661 5.63375 51.5605C6.12952 51.1098 6.35488 50.569 6.35488 49.8478C6.35488 49.1718 6.12952 48.631 5.63375 48.2253C5.13798 47.8197 4.507 47.6394 3.69574 47.6394C3.6056 47.6394 3.38025 47.6394 2.92955 47.6394C2.52392 47.6394 2.16336 47.6394 1.84787 47.6394C1.57745 47.6394 1.30703 47.6394 1.03661 47.6394C0.766191 47.6394 0.49577 47.6394 0.18028 47.5943H0V48.2253H0ZM41.8701 51.7859C41.7799 51.7408 41.6898 51.6957 41.5996 51.6506C41.5996 51.5154 41.5996 51.3802 41.5996 51.1999C41.5996 51.0197 41.5996 50.8845 41.5996 50.7943C41.5996 50.7943 41.5996 50.7042 41.5996 50.6591C41.5996 50.569 41.5996 50.5239 41.5996 50.4788C41.5996 50.4338 41.5996 50.3887 41.5996 50.2985C41.5996 50.2084 41.5996 50.1633 41.5996 50.0732V49.5774C41.5996 49.5324 41.5996 49.4422 41.5996 49.307C41.5996 49.1718 41.5996 49.0366 41.5996 48.9464C41.5996 48.9014 41.5996 48.8112 41.5996 48.7211C41.5996 48.631 41.5996 48.5859 41.5996 48.5408C41.5996 48.2253 41.6447 48.1803 41.6447 48.1803C41.6447 48.1803 41.7349 48.1352 42.0954 48.1352C42.5461 48.1352 42.9067 48.2704 43.1771 48.631C43.4475 48.9464 43.5827 49.3971 43.5827 49.9831C43.5827 50.5239 43.4475 50.9746 43.1771 51.2901C42.9517 51.6056 42.6363 51.7859 42.2757 51.7859C42.1405 51.8309 42.0053 51.8309 41.8701 51.7859ZM38.8053 48.2253H39.1659C39.6616 48.2253 39.7968 48.3155 39.7968 48.3605C39.8419 48.4056 39.932 48.5859 39.932 49.3971C39.932 49.4873 39.932 49.5774 39.932 49.6676C39.932 49.8028 39.932 49.8478 39.932 49.8478C39.932 49.9831 39.932 50.0732 39.932 50.2084V50.2535C39.932 50.2985 39.932 50.3887 39.932 50.5239C39.932 50.7042 39.932 50.8394 39.932 50.9746C39.932 51.0197 39.932 51.1098 39.932 51.1999C39.932 51.2901 39.932 51.3352 39.932 51.3352C39.932 51.5154 39.932 51.7408 39.932 51.9661V52.1013C39.932 52.1464 39.932 52.2366 39.932 52.4168C39.932 52.552 39.932 52.6873 39.932 52.7323V54.4901C39.932 54.9408 39.8419 55.076 39.8419 55.076C39.7968 55.121 39.6616 55.1661 39.1659 55.1661H38.8504V55.6168H38.9856C39.1208 55.6168 39.3011 55.6168 39.5264 55.6168C40.1574 55.6168 40.563 55.6168 40.7884 55.6168C41.1489 55.6168 41.4644 55.6168 41.7799 55.6168C42.0954 55.6168 42.3658 55.6168 42.6813 55.6168H42.8165V55.1661H42.3208C41.8701 55.1661 41.7349 55.076 41.7349 55.076C41.6898 55.0309 41.6447 54.8957 41.6447 54.445V54.1295C41.6447 54.1295 41.6447 54.0844 41.6447 54.0394V53.9943C41.6447 53.9492 41.6447 53.8591 41.6447 53.814C41.6447 53.814 41.6447 53.7689 41.6447 53.6788C41.6447 53.5887 41.6447 53.5436 41.6447 53.4985C41.6447 53.4534 41.6447 53.4534 41.6447 53.3633C41.6447 53.3182 41.6447 53.2732 41.6447 53.2281C41.6447 53.183 41.6447 53.183 41.6447 53.0929C41.6447 53.0478 41.6447 53.0027 41.6447 52.9577C41.6447 52.9126 41.6447 52.8225 41.6447 52.7323C41.6447 52.6422 41.6447 52.6422 41.6447 52.5971C41.6447 52.507 41.6447 52.4168 41.6447 52.2816V52.2366C41.6447 52.1915 41.6447 52.1013 41.6447 52.0563C41.7799 52.1013 41.8701 52.1013 42.0053 52.1464C42.1856 52.1915 42.3658 52.1915 42.5461 52.1915C43.3574 52.1915 43.9884 51.9661 44.4841 51.5605C44.9799 51.1098 45.2052 50.569 45.2052 49.8478C45.2052 49.1718 44.9799 48.631 44.4841 48.2253C43.9884 47.8197 43.3574 47.6394 42.5461 47.6394C42.456 47.6394 42.2306 47.6394 41.7799 47.6394C41.3743 47.6394 41.0137 47.6394 40.6982 47.6394C40.4278 47.6394 40.1574 47.6394 39.887 47.6394C39.6166 47.6394 39.3461 47.6394 39.0306 47.5943H38.8504V48.2253H38.8053ZM27.8533 47.7296C27.7181 47.7296 27.5829 47.7296 27.4026 47.7296C27.2674 47.7296 27.042 47.7296 26.7265 47.7296H25.5547C25.2843 47.7296 25.0589 47.7296 24.8787 47.7296C24.7434 47.7296 24.5632 47.7296 24.428 47.7296H24.2477V48.2253H24.6082C25.0139 48.2253 25.104 48.3155 25.1491 48.3155C25.1491 48.3155 25.2392 48.4507 25.2392 49.0817V49.1718C25.2392 49.3521 25.2392 49.5774 25.2392 49.7577V50.1633C25.2392 50.2084 25.2392 50.3436 25.2392 50.4788C25.2392 50.614 25.2392 50.7492 25.2392 50.8394C25.2392 51.1098 25.2392 51.3352 25.2392 51.6056C25.2392 51.6506 25.2392 51.6957 25.2392 51.6957C25.2392 51.7859 25.2392 51.9211 25.2392 52.0563C25.2392 52.1915 25.2392 52.2816 25.2392 52.3267C25.2392 52.4619 25.2392 52.5971 25.2392 52.7774V52.8675C25.2392 53.0478 25.2392 53.2732 25.2392 53.4534V53.9943C25.2392 54.8957 25.1491 55.076 25.1491 55.121C25.104 55.1661 25.0139 55.2562 24.6082 55.2562C24.6082 55.2562 24.5632 55.2562 24.5181 55.2562C24.473 55.2562 24.428 55.2562 24.3829 55.2562H24.2477V55.707H24.3829C24.6533 55.707 24.9237 55.707 25.1941 55.707C25.4646 55.707 25.735 55.707 26.0956 55.707C26.411 55.707 26.7265 55.707 26.997 55.707C27.2674 55.707 27.5378 55.707 27.8082 55.707H27.9434V55.2562H27.8082C27.7631 55.2562 27.7181 55.2562 27.673 55.2562C27.6279 55.2562 27.5829 55.2562 27.5829 55.2562C27.2223 55.2562 27.0871 55.1661 27.0871 55.121C27.0871 55.121 26.997 54.9408 26.997 54.2196V52.7774C26.997 52.7323 26.997 52.6422 26.997 52.507C26.997 52.3718 26.997 52.2366 26.997 52.1013C26.997 52.1013 26.997 52.0563 26.997 52.0112C26.997 51.7859 26.997 51.5605 26.997 51.3352C26.997 51.1999 26.997 51.0647 26.997 50.8845V50.569C26.997 50.3887 26.997 50.1633 26.997 49.9831V49.7126C26.997 49.5324 26.997 49.3971 26.997 49.2169C26.997 49.1718 26.997 49.1267 26.997 49.1267V48.9915C26.997 48.4056 27.0871 48.3155 27.0871 48.3155C27.1322 48.2704 27.2223 48.2253 27.6279 48.2253H27.9885V47.7296H27.8533ZM109.7 47.7296C109.565 47.7296 109.43 47.7296 109.25 47.7296C109.115 47.7296 108.889 47.7296 108.574 47.7296H107.402C107.131 47.7296 106.906 47.7296 106.726 47.7296C106.591 47.7296 106.41 47.7296 106.275 47.7296H106.095V48.2253H106.455C106.861 48.2253 106.951 48.3155 106.996 48.3155C106.996 48.3155 107.086 48.4507 107.086 49.0817V49.1718C107.086 49.3521 107.086 49.5774 107.086 49.7577V50.1633C107.086 50.2084 107.086 50.3436 107.086 50.4788C107.086 50.614 107.086 50.7492 107.086 50.8394C107.086 51.1098 107.086 51.3352 107.086 51.6056C107.086 51.6506 107.086 51.6957 107.086 51.6957C107.086 51.7859 107.086 51.9211 107.086 52.0563C107.086 52.1915 107.086 52.2816 107.086 52.3267C107.086 52.4619 107.086 52.5971 107.086 52.7774V52.8675C107.086 53.0478 107.086 53.2732 107.086 53.4534V53.9943C107.086 54.8957 106.996 55.076 106.996 55.121C106.951 55.1661 106.861 55.2562 106.455 55.2562C106.455 55.2562 106.41 55.2562 106.365 55.2562C106.32 55.2562 106.275 55.2562 106.23 55.2562H106.095V55.707H106.23C106.5 55.707 106.771 55.707 107.041 55.707C107.312 55.707 107.582 55.707 107.943 55.707C108.258 55.707 108.574 55.707 108.844 55.707C109.115 55.707 109.385 55.707 109.655 55.707H109.791V55.2562H109.655C109.61 55.2562 109.565 55.2562 109.52 55.2562C109.475 55.2562 109.43 55.2562 109.43 55.2562C109.069 55.2562 108.934 55.1661 108.934 55.121C108.934 55.121 108.844 54.9408 108.844 54.2196V52.7774C108.844 52.7323 108.844 52.6422 108.844 52.507C108.844 52.3718 108.844 52.2366 108.844 52.1013C108.844 52.1013 108.844 52.0563 108.844 52.0112C108.844 51.7859 108.844 51.5605 108.844 51.3352C108.844 51.1999 108.844 51.0647 108.844 50.8845V50.569C108.844 50.3887 108.844 50.1633 108.844 49.9831V49.7126C108.844 49.5324 108.844 49.3971 108.844 49.2169C108.844 49.1718 108.844 49.1267 108.844 49.1267V48.9915C108.844 48.4056 108.934 48.3155 108.934 48.3155C108.979 48.2704 109.069 48.2253 109.475 48.2253H109.836V47.7296H109.7ZM18.1182 54.7605V54.6253C18.1182 54.5351 18.1182 54.445 18.1182 54.3548C18.1182 54.2647 18.1182 54.2196 18.1182 54.1746C18.1182 54.1295 18.1182 54.0394 18.1182 53.9492C18.1182 53.8591 18.1182 53.814 18.1182 53.7689C18.1182 53.7689 18.1182 53.6788 18.1182 53.6337C18.1182 53.5436 18.1182 53.4534 18.1182 53.4084C18.1182 53.4084 18.1182 53.3182 18.1182 53.2281C18.1182 53.138 18.1182 53.0478 18.1182 53.0027C18.1182 52.9577 18.1182 52.9126 18.1182 52.8225C18.1182 52.7323 18.1182 52.6422 18.1182 52.5971C18.1182 52.5971 18.1182 52.552 18.1182 52.4619C18.1182 52.2366 18.1182 52.0112 18.1182 51.8309C18.1182 51.8309 18.1182 51.7859 18.1182 51.6957C18.1182 51.6056 18.1182 51.5605 18.1182 51.4704V51.1098C18.1182 51.0197 18.1182 50.8845 18.1182 50.6591C18.1182 50.4788 18.1182 50.3436 18.1182 50.2535C18.1182 50.2535 18.1182 50.2084 18.1182 50.1633C18.1182 50.1183 18.1182 50.0281 18.1182 49.9831V49.2619C18.1182 49.2619 18.1182 49.1718 18.1182 49.1267C18.1182 49.0366 18.1182 48.9915 18.1182 48.9014C18.1182 48.8563 18.1182 48.7662 18.1182 48.676C18.1182 48.5408 18.1182 48.4507 18.1182 48.4056C18.1182 48.3155 18.1182 48.2704 18.1182 48.2704C18.1632 48.2704 18.2534 48.2253 18.5689 48.2253C19.335 48.2253 19.921 48.3605 20.4167 48.631C20.8674 48.9014 21.2731 49.307 21.5885 49.8478C21.6787 50.0732 21.8139 50.3436 21.859 50.6591C21.9491 50.9746 21.9942 51.245 21.9942 51.5154C21.9942 52.5971 21.6787 53.4985 21.0026 54.1746C20.3717 54.8506 19.5153 55.2112 18.4787 55.2112C18.2083 55.2112 18.1632 55.1661 18.1632 55.1661C18.1632 55.1661 18.1182 55.076 18.1182 54.7605ZM15.5041 48.2253H15.9548C16.3604 48.2253 16.4506 48.2704 16.4506 48.2704C16.4506 48.2704 16.4956 48.3155 16.4956 48.631C16.4956 48.676 16.4956 48.676 16.4956 48.7211C16.4956 48.7662 16.4956 48.8112 16.4956 48.8563V49.1718C16.4956 49.2619 16.4956 49.3971 16.4956 49.4873V49.8929C16.4956 49.9831 16.4956 50.0732 16.4956 50.1633V50.2985C16.4956 50.3436 16.4956 50.4788 16.4956 50.569C16.4956 50.7042 16.4956 50.7943 16.4956 50.8845C16.4956 51.0197 16.4956 51.1999 16.4956 51.3802C16.4956 51.4253 16.4956 51.4253 16.4956 51.4704C16.4956 51.5154 16.4956 51.5605 16.4956 51.6957C16.4956 51.7859 16.4956 51.876 16.4956 51.9661C16.4956 52.0112 16.4956 52.1013 16.4956 52.2366C16.4956 52.3718 16.4956 52.507 16.4956 52.5971C16.4956 52.6422 16.4956 52.6873 16.4956 52.7774C16.4956 52.8675 16.4956 52.9577 16.4956 53.0027C16.4956 53.183 16.4956 53.4084 16.4956 53.6337V54.3548C16.4956 54.9858 16.4055 55.076 16.4055 55.121C16.3604 55.1661 16.2703 55.2112 15.8196 55.2112C15.7745 55.2112 15.7294 55.2112 15.6844 55.2112C15.5942 55.2112 15.5492 55.2112 15.5041 55.2112H15.3238V55.6619H15.459C15.8196 55.6619 16.1351 55.6619 16.3604 55.6619C16.6308 55.6619 16.8111 55.6619 16.9914 55.6619C17.2618 55.6619 17.6224 55.6619 18.1182 55.707C18.6139 55.707 18.9745 55.752 19.2449 55.752C20.597 55.752 21.6787 55.3915 22.4899 54.6253C23.3012 53.8591 23.7068 52.8675 23.7068 51.6056C23.7068 50.4788 23.3012 49.5324 22.4899 48.8563C21.6787 48.1803 20.597 47.8197 19.2449 47.8197C19.1097 47.8197 18.8393 47.8197 18.4336 47.8197C18.028 47.8197 17.6675 47.8197 17.352 47.8197H16.8111C16.4956 47.8197 16.2703 47.8197 16.09 47.8197C15.9097 47.8197 15.7745 47.8197 15.6393 47.8197H15.459V48.2253H15.5041ZM113.351 54.7605V54.6253C113.351 54.5351 113.351 54.445 113.351 54.3548C113.351 54.2647 113.351 54.2196 113.351 54.1746C113.351 54.1295 113.351 54.0394 113.351 53.9492C113.351 53.8591 113.351 53.814 113.351 53.7689C113.351 53.7689 113.351 53.6788 113.351 53.6337C113.351 53.5436 113.351 53.4534 113.351 53.4084C113.351 53.4084 113.351 53.3182 113.351 53.2281C113.351 53.138 113.351 53.0478 113.351 53.0027C113.351 52.9577 113.351 52.9126 113.351 52.8225C113.351 52.7323 113.351 52.6422 113.351 52.5971C113.351 52.5971 113.351 52.552 113.351 52.4619C113.351 52.2366 113.351 52.0112 113.351 51.8309C113.351 51.8309 113.351 51.7859 113.351 51.6957C113.351 51.6056 113.351 51.5605 113.351 51.4704V51.1098C113.351 51.0197 113.351 50.8845 113.351 50.6591C113.351 50.4788 113.351 50.3436 113.351 50.2535C113.351 50.2535 113.351 50.2084 113.351 50.1633C113.351 50.1183 113.351 50.0281 113.351 49.9831V49.2619C113.351 49.2619 113.351 49.1718 113.351 49.1267C113.351 49.0366 113.351 48.9915 113.351 48.9014C113.351 48.8563 113.351 48.7662 113.351 48.676C113.351 48.5408 113.351 48.4507 113.351 48.4056C113.351 48.3155 113.351 48.2704 113.351 48.2704C113.396 48.2704 113.486 48.2253 113.802 48.2253C114.568 48.2253 115.154 48.3605 115.65 48.631C116.1 48.9014 116.506 49.307 116.822 49.8478C116.912 50.0732 117.047 50.3436 117.092 50.6591C117.182 50.9746 117.227 51.2901 117.227 51.5154C117.227 52.5971 116.912 53.4985 116.236 54.1746C115.605 54.8506 114.748 55.2112 113.712 55.2112C113.441 55.2112 113.396 55.1661 113.396 55.1661C113.396 55.1661 113.351 55.076 113.351 54.7605ZM110.737 48.2253H111.188C111.593 48.2253 111.684 48.2704 111.684 48.2704C111.684 48.2704 111.729 48.3155 111.729 48.631C111.729 48.676 111.729 48.676 111.729 48.7211C111.729 48.7662 111.729 48.8112 111.729 48.8563V49.1718C111.729 49.2619 111.729 49.3971 111.729 49.4873V49.8929C111.729 49.9831 111.729 50.0732 111.729 50.1633V50.2985C111.729 50.3436 111.729 50.4788 111.729 50.569C111.729 50.7042 111.729 50.7943 111.729 50.8845C111.729 51.0197 111.729 51.1999 111.729 51.3802C111.729 51.4253 111.729 51.4253 111.729 51.4253C111.729 51.4704 111.729 51.5154 111.729 51.6506C111.729 51.7408 111.729 51.8309 111.729 51.9211C111.729 51.9661 111.729 52.0563 111.729 52.1915C111.729 52.3267 111.729 52.4619 111.729 52.552C111.729 52.5971 111.729 52.6422 111.729 52.7323C111.729 52.8225 111.729 52.9126 111.729 52.9577C111.729 53.138 111.729 53.3633 111.729 53.5887V54.3098C111.729 54.9408 111.638 55.0309 111.638 55.076C111.593 55.121 111.503 55.1661 111.053 55.1661C111.007 55.1661 110.962 55.1661 110.917 55.1661C110.827 55.1661 110.782 55.1661 110.737 55.1661H110.557V55.6168H110.692C111.053 55.6168 111.368 55.6168 111.593 55.6168C111.864 55.6168 112.044 55.6168 112.224 55.6168C112.495 55.6168 112.855 55.6168 113.351 55.6619C113.847 55.6619 114.207 55.707 114.478 55.707C115.83 55.707 116.912 55.3464 117.723 54.5802C118.534 53.814 118.94 52.8225 118.94 51.5605C118.94 50.4338 118.534 49.4873 117.723 48.8112C116.912 48.1352 115.83 47.7746 114.478 47.7746C114.343 47.7746 114.072 47.7746 113.667 47.7746C113.261 47.7746 112.9 47.7746 112.585 47.7746H112.044C111.729 47.7746 111.503 47.7746 111.323 47.7746C111.143 47.7746 111.007 47.7746 110.872 47.7746H110.692V48.2253H110.737ZM126.557 48.2253H126.917C127.233 48.2253 127.368 48.2704 127.413 48.3155C127.503 48.3605 127.548 48.4507 127.638 48.5408V49.2169C127.638 49.3521 127.638 49.5324 127.638 49.6676V49.7577C127.638 49.8478 127.638 49.938 127.638 49.938C127.638 50.0281 127.638 50.0732 127.638 50.1633C127.638 50.2535 127.638 50.2985 127.638 50.2985C127.638 50.3887 127.638 50.5239 127.638 50.614C127.638 50.6591 127.638 50.6591 127.638 50.7042C127.638 50.8394 127.638 50.9746 127.638 51.1549C127.638 51.3352 127.638 51.4253 127.638 51.4704V52.1013C127.638 52.2816 127.638 52.4168 127.638 52.5971V52.6422C127.638 52.6873 127.638 52.7323 127.638 52.7774C127.638 52.8225 127.638 52.8675 127.638 52.8675C127.638 52.9126 127.638 52.9577 127.638 53.0478C127.638 53.0929 127.638 53.138 127.638 53.183C127.638 53.2732 127.638 53.4084 127.638 53.5887C127.638 53.7689 127.638 53.9042 127.638 53.9943C127.638 54.0394 127.638 54.1295 127.638 54.2196C127.638 54.3549 127.638 54.445 127.638 54.5351C127.638 54.9858 127.548 55.121 127.503 55.1661C127.458 55.2112 127.323 55.3013 126.782 55.3013H126.512V55.752H126.692C126.962 55.752 127.188 55.752 127.413 55.752C127.638 55.752 127.774 55.752 127.909 55.752C128.044 55.752 128.224 55.752 128.45 55.752C128.63 55.752 128.855 55.752 129.126 55.752H129.306V55.3013H128.99C128.495 55.3013 128.359 55.2112 128.314 55.2112C128.224 55.1661 128.179 54.9858 128.179 54.7605C128.179 54.6703 128.179 54.5802 128.179 54.445C128.179 54.3098 128.179 54.1746 128.179 54.1295C128.179 54.0394 128.179 53.9492 128.179 53.8591C128.179 53.7689 128.179 53.6788 128.179 53.6788V53.183C128.179 53.0929 128.179 53.0027 128.179 52.8675C128.179 52.7323 128.179 52.6422 128.179 52.5971C128.179 52.4168 128.179 52.2816 128.179 52.1013V52.0112C128.179 51.9211 128.179 51.7859 128.179 51.6506C128.179 51.5154 128.179 51.3802 128.179 51.3352C128.179 51.2901 128.179 51.1999 128.179 51.1098C128.179 51.0197 128.179 50.9295 128.179 50.8845C128.179 50.8394 128.179 50.7492 128.179 50.7042C128.179 50.6591 128.179 50.614 128.179 50.569C128.179 50.3436 128.179 50.1183 128.179 49.8929V49.1718C129.441 50.7492 131.019 52.7774 132.912 55.2112C133.092 55.4365 133.227 55.6168 133.317 55.752L133.362 55.7971H133.678V55.6619C133.678 55.6168 133.678 55.5717 133.678 55.4816C133.678 55.3915 133.678 55.3915 133.678 55.3464C133.678 55.2563 133.678 55.1661 133.678 55.076V54.9408C133.678 54.6703 133.678 54.3999 133.678 54.1295C133.678 54.0844 133.678 54.0394 133.678 54.0394C133.678 53.9492 133.678 53.9042 133.678 53.814C133.678 53.7239 133.678 53.6788 133.678 53.6337C133.678 53.4534 133.678 53.2732 133.678 53.0929V53.0478C133.678 53.0478 133.678 53.0027 133.678 52.9126C133.678 52.8675 133.678 52.7774 133.678 52.7323C133.678 52.6873 133.678 52.6422 133.678 52.5971C133.678 52.552 133.678 52.507 133.678 52.4619V52.0563C133.678 51.9661 133.678 51.876 133.678 51.7408C133.678 51.6056 133.678 51.5605 133.678 51.5154V50.6591C133.678 50.614 133.678 50.569 133.678 50.4338C133.678 50.3436 133.678 50.2535 133.678 50.1633V49.8028C133.678 49.7126 133.678 49.6225 133.678 49.4873C133.678 49.3521 133.678 49.307 133.678 49.2619C133.678 49.1718 133.678 49.0366 133.678 48.9464C133.678 48.8112 133.678 48.7662 133.678 48.7662C133.678 48.4957 133.768 48.1803 134.624 48.1803H134.759V47.6845H134.579C134.489 47.6845 134.399 47.6845 134.309 47.6845C134.219 47.6845 134.083 47.6845 133.903 47.6845H132.866C132.686 47.6845 132.596 47.6845 132.506 47.6845C132.416 47.6845 132.326 47.6845 132.235 47.6845H132.055V48.1803H132.19C132.912 48.1803 133.047 48.2704 133.047 48.2704C133.047 48.2704 133.137 48.3605 133.137 48.9014V50.1183C133.137 50.2535 133.137 50.4788 133.137 50.7042C133.137 50.9295 133.137 51.1098 133.137 51.1549V51.3352V51.3802C133.137 51.4704 133.137 51.5605 133.137 51.6506C133.137 51.6957 133.137 51.7408 133.137 51.8309C133.137 51.9211 133.137 52.0112 133.137 52.0112C133.137 52.1464 133.137 52.3267 133.137 52.507C133.137 52.6422 133.137 52.7323 133.137 52.7774C132.686 52.1915 132.235 51.6056 131.785 51.0647C131.154 50.2535 131.019 50.1183 131.019 50.0732C130.974 49.9831 130.838 49.8028 130.343 49.2169C129.892 48.676 129.531 48.1803 129.126 47.6845L129.081 47.6394H128.99C128.855 47.6394 128.72 47.6394 128.63 47.6394C128.495 47.6394 128.314 47.6394 128.134 47.6394H127.188C127.052 47.6394 126.917 47.6394 126.827 47.6394C126.737 47.6394 126.692 47.6394 126.602 47.6394H126.421V48.2253H126.557ZM32.7659 47.7296C32.5856 47.7296 32.4054 47.7296 32.2251 47.7296C32.0448 47.7296 31.7293 47.7296 31.3687 47.7296H30.242C29.9716 47.7296 29.7913 47.7296 29.611 47.7296C29.4307 47.7296 29.2955 47.7296 29.1152 47.7296H28.935V48.2253H29.0702C29.1152 48.2253 29.1603 48.2253 29.2054 48.2253C29.2505 48.2253 29.2955 48.2253 29.2955 48.2253C29.7462 48.2253 29.8364 48.3155 29.8364 48.3155C29.8364 48.3155 29.9265 48.4507 29.9265 49.2169V49.8478C29.9265 49.8478 29.9265 49.938 29.9265 50.0732C29.9265 50.2084 29.9265 50.2985 29.9265 50.4338C29.9265 50.5239 29.9265 50.6591 29.9265 50.7492C29.9265 50.8845 29.9265 50.9295 29.9265 50.9746C29.9265 51.0647 29.9265 51.1999 29.9265 51.3802V51.8309C29.9265 51.9661 29.9265 52.0563 29.9265 52.1915C29.9265 52.3267 29.9265 52.4168 29.9265 52.4168C29.9265 52.4619 29.9265 52.552 29.9265 52.6422C29.9265 52.7323 29.9265 52.8225 29.9265 52.8675C29.9265 52.8675 29.9265 52.9126 29.9265 52.9577C29.9265 53.0027 29.9265 53.0478 29.9265 53.0478C29.9265 53.138 29.9265 53.2732 29.9265 53.3633V53.4084C29.9265 53.4985 29.9265 53.5887 29.9265 53.6788C29.9265 53.7689 29.9265 53.8591 29.9265 53.8591C29.9265 53.9492 29.9265 53.9943 29.9265 54.0844V54.3098C29.9265 54.9408 29.8364 55.076 29.8364 55.076C29.8364 55.076 29.7462 55.1661 29.1603 55.1661H28.6645V55.6168H32.2251C32.2701 55.6168 32.3152 55.6168 32.3603 55.6168C32.4054 55.6168 32.4054 55.6168 32.4504 55.6168C32.4955 55.6168 32.5406 55.6168 32.6307 55.6168C32.7208 55.6168 32.7659 55.6168 32.811 55.6168C32.8561 55.6168 32.9011 55.6168 32.9913 55.6168C33.2617 55.6168 33.442 55.6168 33.7124 55.6168H35.2898V55.4816C35.2898 55.2112 35.2898 54.9858 35.3349 54.7605C35.3349 54.7154 35.3349 54.7154 35.3349 54.6703V54.5351C35.3349 54.445 35.3349 54.3098 35.3349 54.1295C35.3349 53.9492 35.38 53.814 35.38 53.6788V53.4985H34.9293V53.6337C34.8842 54.1746 34.8391 54.445 34.7941 54.5351C34.749 54.6703 34.6589 54.7605 34.4786 54.8957C34.4335 54.9408 34.2983 54.9858 33.8025 55.0309C33.442 55.076 32.9913 55.121 32.4955 55.121C31.8194 55.121 31.6842 55.076 31.6392 55.076C31.5941 55.076 31.5941 54.9858 31.5941 54.8957C31.5941 54.8056 31.5941 54.6703 31.5941 54.5351C31.5941 54.3999 31.5941 54.3098 31.5941 54.2647C31.5941 54.1746 31.5941 54.0394 31.5941 53.9492C31.5941 53.8591 31.5941 53.7689 31.5941 53.7689C31.5941 53.7239 31.5941 53.6788 31.5941 53.5887C31.5941 53.4985 31.5941 53.4534 31.5941 53.4084C31.5941 53.3633 31.5941 53.3182 31.5941 53.2281C31.5941 53.138 31.5941 53.0929 31.5941 53.0478C31.5941 52.9577 31.5941 52.8225 31.5941 52.7323C31.5941 52.5971 31.5941 52.507 31.5941 52.4619C31.5941 52.2816 31.5941 52.0563 31.5941 51.876C31.5941 51.8309 31.5941 51.7859 31.5941 51.7859V51.3352C31.5941 51.1999 31.5941 51.1098 31.5941 50.9746C31.5941 50.8394 31.5941 50.7492 31.5941 50.7492C31.5941 50.6591 31.5941 50.5239 31.5941 50.3436C31.5941 50.2084 31.5941 50.0732 31.5941 50.0281V49.8929C31.5941 49.8478 31.5941 49.7577 31.5941 49.5774C31.5941 49.4422 31.5941 49.307 31.5941 49.2169C31.5941 49.1267 31.5941 49.0366 31.5941 48.9464V48.8112C31.5941 48.4507 31.6392 48.3605 31.6842 48.3155C31.6842 48.3155 31.7744 48.2253 32.18 48.2253C32.3603 48.2253 32.4504 48.2253 32.5406 48.2253C32.6307 48.2253 32.6758 48.2253 32.7659 48.2253H32.9011V47.7296H32.7659ZM49.2615 47.7296C49.0813 47.7296 48.901 47.7296 48.7207 47.7296C48.5404 47.7296 48.2249 47.7296 47.8644 47.7296H46.7376C46.4672 47.7296 46.2869 47.7296 46.1066 47.7296C45.9264 47.7296 45.7912 47.7296 45.6109 47.7296H45.4306V48.2253H45.5658C45.6109 48.2253 45.6559 48.2253 45.701 48.2253C45.7461 48.2253 45.7912 48.2253 45.7912 48.2253C46.2419 48.2253 46.332 48.3155 46.332 48.3155C46.332 48.3155 46.4221 48.4507 46.4221 49.2169V49.8478C46.4221 49.8478 46.4221 49.938 46.4221 50.0732C46.4221 50.2084 46.4221 50.2985 46.4221 50.4338C46.4221 50.5239 46.4221 50.6591 46.4221 50.7492C46.4221 50.8845 46.4221 50.9295 46.4221 50.9746C46.4221 51.0647 46.4221 51.1999 46.4221 51.3802V51.8309C46.4221 51.9661 46.4221 52.0563 46.4221 52.1915C46.4221 52.3267 46.4221 52.4168 46.4221 52.4168C46.4221 52.4619 46.4221 52.552 46.4221 52.6422C46.4221 52.7323 46.4221 52.8225 46.4221 52.8675C46.4221 52.8675 46.4221 52.9126 46.4221 52.9577C46.4221 53.0027 46.4221 53.0478 46.4221 53.0478C46.4221 53.138 46.4221 53.2732 46.4221 53.3633V53.4084C46.4221 53.4985 46.4221 53.5887 46.4221 53.6788C46.4221 53.7689 46.4221 53.8591 46.4221 53.8591C46.4221 53.9492 46.4221 53.9943 46.4221 54.0844V54.3098C46.4221 54.9408 46.332 55.076 46.332 55.076C46.332 55.076 46.2419 55.1661 45.6559 55.1661H45.1602V55.6168H48.7207C48.7658 55.6168 48.8108 55.6168 48.8559 55.6168C48.901 55.6168 48.901 55.6168 48.9461 55.6168C48.9911 55.6168 49.0362 55.6168 49.1263 55.6168C49.2165 55.6168 49.2615 55.6168 49.3066 55.6168C49.3517 55.6168 49.3968 55.6168 49.4869 55.6168C49.7573 55.6168 49.9376 55.6168 50.208 55.6168H51.7855V55.4816C51.7855 55.2112 51.7855 54.9858 51.8305 54.7605C51.8305 54.7154 51.8305 54.6703 51.8305 54.6703V54.5351C51.8305 54.445 51.8305 54.3098 51.8305 54.1295C51.8305 53.9492 51.8756 53.814 51.8756 53.6788V53.4985H51.4249V53.6337C51.3798 54.1746 51.3348 54.445 51.2897 54.5351C51.2446 54.6703 51.1545 54.7605 50.9742 54.8957C50.9291 54.9408 50.7939 54.9858 50.2982 55.0309C49.9376 55.076 49.4869 55.121 48.9911 55.121C48.3151 55.121 48.1799 55.076 48.1348 55.076C48.0897 55.076 48.0897 54.9858 48.0897 54.8957C48.0897 54.8056 48.0897 54.6703 48.0897 54.5351C48.0897 54.3999 48.0897 54.3098 48.0897 54.2647C48.0897 54.1746 48.0897 54.0394 48.0897 53.9492C48.0897 53.8591 48.0897 53.7689 48.0897 53.7689C48.0897 53.7239 48.0897 53.6788 48.0897 53.5887C48.0897 53.4985 48.0897 53.4534 48.0897 53.4084C48.0897 53.3633 48.0897 53.3182 48.0897 53.2281C48.0897 53.138 48.0897 53.0929 48.0897 53.0478C48.0897 52.9577 48.0897 52.8225 48.0897 52.7323C48.0897 52.5971 48.0897 52.507 48.0897 52.4619C48.0897 52.2816 48.0897 52.0563 48.0897 51.876C48.0897 51.8309 48.0897 51.7859 48.0897 51.7859V51.3352C48.0897 51.1999 48.0897 51.1098 48.0897 50.9746C48.0897 50.8394 48.0897 50.7492 48.0897 50.7492C48.0897 50.6591 48.0897 50.5239 48.0897 50.3436C48.0897 50.2084 48.0897 50.0732 48.0897 50.0281V49.8929C48.0897 49.8478 48.0897 49.7577 48.0897 49.5774C48.0897 49.4422 48.0897 49.307 48.0897 49.2169C48.0897 49.1267 48.0897 49.0366 48.0897 48.9464C48.0897 48.8563 48.0897 48.8112 48.0897 48.8112C48.0897 48.4507 48.1348 48.3605 48.1799 48.3155C48.1799 48.3155 48.27 48.2253 48.6756 48.2253C48.8559 48.2253 48.9461 48.2253 49.0362 48.2253C49.1263 48.2253 49.1714 48.2253 49.2615 48.2253H49.3968V47.7296H49.2615ZM87.3007 51.1999H87.2556V50.614V50.569C87.2556 50.4788 87.2556 50.3887 87.2556 50.3436C87.2556 50.3436 87.2556 50.2985 87.2556 50.2084V50.1633C87.2556 50.0281 87.2556 49.938 87.2556 49.8478V48.4507C87.2556 48.2704 87.3007 48.2253 87.3007 48.2253C87.3007 48.2253 87.3457 48.1803 87.6161 48.1803C88.1119 48.1803 88.5175 48.3155 88.788 48.5859C89.0584 48.8563 89.1936 49.2169 89.1936 49.7126C89.1936 50.2535 89.0584 50.614 88.833 50.8394C88.5626 51.0647 88.157 51.1999 87.5711 51.1999C87.4359 51.1999 87.3457 51.1999 87.3007 51.1999ZM84.4612 48.2253H84.7317C85.2725 48.2253 85.4077 48.3155 85.4528 48.3155C85.4528 48.3155 85.5429 48.4056 85.5429 49.0817C85.5429 49.1267 85.5429 49.2169 85.5429 49.307C85.5429 49.3971 85.5429 49.4873 85.5429 49.5324V51.0647C85.5429 51.0647 85.5429 51.1549 85.5429 51.245C85.5429 51.3802 85.5429 51.4704 85.5429 51.5605C85.5429 51.6506 85.5429 51.7408 85.5429 51.8309C85.5429 51.9211 85.5429 52.0112 85.5429 52.0563C85.5429 52.1464 85.5429 52.2366 85.5429 52.2816V52.3267C85.5429 52.4168 85.5429 52.4619 85.5429 52.552C85.5429 52.6422 85.5429 52.6873 85.5429 52.7323C85.5429 52.7323 85.5429 52.7774 85.5429 52.8225C85.5429 52.8675 85.5429 52.9126 85.5429 52.9577C85.5429 53.0027 85.5429 53.0478 85.5429 53.138C85.5429 53.2281 85.5429 53.2732 85.5429 53.3182C85.5429 53.3182 85.5429 53.4084 85.5429 53.4985C85.5429 53.5887 85.5429 53.6788 85.5429 53.7239V53.814C85.5429 53.8591 85.5429 53.9041 85.5429 53.9492C85.5429 53.9943 85.5429 54.0394 85.5429 54.1295C85.5429 54.1746 85.5429 54.2647 85.5429 54.2647C85.5429 54.8957 85.4528 55.0309 85.4077 55.0309C85.3626 55.076 85.2725 55.1661 84.7317 55.1661H84.4162V55.6168H84.5514C84.6866 55.6168 84.8669 55.6168 85.0922 55.6168C85.7232 55.6168 86.1288 55.6168 86.3542 55.6168C86.7148 55.6168 87.0302 55.6168 87.3457 55.6168C87.6612 55.6168 87.9316 55.6168 88.2471 55.6168H88.3823V55.1661H88.3373C88.2922 55.1661 88.2021 55.1661 88.1119 55.1661C88.0218 55.1661 87.9767 55.1661 87.9316 55.1661C87.4809 55.1661 87.3908 55.076 87.3457 55.0309C87.3007 54.9858 87.2556 54.8506 87.2556 54.3098C87.2556 54.2196 87.2556 54.0844 87.2556 53.9943V53.814C87.2556 53.7689 87.2556 53.7239 87.2556 53.6337C87.2556 53.5436 87.2556 53.4985 87.2556 53.4534C87.2556 53.4084 87.2556 53.4084 87.2556 53.3182C87.2556 53.2281 87.2556 53.183 87.2556 53.138C87.2556 53.0929 87.2556 53.0478 87.2556 53.0027C87.2556 52.9577 87.2556 52.9126 87.2556 52.8675V52.6873C87.2556 52.6422 87.2556 52.552 87.2556 52.4619C87.2556 52.3718 87.2556 52.3267 87.2556 52.2816C87.2556 52.2366 87.2556 52.1915 87.2556 52.1464C87.2556 52.1013 87.2556 52.0112 87.2556 52.0112C87.2556 52.0112 87.2556 51.9661 87.2556 51.9211C87.2556 51.876 87.2556 51.8309 87.2556 51.8309C87.2556 51.7859 87.2556 51.7408 87.2556 51.7408C87.2556 51.6957 87.2556 51.6506 87.2556 51.6506V51.6056H87.3007C87.6161 51.6056 87.8866 51.6506 88.0668 51.7408C88.2471 51.8309 88.4274 51.9661 88.5626 52.1464C88.7429 52.3718 88.833 52.7323 88.9232 53.2281C88.9232 53.3633 88.9682 53.4534 88.9682 53.4985C88.9682 53.5436 88.9682 53.6337 89.0133 53.7239C89.1035 54.445 89.3288 54.9858 89.7344 55.3013C89.9147 55.4365 90.1401 55.5717 90.3654 55.6168C90.6358 55.707 90.8612 55.752 91.1316 55.752C91.3119 55.752 91.4922 55.752 91.6274 55.707C91.8077 55.6619 91.9429 55.6168 92.1231 55.5717L92.2133 55.5267V55.0309L91.9879 55.121C91.8527 55.1661 91.7175 55.2112 91.6274 55.2562C91.3119 55.3464 91.0865 55.3013 90.9513 55.1661C90.9063 55.076 90.771 54.8957 90.726 54.445C90.6809 54.3098 90.6809 54.1295 90.6358 53.9041C90.5006 53.0478 90.2753 52.4168 89.9598 52.0563C89.8246 51.876 89.5992 51.7408 89.2837 51.5605C89.1936 51.5154 89.1035 51.4704 88.9682 51.4253C89.3739 51.3352 89.7344 51.1549 90.0049 50.9295C90.4556 50.569 90.6809 50.0732 90.6809 49.5324C90.6809 49.0366 90.4556 48.5859 90.0499 48.2253C89.6443 47.8648 89.1936 47.6845 88.6528 47.6845C88.6077 47.6845 88.5626 47.6845 88.5175 47.6845C88.4725 47.6845 88.4274 47.6845 88.3823 47.6845C88.3823 47.6845 88.2922 47.6845 88.2021 47.6845C88.0668 47.6845 87.9767 47.6845 87.8415 47.6845C87.7964 47.6845 87.526 47.6845 87.0302 47.7296C86.3542 47.7746 85.6781 47.7746 85.1373 47.7296C84.957 47.7296 84.8218 47.7296 84.6415 47.6845H84.4612V48.2253ZM101.002 48.3605C100.551 48.8112 100.371 49.4422 100.371 50.1633C100.371 50.569 100.461 50.9746 100.641 51.3352C100.822 51.6957 101.092 51.9211 101.408 52.1013C101.678 52.2366 102.129 52.3718 102.76 52.4168H102.805C103.436 52.507 103.931 52.6873 104.202 52.9126C104.472 53.138 104.608 53.4534 104.608 53.8591C104.608 54.2647 104.472 54.5802 104.157 54.8506C103.841 55.121 103.481 55.2562 103.03 55.2562C102.399 55.2562 101.903 55.0309 101.453 54.5802C101.002 54.1295 100.777 53.5887 100.732 52.9126V52.7774H100.326V52.9577C100.326 53.138 100.326 53.3633 100.326 53.5436C100.326 53.7239 100.326 53.9492 100.326 54.1295C100.326 54.3098 100.326 54.4901 100.326 54.6703C100.326 54.8957 100.326 55.121 100.281 55.4365V55.6168H100.686V55.4816C100.686 55.2562 100.732 55.121 100.777 55.076C100.822 55.0309 100.822 55.0309 100.912 55.0309C100.957 55.0309 101.092 55.076 101.363 55.2112C101.453 55.2563 101.498 55.3013 101.543 55.3464C101.768 55.4816 102.039 55.5717 102.264 55.6619C102.489 55.707 102.76 55.752 103.03 55.752C103.751 55.752 104.337 55.4816 104.788 55.0309C105.239 54.5351 105.464 53.9042 105.464 53.138C105.464 52.552 105.329 52.0112 105.013 51.6506C104.698 51.245 104.247 50.9746 103.661 50.8394C103.526 50.7943 103.346 50.7492 103.165 50.7492C102.94 50.7042 102.85 50.7042 102.805 50.7042C102.76 50.7042 102.624 50.7042 102.264 50.614C101.993 50.569 101.768 50.4788 101.588 50.3887C101.453 50.2985 101.317 50.2084 101.227 50.0732C101.137 49.938 101.092 49.7126 101.092 49.4873C101.092 49.1267 101.227 48.8112 101.543 48.5408C101.858 48.2704 102.219 48.1352 102.715 48.1352C103.165 48.1352 103.571 48.3155 103.886 48.676C104.247 49.0366 104.427 49.5324 104.472 50.0732V50.2084H104.878V50.0281C104.878 50.0281 104.878 49.9831 104.878 49.938C104.833 49.4422 104.833 49.1267 104.833 48.9464C104.833 48.8563 104.833 48.7211 104.833 48.5859C104.833 48.4507 104.833 48.2253 104.878 47.9549V47.7746H104.427V47.9098C104.427 48.045 104.427 48.1352 104.382 48.1803C104.337 48.2253 104.337 48.2253 104.292 48.2253C104.247 48.2253 104.202 48.2253 104.202 48.1803C104.202 48.1803 104.157 48.1803 104.157 48.1352C104.157 48.1352 104.112 48.0901 104.067 48.0901C103.571 47.7746 103.075 47.5943 102.534 47.5943C101.993 47.6394 101.453 47.8648 101.002 48.3605ZM9.50978 54.4901C9.10415 53.9042 8.8788 53.183 8.8788 52.2816C8.8788 50.8394 9.05908 49.7577 9.41964 49.0366C9.7802 48.3605 10.276 48.045 10.9971 48.045C11.6731 48.045 12.1689 48.3155 12.5295 48.9014C12.9351 49.4873 13.1154 50.3436 13.1154 51.3802C13.1154 52.6873 12.9351 53.6788 12.5295 54.3548C12.1689 55.0309 11.6281 55.3464 10.952 55.3464C10.4112 55.3464 9.91541 55.076 9.50978 54.4901ZM8.20275 48.8112C7.43656 49.6225 7.03093 50.614 7.03093 51.876C7.03093 52.507 7.16614 53.0929 7.43656 53.6337C7.70698 54.2196 8.11261 54.7154 8.60838 55.121C8.83373 55.3013 9.14922 55.4816 9.64499 55.6619C10.0957 55.7971 10.5464 55.8872 10.952 55.8872C12.0788 55.8872 13.0252 55.4816 13.7914 54.6703C14.5576 53.8591 14.9633 52.8675 14.9633 51.6957C14.9633 50.5239 14.6027 49.5324 13.8816 48.7662C13.1604 48 12.214 47.6394 11.0872 47.6394C9.96048 47.5943 8.96894 48 8.20275 48.8112ZM55.5714 50.1183C55.6615 50.3436 55.7516 50.569 55.7967 50.8394C55.9319 51.1999 55.977 51.3802 56.0221 51.4704C56.0221 51.5154 56.0221 51.5154 56.0671 51.5605C56.1122 51.6506 56.1122 51.6957 56.1122 51.6957C56.1122 51.7408 56.1122 51.7408 56.2474 52.0112C56.2925 52.1464 56.3375 52.2366 56.3826 52.3718C56.3375 52.3718 56.2925 52.3718 56.2474 52.3718C56.1573 52.3718 56.0671 52.3718 56.0221 52.3718C55.977 52.3718 55.9319 52.3718 55.8418 52.3718C55.7516 52.3718 55.6615 52.3718 55.5714 52.3718H54.9854H54.9404C54.8953 52.3718 54.8502 52.3718 54.8052 52.3718C54.9854 51.7859 55.2559 51.0197 55.5714 50.1183ZM55.8868 47.5943L55.8418 47.7296C55.8418 47.8197 55.7066 48.1352 55.3009 49.2619C54.9854 50.2084 54.6699 51.0647 54.3995 51.876C54.3995 51.9211 54.3545 52.0112 54.3094 52.1464C54.084 52.7323 53.9038 53.3182 53.7235 53.814C53.6784 53.9042 53.6333 54.0394 53.5883 54.1746C53.3629 54.8506 53.0474 55.2112 52.6418 55.2112C52.5967 55.2112 52.5517 55.2112 52.5066 55.2112C52.4615 55.2112 52.4615 55.2112 52.4165 55.2112H52.2362V55.6619H52.3714C52.5967 55.6619 52.8221 55.6619 53.0024 55.6619C53.1826 55.6619 53.3178 55.6619 53.4531 55.6619C53.5883 55.6619 53.7235 55.6619 53.9038 55.6619C54.084 55.6619 54.3094 55.6619 54.5798 55.6619H54.715V55.2112H54.5347C53.9939 55.2112 53.8587 55.121 53.8587 55.076C53.8587 55.0309 53.9038 54.8957 54.1291 54.2196C54.3094 53.7239 54.4446 53.2732 54.5798 52.9126C54.6249 52.9126 54.6249 52.9126 54.6249 52.9126H55.0756C55.2559 52.9126 55.4361 52.9126 55.5714 52.9126C55.6164 52.9126 55.6164 52.9126 55.6615 52.9126H56.5629C56.608 53.0929 56.6981 53.3182 56.8333 53.5887C57.284 54.8056 57.3291 55.076 57.3291 55.076C57.3291 55.076 57.2389 55.1661 56.653 55.2112C56.5178 55.2112 56.4277 55.2112 56.3826 55.2112H56.2474V55.6619H56.3826C56.6981 55.6619 57.0587 55.6619 57.4643 55.6619C57.8699 55.6619 58.0953 55.6619 58.1403 55.6619C58.2305 55.6619 58.4558 55.6619 58.8615 55.6619C59.2671 55.6619 59.6277 55.6619 59.9882 55.6619H60.1234V55.2112H59.9882C59.9431 55.2112 59.8981 55.2112 59.853 55.2112C59.8079 55.2112 59.7629 55.2112 59.6727 55.2112C59.2671 55.2112 58.9967 54.9408 58.7713 54.3548C58.7263 54.2647 58.7263 54.1746 58.6812 54.1295C58.4108 53.4084 58.1403 52.7323 57.915 52.1464C57.915 52.1013 57.8699 52.0563 57.8699 52.0563C57.8249 51.9211 57.4643 51.0197 56.8333 49.3521L56.1573 47.5493H55.8868V47.5943ZM71.436 50.1183C71.5261 50.3436 71.6163 50.569 71.6614 50.8394C71.7966 51.245 71.8416 51.3802 71.8867 51.4704C71.8867 51.5154 71.8867 51.5154 71.9318 51.5605C71.9768 51.6506 71.9768 51.6957 71.9768 51.6957C71.9768 51.7408 71.9768 51.7408 72.1121 52.0112C72.1571 52.1464 72.2022 52.2366 72.2473 52.3718C72.2022 52.3718 72.1571 52.3718 72.1121 52.3718C72.0219 52.3718 71.9318 52.3718 71.8867 52.3718C71.8416 52.3718 71.7966 52.3718 71.7064 52.3718C71.6163 52.3718 71.5261 52.3718 71.436 52.3718H70.8501H70.805C70.76 52.3718 70.7149 52.3718 70.6698 52.3718C70.8501 51.7859 71.0754 51.0647 71.436 50.1183ZM71.7515 47.5943L71.7064 47.7296C71.7064 47.8197 71.5712 48.1352 71.1656 49.2619C70.8501 50.2084 70.5346 51.0647 70.2642 51.876C70.2642 51.9211 70.2191 52.0112 70.174 52.1464C69.9487 52.7323 69.7684 53.3182 69.5881 53.814C69.5431 53.9042 69.498 54.0394 69.4529 54.1746C69.2276 54.8506 68.9121 55.2112 68.5065 55.2112C68.4614 55.2112 68.4163 55.2112 68.3712 55.2112C68.3262 55.2112 68.3262 55.2112 68.2811 55.2112H68.1008V55.6619H68.236C68.4614 55.6619 68.6867 55.6619 68.867 55.6619C69.0473 55.6619 69.1825 55.6619 69.3177 55.6619C69.4529 55.6619 69.5881 55.6619 69.7684 55.6619C69.9487 55.6619 70.174 55.6619 70.4445 55.6619H70.5797V55.2112H70.2642C69.7233 55.2112 69.5881 55.121 69.5881 55.076C69.5881 55.0309 69.6332 54.8957 69.8586 54.2196C70.0388 53.7239 70.174 53.2732 70.3092 52.9126C70.3543 52.9126 70.3543 52.9126 70.3543 52.9126H70.805C70.9853 52.9126 71.1656 52.9126 71.3008 52.9126C71.3459 52.9126 71.3459 52.9126 71.3909 52.9126H72.2923L72.5628 53.5887C73.0135 54.8056 73.0585 55.076 73.0585 55.076C73.0585 55.076 72.9684 55.1661 72.3825 55.2112C72.2473 55.2112 72.1571 55.2112 72.1121 55.2112H71.9768V55.6619H72.1121C72.4275 55.6619 72.7881 55.6619 73.1937 55.6619C73.5994 55.6619 73.8247 55.6619 73.8698 55.6619C73.9599 55.6619 74.1853 55.6619 74.5909 55.6619C74.9965 55.6619 75.3571 55.6619 75.7177 55.6619H75.8529V55.2112H75.7177C75.6726 55.2112 75.6275 55.2112 75.5824 55.2112C75.5374 55.2112 75.4923 55.2112 75.4022 55.2112C74.9965 55.2112 74.7261 54.9408 74.5008 54.3548C74.4557 54.2647 74.4557 54.1746 74.4106 54.1295C74.1402 53.4084 73.8698 52.7323 73.6444 52.1464C73.6444 52.1013 73.5994 52.0563 73.5994 52.0563C73.5543 51.9211 73.2388 51.0647 72.6529 49.5774L71.8867 47.5943H71.7515ZM136.292 48.7662C135.526 49.5324 135.165 50.569 135.165 51.8309C135.165 52.9577 135.526 53.9041 136.247 54.6253C136.968 55.3464 137.869 55.752 138.996 55.752C139.537 55.752 140.078 55.6619 140.573 55.4365C141.204 55.1661 141.295 55.121 141.295 55.121C141.34 55.121 141.34 55.121 141.34 55.1661C141.34 55.1661 141.385 55.2563 141.43 55.4365V55.5717H141.835V55.3915C141.79 55.076 141.79 54.8506 141.79 54.6253C141.79 54.445 141.79 54.2647 141.79 54.0844C141.79 53.9492 141.79 53.814 141.79 53.6337C141.79 53.4534 141.79 53.2732 141.79 53.0478V52.9126H141.385V53.0478C141.34 53.7239 141.114 54.2647 140.754 54.6703C140.393 55.076 139.897 55.2562 139.311 55.2562C138.545 55.2562 138.004 54.9858 137.599 54.3548C137.193 53.7689 136.968 52.8675 136.968 51.6957C136.968 50.5239 137.193 49.5774 137.599 48.9464C138.004 48.3155 138.59 48.045 139.311 48.045C139.807 48.045 140.258 48.2253 140.618 48.5408C140.979 48.9014 141.204 49.307 141.249 49.8478V49.9831H141.7V49.8028C141.7 49.5324 141.655 49.307 141.655 49.1267C141.655 48.9464 141.655 48.7662 141.655 48.631C141.655 48.5408 141.655 48.4056 141.655 48.2253C141.655 48.0901 141.655 47.9098 141.655 47.6845V47.5042H141.249V47.6394C141.249 47.8197 141.204 47.9549 141.159 47.9549C141.159 48 141.114 48 141.114 48C141.069 48 140.934 47.9098 140.528 47.7296C140.078 47.5493 139.672 47.4141 139.266 47.4141C138.004 47.5943 137.013 48 136.292 48.7662Z" fill="#133C58"/>
</svg>
