<svg  viewBox="0 0 232 28" fill="none" xmlns="http://www.w3.org/2000/svg">
<path d="M186.195 19.1593L175.186 19.221L162.182 19.2738L147.649 19.3179L130.973 19.3399C131.255 20.0094 131.404 20.7273 131.413 21.4537C131.408 22.3428 131.184 23.217 130.761 23.999C129.923 25.4913 128.619 26.6682 127.049 27.3502C126.324 27.6617 125.538 27.8045 124.75 27.7679C123.962 27.7313 123.193 27.5162 122.5 27.1389C121.21 26.4343 119.928 25.0911 120.012 23.519C120.095 21.9469 121.276 20.6654 122.676 20.1414C123.492 19.7899 124.407 19.74 125.257 20.0005C125.923 20.276 126.516 20.7044 126.987 21.2511L126.868 21.2951H126.82C126.785 21.3064 126.752 21.3197 126.719 21.3348C126.6 21.3832 126.481 21.4361 126.366 21.4933C126.347 21.5003 126.331 21.5145 126.322 21.5329C126.17 21.5871 126.022 21.6549 125.882 21.7355C125.326 22.0294 124.908 22.5311 124.719 23.1315C124.402 24.3293 125.776 25.3113 126.86 24.8665C128.837 24.0563 129.031 22.0262 128.586 20.1722C128.238 18.7146 127.04 17.8162 125.688 17.3362C124.221 16.8098 122.612 16.8459 121.17 17.4375C120.635 17.6539 120.131 17.938 119.668 18.283C119.554 18.3711 119.431 18.468 119.307 18.5781C119.014 19.0027 118.819 19.4869 118.735 19.996C118.959 20.3155 119.118 20.6762 119.201 21.0573C119.264 21.5102 119.214 21.9715 119.056 22.4005C118.878 22.8154 118.65 23.2072 118.378 23.5675C118.169 23.9521 117.907 24.305 117.599 24.6155C117.574 24.6301 117.547 24.6389 117.518 24.641C117.49 24.6432 117.461 24.6388 117.435 24.6282C117.408 24.6175 117.385 24.6009 117.366 24.5796C117.347 24.5583 117.333 24.5329 117.326 24.5054C117.194 24.3954 117.091 24.2548 117.026 24.0959C116.903 23.8801 116.788 23.6555 116.674 23.4398C116.453 23.0201 116.28 22.577 116.159 22.1186C116.052 21.6672 116.027 21.2005 116.084 20.7403C116.109 20.5438 116.181 20.3565 116.295 20.1942L116.343 20.1238C116.346 20.0812 116.346 20.0386 116.343 19.996C116.262 19.4814 116.065 18.9921 115.767 18.5648C115.648 18.4548 115.52 18.3579 115.406 18.2698C114.944 17.923 114.439 17.6387 113.904 17.4243C112.462 16.8326 110.852 16.7966 109.386 17.323C108.038 17.803 106.84 18.7014 106.488 20.159C106.048 22.0129 106.241 24.0431 108.219 24.8533C109.302 25.2937 110.676 24.3161 110.359 23.1183C110.224 22.7525 110.012 22.4203 109.737 22.1444C109.462 21.8684 109.13 21.6553 108.765 21.5197C108.756 21.5026 108.742 21.4886 108.725 21.4801C108.606 21.4228 108.492 21.37 108.373 21.3216C108.338 21.3064 108.303 21.2932 108.267 21.2819H108.223L108.1 21.2379C108.571 20.6912 109.164 20.2628 109.83 19.9872C110.68 19.7267 111.595 19.7767 112.411 20.1282C113.811 20.6522 115 21.9733 115.08 23.5058C115.159 25.0383 113.877 26.4211 112.592 27.1257C111.898 27.5031 111.128 27.7182 110.339 27.7548C109.55 27.7914 108.764 27.6486 108.038 27.337C106.469 26.6536 105.166 25.477 104.326 23.9858C103.902 23.2042 103.68 22.3295 103.678 21.4405C103.686 20.7153 103.835 19.9985 104.119 19.3311L84.4342 19.3047L69.902 19.2606L56.8846 19.2078L45.8754 19.1461L7.38942 19.0889L0 19.0272L7.38942 18.9656L45.8754 18.9083L56.8846 18.8467L69.902 18.7894L84.4342 18.7454H98.4997C95.6769 18.1993 93.0611 16.6272 91.718 13.9894C91.408 13.3171 91.1331 12.6292 90.8945 11.9285C90.5069 10.9288 89.7935 9.50201 88.8335 8.94274C88.3647 8.70962 87.8626 8.55066 87.3451 8.47154C87.3136 8.46582 87.2852 8.44925 87.2647 8.42471C87.2442 8.40016 87.233 8.3692 87.233 8.33723C87.233 8.30526 87.2442 8.2743 87.2647 8.24976C87.2852 8.22521 87.3136 8.20864 87.3451 8.20292H87.4464C87.533 8.17332 87.6235 8.15698 87.715 8.15447C87.8747 8.11518 88.0364 8.08431 88.1994 8.062C88.5209 8.02677 88.8423 7.97833 89.1594 7.96512C89.7551 7.96111 90.3483 8.04269 90.9209 8.20733C91.7421 8.39054 92.4966 8.79749 93.1007 9.38311C93.244 8.60694 93.6461 7.90221 94.2413 7.38383C94.9357 6.79399 95.823 6.48047 96.7338 6.50308C97.6268 6.52413 98.4778 6.88661 99.1118 7.51595C99.4106 7.82787 99.6195 8.21478 99.7164 8.63573C99.8133 9.05667 99.7946 9.49598 99.6622 9.90715C99.6508 9.93971 99.6277 9.96692 99.5975 9.98361C99.5673 10.0003 99.532 10.0053 99.4983 9.99772C99.4646 9.99012 99.4349 9.97041 99.4148 9.94235C99.3947 9.9143 99.3856 9.87984 99.3892 9.84551C99.4685 9.14972 99.1778 8.49357 98.4028 8.45394C98.0655 8.42767 97.7276 8.49622 97.4273 8.65185C97.1269 8.80749 96.876 9.044 96.703 9.33468C95.8222 10.7659 97.0068 12.2631 98.2178 12.9942C98.9058 13.4155 99.6682 13.701 100.464 13.8353C100.33 13.6836 100.206 13.5248 100.089 13.3597C99.8868 13.0661 99.6799 12.7887 99.4685 12.5274C99.2618 12.1824 99.0369 11.8487 98.7947 11.5277C98.7684 11.5029 98.7509 11.4703 98.7447 11.4347C98.7385 11.3991 98.744 11.3625 98.7604 11.3303C98.7767 11.2981 98.803 11.272 98.8354 11.256C98.8678 11.24 98.9045 11.2349 98.94 11.2415C99.4723 11.4036 100.045 11.366 100.552 11.1358C100.97 10.9288 101.309 10.6073 101.714 10.3784C102.048 10.1519 102.448 10.0434 102.851 10.0701L103.159 10.1185C103.08 10.0349 102.996 9.95119 102.921 9.86312C102.442 9.35157 102.086 8.73726 101.881 8.06713C101.675 7.39701 101.626 6.6888 101.736 5.99666C101.878 5.36949 102.224 4.80744 102.721 4.39975C103.218 3.99206 103.837 3.76209 104.48 3.74637C104.986 3.77016 105.479 3.92164 105.911 4.18674C106.219 4.34528 106.647 4.60069 106.743 4.96619C106.832 5.08154 106.903 5.20912 106.955 5.34492C106.96 5.36468 106.959 5.38566 106.952 5.40484C106.945 5.42403 106.932 5.44044 106.915 5.45169C106.897 5.46295 106.877 5.46849 106.857 5.4675C106.836 5.46651 106.817 5.45905 106.801 5.4462C106.543 5.1778 106.201 5.00666 105.832 4.96179C105.61 4.98723 105.395 5.05969 105.203 5.17434C105.011 5.28899 104.846 5.44321 104.718 5.62675C104.132 6.35777 104.436 7.27374 104.947 7.94311C105.197 8.28702 105.517 8.5745 105.886 8.7869C106.255 8.99931 106.664 9.13191 107.087 9.17614C107.877 9.16581 108.652 8.95844 109.342 8.57283C109.988 8.26009 110.69 8.07754 111.407 8.03558C110.821 7.59521 110.623 6.66162 110.553 5.98786C110.517 5.4103 110.642 4.83417 110.914 4.32326C111.066 3.99282 111.178 3.64541 111.248 3.28838C111.275 3.12985 111.292 2.97572 111.314 2.81718C111.361 2.62432 111.42 2.43459 111.491 2.24911C111.513 2.17425 111.627 2.13021 111.671 2.21388C111.825 2.52214 111.944 2.84801 112.112 3.14746C112.334 3.47528 112.623 3.7516 112.961 3.95774C113.485 4.31885 114.084 4.54345 114.608 4.90455C115.107 5.23911 115.515 5.6933 115.793 6.22566C115.884 6.40858 115.961 6.59854 116.022 6.79373C116.022 6.70125 116.048 6.60878 116.066 6.5207C116.198 5.82932 116.189 5.14234 116.26 4.44215C116.37 3.36765 116.625 2.29314 116.757 1.21864C116.81 0.972029 116.854 0.725422 116.894 0.478815L117.026 0.00322151C117.049 -0.00108528 117.073 -0.00108528 117.097 0.00322151C117.136 0.210196 117.18 0.41276 117.237 0.61533C117.24 0.643179 117.24 0.671152 117.237 0.699001C117.339 1.13937 117.414 1.62818 117.51 2.08617C117.656 2.77314 117.823 3.45132 118.004 4.12508C118.308 5.27885 118.66 6.42382 118.95 7.582C118.993 7.10673 119.125 6.64368 119.338 6.21685C119.617 5.68332 120.026 5.22887 120.527 4.89573C121.047 4.53463 121.646 4.31004 122.17 3.94894C122.508 3.7428 122.797 3.46648 123.02 3.13866C123.196 2.83921 123.31 2.51333 123.46 2.20507C123.504 2.1214 123.623 2.16544 123.64 2.2403C123.713 2.42509 123.772 2.61496 123.817 2.80838C123.839 2.96691 123.856 3.12105 123.887 3.27958C123.953 3.63764 124.066 3.98555 124.222 4.31446C124.49 4.82651 124.613 5.40206 124.578 5.97906C124.508 6.65282 124.31 7.58641 123.729 8.02678C124.444 8.06931 125.144 8.25184 125.789 8.56403C126.479 8.94964 127.254 9.157 128.044 9.16734C128.467 9.12311 128.876 8.99049 129.245 8.77809C129.614 8.56568 129.934 8.27821 130.184 7.93429C130.695 7.26493 130.999 6.34896 130.413 5.61795C130.285 5.43441 130.12 5.28019 129.928 5.16553C129.736 5.05088 129.521 4.97843 129.299 4.95298C128.93 4.99855 128.588 5.16959 128.33 5.4374C128.315 5.45199 128.295 5.46091 128.274 5.46269C128.253 5.46446 128.232 5.45897 128.215 5.44714C128.197 5.4353 128.184 5.41783 128.178 5.39763C128.172 5.37743 128.173 5.35571 128.181 5.3361C128.229 5.1987 128.3 5.07061 128.392 4.95739C128.485 4.59188 128.912 4.33646 129.22 4.17793C129.652 3.91283 130.145 3.76134 130.651 3.73756C131.294 3.75328 131.913 3.98324 132.41 4.39094C132.907 4.79863 133.254 5.36068 133.395 5.98786C133.505 6.67999 133.456 7.38819 133.25 8.05832C133.045 8.72845 132.689 9.34277 132.21 9.85431C132.135 9.94239 132.056 10.0261 131.977 10.1097L132.281 10.0613C132.684 10.0349 133.086 10.1434 133.421 10.3696C133.822 10.5985 134.165 10.92 134.579 11.127C135.086 11.3572 135.659 11.3948 136.191 11.2327C136.227 11.2247 136.264 11.2289 136.298 11.2444C136.331 11.2599 136.358 11.2859 136.375 11.3185C136.392 11.3511 136.398 11.3884 136.392 11.4246C136.386 11.4608 136.368 11.494 136.341 11.5189C136.096 11.8388 135.869 12.1726 135.663 12.5185C135.451 12.7916 135.244 13.069 135.042 13.3509C134.967 13.4521 134.843 13.6283 134.698 13.7912C135.43 13.6439 136.131 13.3697 136.768 12.9809C137.979 12.2499 139.168 10.7527 138.283 9.32147C138.109 9.03114 137.858 8.79491 137.558 8.63933C137.258 8.48375 136.92 8.41498 136.583 8.44073C135.803 8.48036 135.517 9.13651 135.592 9.8323C135.596 9.86663 135.587 9.90108 135.566 9.92914C135.546 9.9572 135.517 9.97691 135.483 9.98451C135.449 9.99211 135.414 9.98709 135.384 9.9704C135.354 9.9537 135.331 9.9265 135.319 9.89394C135.186 9.48248 135.168 9.04269 135.266 8.62153C135.363 8.20038 135.574 7.81369 135.874 7.50274C136.507 6.87443 137.356 6.51204 138.248 6.48987C139.158 6.46643 140.046 6.78005 140.74 7.37062C141.338 7.8872 141.742 8.59253 141.885 9.3699C142.488 8.78443 143.241 8.37744 144.06 8.19412C144.633 8.03007 145.226 7.94851 145.822 7.95191C146.143 7.95191 146.465 8.01356 146.782 8.04879C146.945 8.07069 147.107 8.10156 147.266 8.14126C147.359 8.14411 147.451 8.16043 147.539 8.18971H147.641C147.673 8.19226 147.703 8.20622 147.726 8.22911C147.749 8.25201 147.763 8.28234 147.766 8.31466C147.769 8.34698 147.76 8.37918 147.741 8.4055C147.722 8.43183 147.694 8.45056 147.663 8.45833C147.145 8.53745 146.643 8.69641 146.174 8.92953C145.214 9.4888 144.501 10.9156 144.109 11.9152C143.84 12.6066 143.624 13.3156 143.29 13.9762C141.942 16.6184 139.326 18.1949 136.486 18.7366H147.561L162.094 18.7806L175.115 18.8335L186.125 18.8951L224.611 18.9524L232 19.0184L224.611 19.0801L186.195 19.1593ZM120.294 17.3626C120.493 17.2568 120.701 17.167 120.915 17.094L120.994 17.0632C122.534 16.4146 124.259 16.3582 125.838 16.9047C126.654 17.1665 127.394 17.6246 127.992 18.2388C128.59 18.853 129.028 19.6046 129.268 20.4276C129.268 20.4805 129.299 20.5333 129.312 20.5861C129.889 22.5634 128.432 25.5711 126.12 25.6592C125.749 25.6656 125.385 25.5635 125.072 25.3656C124.759 25.1676 124.511 24.8824 124.358 24.5451C124.242 24.2367 124.198 23.906 124.228 23.578C124.259 23.25 124.364 22.9332 124.534 22.6515C124.866 22.0339 125.401 21.55 126.049 21.2819L126.129 21.2555C125.728 21.1168 125.298 21.089 124.883 21.1751C124.468 21.2611 124.085 21.4578 123.773 21.7443C123.409 22.0775 123.139 22.4994 122.989 22.9686C122.89 23.4016 122.865 23.8482 122.914 24.2897C122.913 24.305 122.907 24.3197 122.898 24.3315C122.888 24.3433 122.874 24.3516 122.859 24.3551C122.844 24.3586 122.829 24.3571 122.815 24.3509C122.801 24.3446 122.789 24.334 122.782 24.3205C122.61 23.8341 122.629 23.3006 122.835 22.8276C123.008 22.3179 123.311 21.8624 123.715 21.5065C124.05 21.1908 124.468 20.9774 124.919 20.8916C125.371 20.8057 125.838 20.851 126.265 21.0221L126.177 20.9517C125.806 20.6403 125.368 20.4189 124.898 20.3051C124.427 20.1913 123.936 20.188 123.464 20.2955C122.6 20.4915 121.826 20.9686 121.262 21.6518C120.996 21.9483 120.793 22.2962 120.665 22.6741C120.538 23.052 120.49 23.4519 120.523 23.8493C120.658 24.656 121.067 25.3915 121.681 25.9323C122.273 26.5005 123.003 26.906 123.798 27.1097C124.594 27.3134 125.428 27.3083 126.221 27.0948C127.054 26.843 127.822 26.4116 128.47 25.8311C129.118 25.2506 129.631 24.535 129.973 23.7348C130.338 22.9439 130.51 22.0775 130.475 21.2071C130.385 20.3287 130.092 19.4832 129.621 18.7366C128.784 17.3186 127.617 16.0724 125.979 15.654C125.225 15.4466 124.438 15.3939 123.664 15.4991C122.889 15.6043 122.144 15.8652 121.474 16.2661C120.887 16.6397 120.36 17.1 119.91 17.6313C120.03 17.5302 120.158 17.4403 120.294 17.3626ZM105.154 23.7304C105.496 24.5303 106.009 25.2456 106.657 25.826C107.306 26.4065 108.073 26.838 108.906 27.0904C109.698 27.3047 110.533 27.3103 111.329 27.1066C112.124 26.9029 112.854 26.4968 113.446 25.9278C114.064 25.3895 114.478 24.656 114.622 23.8493C114.654 23.4561 114.606 23.0605 114.482 22.686C114.358 22.3115 114.16 21.9658 113.899 21.6695C113.336 20.9862 112.561 20.5092 111.698 20.3131C111.225 20.2053 110.735 20.2084 110.264 20.3222C109.793 20.4361 109.356 20.6576 108.985 20.9693L108.892 21.0397C109.32 20.8683 109.788 20.8228 110.24 20.9086C110.693 20.9944 111.111 21.208 111.447 21.5241C111.849 21.8813 112.152 22.3363 112.327 22.8452C112.534 23.3182 112.552 23.8527 112.376 24.3381C112.368 24.3516 112.357 24.3622 112.343 24.3685C112.329 24.3747 112.313 24.3762 112.298 24.3727C112.283 24.3693 112.27 24.361 112.26 24.3491C112.25 24.3373 112.244 24.3226 112.244 24.3073C112.295 23.8659 112.27 23.4189 112.169 22.9862C112.007 22.5187 111.724 22.1024 111.35 21.7795C111.038 21.4926 110.654 21.2957 110.239 21.2096C109.824 21.1235 109.394 21.1515 108.994 21.2907L109.077 21.3172C109.724 21.5855 110.258 22.0694 110.588 22.6867C110.758 22.9688 110.862 23.2853 110.893 23.613C110.924 23.9407 110.882 24.2713 110.768 24.5803C110.614 24.9166 110.366 25.2009 110.053 25.3986C109.74 25.5964 109.377 25.6992 109.007 25.6944C106.695 25.6064 105.242 22.6119 105.814 20.6214C105.814 20.5685 105.845 20.5157 105.863 20.4628C106.102 19.6401 106.539 18.8887 107.137 18.2745C107.734 17.6602 108.473 17.202 109.289 16.9399C110.876 16.3875 112.611 16.444 114.159 17.0984L114.234 17.1292C114.45 17.2013 114.659 17.2912 114.859 17.3979C114.989 17.4672 115.113 17.5467 115.229 17.6357C114.781 17.1055 114.255 16.6454 113.67 16.2705C112.999 15.8695 112.253 15.6085 111.478 15.5033C110.703 15.3981 109.915 15.4509 109.161 15.6584C107.527 16.0988 106.356 17.3406 105.524 18.741C105.045 19.4861 104.743 20.3314 104.643 21.2115C104.612 22.0797 104.787 22.9429 105.154 23.7304ZM104.44 18.7322C104.788 18.02 105.233 17.3591 105.761 16.7681C105.321 17.028 104.881 17.2922 104.524 17.5388C103.727 18.0844 102.842 18.4895 101.908 18.7366L104.44 18.7322ZM97.5529 13.3376C96.4828 12.5714 95.6681 11.4176 95.7914 10.0569C95.8527 9.47617 96.1128 8.93451 96.5277 8.52362C96.9427 8.11272 97.4868 7.85786 98.0681 7.80218C98.2926 7.77839 98.5197 7.80218 98.7344 7.87199C98.9491 7.94179 99.1467 8.05606 99.3144 8.20733C99.1931 8.00877 99.0449 7.82796 98.874 7.67008C98.2771 7.10101 97.4958 6.76503 96.6721 6.72327C96.2749 6.71765 95.881 6.7973 95.5171 6.95683C95.1532 7.11636 94.8278 7.35206 94.5628 7.64805C94.2801 7.96219 94.065 8.33109 93.931 8.73184C93.7969 9.13259 93.7466 9.55663 93.7833 9.97762C93.7833 10.418 93.1976 10.418 93.1227 10.0128C93.1227 9.95559 93.1227 9.89394 93.1007 9.83669C92.4454 9.13503 91.591 8.65092 90.6523 8.44953C90.109 8.29931 89.5467 8.22958 88.9833 8.24255C88.8291 8.24255 88.675 8.26457 88.5209 8.28219L88.7675 8.34384C89.3006 8.44861 89.8155 8.6311 90.2956 8.88549C91.1669 9.39248 91.8733 10.1402 92.3301 11.0389C92.3609 11.1006 92.264 11.1578 92.2156 11.1138C91.5682 10.4532 91.0222 9.7222 90.2339 9.22458C89.8247 8.98453 89.3781 8.81483 88.9128 8.72256L88.7631 8.68733C89.0337 8.8142 89.2942 8.96142 89.5425 9.1277C89.9829 9.44477 90.366 10.233 90.6434 10.7086C90.9209 11.1842 91.2468 11.8007 91.5462 12.3424C92.1768 13.55 92.9389 14.6842 93.8185 15.7244C95.2938 17.3846 97.9756 18.2786 100.151 18.3138C101.935 18.3403 104.81 16.4775 106.466 15.7553C106.735 15.6364 107.082 15.4999 107.479 15.3634C107.58 15.3105 107.677 15.2488 107.783 15.2004C108.587 14.84 109.46 14.6611 110.341 14.6764C111.85 14.5978 113.328 15.1185 114.454 16.1252C114.942 16.5234 115.364 16.996 115.705 17.5256C115.846 17.7149 115.982 17.9087 116.106 18.1069C116.193 18.3008 116.265 18.501 116.321 18.7058C116.395 18.8851 116.457 19.0689 116.506 19.2562C116.504 18.5769 116.363 17.9051 116.094 17.2814C115.825 16.6578 115.432 16.0952 114.939 15.6276C113.719 14.4174 112.1 13.6926 110.385 13.5887C108.571 13.4742 106.713 14.029 105.101 14.8217C104.273 15.218 103.498 15.7024 102.644 16.0591C101.908 16.3388 101.12 16.4487 100.336 16.3806C97.9668 16.2133 95.4919 14.8305 94.8974 12.3952C94.413 10.3828 95.0384 7.29135 97.6233 7.40144C97.7642 7.40144 97.7819 7.61723 97.6233 7.62604C97.2768 7.62167 96.9334 7.6913 96.616 7.83027C96.2985 7.96924 96.0144 8.17435 95.7826 8.43191C95.3958 8.94757 95.1486 9.55427 95.0648 10.1934C94.9296 10.8444 94.9343 11.5168 95.0786 12.1659C95.2228 12.815 95.5033 13.426 95.9015 13.9586C96.8406 15.0359 98.1248 15.7535 99.5345 15.9887C100.286 16.1501 101.062 16.1576 101.816 16.0107C102.705 15.7536 103.556 15.3805 104.348 14.901C106.99 13.5446 110.042 12.8136 112.887 13.9586C114.745 14.7072 116.678 16.6008 116.819 18.6397C116.837 18.4724 116.85 18.305 116.859 18.1377C116.921 17.3011 116.788 16.4615 116.471 15.6848C116.081 14.8817 115.535 14.1646 114.864 13.5755C114.207 12.9305 113.457 12.3873 112.64 11.9637C111.777 11.5026 110.794 11.3138 109.822 11.422C108.83 11.5532 107.862 11.8245 106.946 12.2279C106.039 12.6066 105.215 13.1703 104.343 13.6327C103.524 14.0851 102.628 14.3836 101.701 14.5134C100.222 14.63 98.7506 14.2129 97.5529 13.3376ZM102.516 10.4092C102.096 10.5623 101.707 10.789 101.366 11.0785C101.081 11.3052 100.752 11.4703 100.399 11.5635C100.047 11.6568 99.679 11.6761 99.3188 11.6202C99.3936 11.7655 99.4553 11.9197 99.5125 12.0606C99.6769 12.3651 99.8829 12.6452 100.125 12.8929C100.296 13.1175 100.451 13.3553 100.644 13.571C100.747 13.6829 100.864 13.7806 100.992 13.8617C101.905 13.901 102.817 13.7511 103.67 13.4213C104.345 13.1601 105.003 12.8586 105.642 12.5185L105.259 12.6286C104.817 12.7775 104.356 12.8679 103.89 12.8973C103.375 12.8935 102.86 12.8612 102.349 12.8004C102.111 12.7784 101.869 12.752 101.635 12.7167C101.404 12.6379 101.178 12.5468 100.957 12.4437C100.944 12.4437 100.932 12.4386 100.923 12.4295C100.914 12.4204 100.908 12.4081 100.908 12.3952C100.908 12.3824 100.914 12.3701 100.923 12.361C100.932 12.3519 100.944 12.3468 100.957 12.3468C101.108 12.3375 101.259 12.3647 101.397 12.4261C101.646 12.5102 101.906 12.5577 102.168 12.567C102.728 12.6088 103.29 12.6088 103.85 12.567C104.316 12.501 104.771 12.3721 105.202 12.1839C105.394 12.113 105.589 12.0527 105.788 12.0033C104.957 11.6101 104.198 11.0802 103.542 10.4356C103.208 10.3387 102.854 10.3296 102.516 10.4092ZM108.681 9.26422C108.002 9.56751 107.231 9.59436 106.532 9.33907C105.844 9.07132 105.237 8.62981 104.771 8.05761C104.533 7.79333 104.356 7.48126 104.249 7.14245C104.143 6.80364 104.11 6.44596 104.154 6.09354C104.241 5.73894 104.415 5.4116 104.661 5.14101C104.906 4.87042 105.214 4.66506 105.559 4.54344C105.675 4.49888 105.799 4.47649 105.924 4.47739L105.687 4.35848C105.284 4.13443 104.826 4.02907 104.365 4.05462C103.764 4.13022 103.203 4.39912 102.767 4.82088C102.328 5.26975 102.078 5.87071 102.071 6.49869C102.042 7.11939 102.141 7.73936 102.362 8.32031C102.582 8.90126 102.919 9.43084 103.353 9.87633C104.195 10.81 105.254 11.5235 106.435 11.9549C106.464 11.9645 106.49 11.9826 106.509 12.007C106.528 12.0313 106.539 12.0607 106.541 12.0914C107.34 11.7354 108.172 11.4567 109.025 11.2591C109.635 11.1103 110.265 11.0554 110.892 11.0962C111.569 11.1725 112.225 11.3772 112.825 11.6995C113.985 12.3019 115.014 13.1298 115.85 14.1347C116.232 14.5761 116.547 15.0699 116.788 15.6011C116.735 15.4206 116.683 15.2356 116.621 15.0507C116.359 14.4869 116.065 13.9385 115.74 13.4081C115.314 12.767 114.77 12.2126 114.137 11.7743C113.539 11.3587 112.879 11.0393 112.182 10.8275C111.363 10.631 110.512 10.601 109.681 10.7395C108.161 10.8892 106.563 11.0169 105.202 10.2066C104.632 9.85777 104.128 9.41047 103.714 8.88549C103.268 8.357 102.965 7.72336 102.833 7.04474C102.833 7.00952 102.873 7.00511 102.886 7.04474C103.174 7.75087 103.582 8.4019 104.092 8.96916C104.587 9.53438 105.198 9.98519 105.885 10.2903C107.417 10.942 109.205 10.4444 110.799 10.418C112.217 10.408 113.596 10.8731 114.719 11.7391C115.311 12.1959 115.803 12.7701 116.163 13.4257C116.123 13.2408 116.092 13.0514 116.062 12.862C116.013 12.545 115.978 12.2235 115.952 11.902C115.732 11.2017 115.371 10.5538 114.892 9.99794C114.412 9.44209 113.824 8.9901 113.164 8.66971C112.432 8.35168 111.619 8.27008 110.839 8.43632C110.093 8.64629 109.368 8.92339 108.672 9.26422H108.681ZM115.916 7.11521C115.828 6.75731 115.687 6.4145 115.498 6.09795C115.147 5.57744 114.68 5.14613 114.133 4.83848C113.593 4.54772 113.075 4.21804 112.583 3.85206C112.199 3.49092 111.899 3.05065 111.702 2.56177C111.702 2.74232 111.702 2.92728 111.658 3.09462C111.628 3.3815 111.565 3.66385 111.469 3.93573C111.212 4.44372 111.027 4.98458 110.918 5.54308C110.869 6.00356 110.931 6.46902 111.098 6.90093C111.265 7.33284 111.532 7.71878 111.878 8.02678C112.493 8.07775 113.092 8.24986 113.64 8.5332C114.42 8.93912 115.084 9.5379 115.568 10.2727L115.445 9.94239C115.207 9.36955 114.912 8.82218 114.564 8.30861C114.204 7.79216 113.805 7.30346 113.371 6.84659C113.094 6.42986 112.841 5.99759 112.614 5.5519C112.606 5.54131 112.602 5.52829 112.602 5.51507C112.603 5.50185 112.608 5.48923 112.617 5.47936C112.626 5.4695 112.637 5.463 112.651 5.46097C112.664 5.45893 112.677 5.4615 112.688 5.46822C113.129 5.74125 113.265 6.34897 113.622 6.73649C114.084 7.19891 114.511 7.69495 114.899 8.22054C115.272 8.75505 115.589 9.32607 115.846 9.92477C115.865 9.97529 115.881 10.0267 115.894 10.0789C115.894 9.57248 115.894 9.07045 115.894 8.57283C115.894 8.22934 115.925 7.88145 115.956 7.53796C115.952 7.39633 115.939 7.25511 115.916 7.11521ZM117.801 4.19995C117.607 3.53059 117.431 2.87884 117.268 2.17865C117.268 2.10819 117.237 2.03332 117.22 1.96286C117.193 2.44727 117.317 2.96691 117.321 3.43811C117.321 4.15151 117.387 4.86051 117.44 5.57391C117.576 7.11118 117.621 8.65525 117.572 10.1978C117.572 10.2106 117.567 10.223 117.558 10.2321C117.549 10.2411 117.537 10.2462 117.524 10.2462C117.511 10.2462 117.499 10.2411 117.489 10.2321C117.48 10.223 117.475 10.2106 117.475 10.1978C117.33 8.66531 117.224 7.1152 117.132 5.58712C117.083 4.83408 117.039 4.08546 117.044 3.33242C117.044 2.98453 116.995 2.62342 116.986 2.26672C116.907 2.47807 116.846 2.69622 116.806 2.91847C116.603 4.35849 116.366 6.0407 116.247 7.57319C116.257 7.73844 116.246 7.90439 116.211 8.06641C116.211 8.22935 116.189 8.39668 116.181 8.55521C116.096 9.97637 116.164 11.4025 116.383 12.8092C116.501 13.5065 116.666 14.195 116.876 14.8701C117.102 15.4622 117.195 16.0965 117.149 16.7285C117.192 16.9572 117.223 17.188 117.242 17.4199C117.337 18.3274 117.173 19.2433 116.771 20.0621C116.75 20.2124 116.713 20.36 116.661 20.5025C116.518 21.0018 116.518 21.5312 116.661 22.0306C116.777 22.5045 116.932 22.9684 117.123 23.4177C117.211 23.6467 117.317 23.8581 117.422 24.0915V24.1267C117.528 23.932 117.647 23.7451 117.779 23.5675C118.008 23.2466 118.215 22.9112 118.4 22.5634C118.582 22.1806 118.68 21.7631 118.686 21.3392C118.653 20.9601 118.57 20.587 118.44 20.2294C117.96 19.3855 117.759 18.4112 117.867 17.4463C117.9 16.9384 118.008 16.4382 118.189 15.9623C118.194 15.7826 118.225 15.6046 118.281 15.4338C118.36 15.1079 118.387 14.7556 118.453 14.421C118.585 13.7692 118.748 13.1219 118.893 12.4701C119.164 11.0754 119.164 9.64165 118.893 8.24696C118.604 6.87318 118.239 5.51627 117.801 4.18233V4.19995ZM124.354 5.54308C124.247 4.98404 124.062 4.44291 123.803 3.93573C123.711 3.66267 123.648 3.38079 123.614 3.09462C123.588 2.92728 123.588 2.74232 123.574 2.56177C123.375 3.0489 123.074 3.48852 122.694 3.85206C122.2 4.21808 121.68 4.54775 121.139 4.83848C120.592 5.14481 120.126 5.57644 119.778 6.09795C119.58 6.41232 119.432 6.75545 119.338 7.11521C119.299 7.44411 119.234 7.76947 119.144 8.08842C119.144 8.11484 119.144 8.14128 119.144 8.1677C119.278 8.7461 119.356 9.33594 119.378 9.92918C119.378 9.92918 119.378 9.92917 119.378 9.90715C119.635 9.30844 119.952 8.73743 120.324 8.20292C120.734 7.67505 121.183 7.17895 121.668 6.71887C122.02 6.34015 122.148 5.72363 122.601 5.45061C122.612 5.44584 122.625 5.44481 122.637 5.44766C122.649 5.45052 122.659 5.45711 122.667 5.46646C122.675 5.47582 122.68 5.48744 122.681 5.49964C122.681 5.51185 122.678 5.52399 122.672 5.53428C122.446 5.98088 122.193 6.41326 121.914 6.82897C121.482 7.28698 121.083 7.77559 120.721 8.291C120.371 8.80348 120.076 9.35103 119.84 9.92477C119.796 10.0349 119.756 10.145 119.717 10.2551C120.199 9.52047 120.862 8.92163 121.641 8.51558C122.189 8.23224 122.788 8.06013 123.403 8.00916C123.747 7.70029 124.013 7.31397 124.178 6.8821C124.343 6.45024 124.404 5.98524 124.354 5.52547V5.54308ZM133.196 6.51631C133.189 5.88931 132.941 5.28905 132.505 4.83848C132.077 4.4047 131.519 4.12189 130.915 4.03261C130.455 4.0073 129.997 4.11264 129.594 4.33647L129.356 4.45536C129.481 4.45414 129.605 4.47655 129.722 4.52142C130.066 4.64304 130.375 4.84839 130.62 5.11898C130.865 5.38958 131.039 5.71692 131.127 6.07153C131.171 6.42398 131.139 6.78188 131.033 7.12082C130.926 7.45977 130.748 7.77178 130.51 8.03558C130.044 8.60779 129.437 9.04931 128.749 9.31706C128.05 9.57234 127.279 9.54549 126.6 9.24219C125.895 8.88125 125.157 8.58641 124.398 8.36145C123.617 8.19521 122.805 8.27681 122.073 8.59484C121.426 8.90553 120.849 9.34385 120.376 9.88345C119.903 10.423 119.544 11.0528 119.32 11.7347C119.32 11.8668 119.29 11.9945 119.268 12.1222C119.188 12.6286 119.061 13.1219 118.942 13.6195C119.309 12.8544 119.848 12.1851 120.518 11.6642C121.641 10.7994 123.02 10.3345 124.438 10.3431C126.032 10.3695 127.82 10.8672 129.352 10.2154C130.039 9.90918 130.652 9.45859 131.149 8.89431C131.658 8.32698 132.064 7.6759 132.351 6.96989C132.351 6.94347 132.413 6.94787 132.408 6.96989C132.276 7.64851 131.973 8.28214 131.527 8.81064C131.112 9.33453 130.609 9.78166 130.039 10.1317C128.674 10.942 127.075 10.8143 125.56 10.6646C124.729 10.5262 123.879 10.5561 123.059 10.7527C122.362 10.9635 121.702 11.2831 121.104 11.6995C120.469 12.1353 119.925 12.6902 119.501 13.3332C119.217 13.7864 118.96 14.2554 118.73 14.738C118.883 14.5014 119.051 14.2749 119.232 14.0598C120.071 13.0559 121.101 12.2281 122.262 11.6246C122.861 11.303 123.516 11.0983 124.191 11.0213C124.819 10.9806 125.45 11.0355 126.062 11.1842C126.964 11.3869 127.842 11.682 128.683 12.065C128.679 12.052 128.679 12.0383 128.683 12.0253C128.68 11.9914 128.688 11.9575 128.706 11.9288C128.725 11.9002 128.752 11.8783 128.784 11.8668C129.965 11.4354 131.024 10.7219 131.867 9.78826C132.298 9.35776 132.639 8.84448 132.867 8.2792C133.096 7.71393 133.208 7.10831 133.196 6.49869V6.51631ZM135.156 12.9149C135.395 12.666 135.6 12.3861 135.764 12.0826C135.821 11.9373 135.883 11.7831 135.958 11.6422C135.598 11.6999 135.23 11.6815 134.878 11.5882C134.527 11.4949 134.198 11.3288 133.914 11.1006C133.572 10.8118 133.181 10.5853 132.761 10.4312C132.416 10.3491 132.056 10.3597 131.717 10.462C131.059 11.1058 130.298 11.6356 129.467 12.0297C129.666 12.0792 129.863 12.1395 130.057 12.2103C130.486 12.3991 130.94 12.528 131.404 12.5934C131.964 12.6352 132.526 12.6352 133.086 12.5934C133.349 12.5841 133.608 12.5366 133.857 12.4525C133.996 12.3918 134.146 12.3646 134.297 12.3732C134.31 12.3732 134.323 12.3783 134.332 12.3874C134.341 12.3965 134.346 12.4088 134.346 12.4217C134.346 12.4345 134.341 12.4468 134.332 12.4559C134.323 12.465 134.31 12.4701 134.297 12.4701C134.075 12.5732 133.847 12.6643 133.615 12.7431C133.381 12.7784 133.139 12.8048 132.906 12.8268C132.393 12.8877 131.877 12.9201 131.36 12.9237C130.894 12.8938 130.434 12.8035 129.991 12.6551C129.775 12.5879 129.556 12.5321 129.334 12.4877C130.015 12.8469 130.714 13.1674 131.431 13.4477C132.333 13.8083 133.306 13.9588 134.275 13.8881C134.398 13.8103 134.511 13.7171 134.61 13.6107C134.826 13.3597 134.98 13.1219 135.156 12.8973V12.9149ZM141.255 15.7553C142.134 14.7151 142.894 13.5808 143.523 12.3732C143.827 11.8316 144.113 11.2767 144.404 10.7395C144.695 10.2022 145.047 9.4756 145.509 9.15853C145.756 8.99227 146.015 8.84505 146.284 8.71816L146.135 8.75339C145.669 8.84597 145.223 9.01564 144.813 9.2554C144.021 9.75302 143.492 10.484 142.827 11.1446C142.783 11.1886 142.686 11.1446 142.717 11.0697C143.175 10.1498 143.895 9.38642 144.787 8.87669C145.267 8.62159 145.782 8.43904 146.315 8.33503L146.562 8.27338C146.408 8.27338 146.253 8.23816 146.121 8.23375C145.556 8.22104 144.993 8.29077 144.448 8.44073C143.51 8.64108 142.657 9.12542 142.004 9.82789C142.004 9.88514 142.004 9.94679 141.982 10.004C141.903 10.4092 141.295 10.4092 141.317 9.96881C141.354 9.54813 141.305 9.12427 141.171 8.72354C141.038 8.3228 140.824 7.95374 140.542 7.63925C140.277 7.34348 139.951 7.10793 139.587 6.94841C139.223 6.7889 138.83 6.70914 138.432 6.71447C137.609 6.75546 136.827 7.09153 136.231 7.66126C136.059 7.81817 135.91 7.99913 135.79 8.19851C135.959 8.04736 136.157 7.93322 136.373 7.86344C136.588 7.79366 136.816 7.76979 137.041 7.79338C137.621 7.85001 138.165 8.1053 138.579 8.51611C138.993 8.92691 139.252 9.46805 139.313 10.0481C139.454 11.4088 138.635 12.5626 137.552 13.3288C136.338 14.2192 134.841 14.6371 133.342 14.5046C132.415 14.3743 131.519 14.0759 130.7 13.6239C129.819 13.1615 129.009 12.5978 128.097 12.2191C127.183 11.8161 126.216 11.5448 125.226 11.4132C124.252 11.304 123.267 11.4929 122.403 11.9549C121.586 12.3793 120.837 12.9225 120.179 13.5666C119.511 14.1571 118.966 14.874 118.576 15.676C118.258 16.4524 118.124 17.292 118.184 18.1289C118.184 18.2962 118.197 18.4636 118.224 18.6309C118.369 16.5788 120.302 14.6984 122.161 13.9498C125.001 12.8048 128.066 13.5358 130.7 14.8922C131.49 15.3716 132.34 15.7448 133.227 16.0019C133.981 16.1487 134.757 16.1413 135.508 15.9799C136.919 15.7475 138.204 15.0294 139.141 13.9498C139.54 13.4176 139.822 12.8067 139.967 12.1576C140.112 11.5085 140.117 10.836 139.983 10.1846C139.899 9.54547 139.652 8.93876 139.265 8.42311C139.033 8.16555 138.749 7.96043 138.431 7.82146C138.114 7.68248 137.771 7.61286 137.424 7.61724C137.398 7.61207 137.375 7.59804 137.358 7.57756C137.341 7.55709 137.332 7.53143 137.332 7.50494C137.332 7.47845 137.341 7.45278 137.358 7.4323C137.375 7.41183 137.398 7.39781 137.424 7.39264C140.009 7.28255 140.634 10.3739 140.154 12.3864C139.569 14.8217 137.072 16.2045 134.716 16.3718C133.932 16.4402 133.143 16.3303 132.408 16.0503C131.554 15.7068 130.774 15.2092 129.947 14.8129C128.322 14.0422 126.468 13.4653 124.662 13.5798C122.948 13.6824 121.33 14.4075 120.113 15.6188C119.625 16.0924 119.238 16.6602 118.975 17.2876C118.713 17.9151 118.58 18.5893 118.585 19.2694C118.634 19.0834 118.696 18.9009 118.77 18.7234C118.826 18.5162 118.899 18.3143 118.99 18.1201C119.113 17.9219 119.25 17.7281 119.391 17.5388C119.73 17.0094 120.151 16.5368 120.637 16.1384C121.763 15.1317 123.242 14.611 124.75 14.6896C125.631 14.6739 126.505 14.8529 127.309 15.2136C127.414 15.2621 127.516 15.3237 127.617 15.3766C128.009 15.5131 128.361 15.6496 128.625 15.7685C130.281 16.4907 133.157 18.3535 134.94 18.327C137.081 18.2918 139.78 17.3979 141.255 15.7377V15.7553ZM130.589 17.5564C130.224 17.3098 129.797 17.0456 129.356 16.7857C129.885 17.3783 130.329 18.0406 130.678 18.7542H133.21C132.273 18.5021 131.387 18.091 130.589 17.5388V17.5564Z" fill="#55768C"/>
<path d="M94.0432 16.6184C94.6506 17.17 95.3456 17.6165 96.0998 17.9395C96.4741 18.0936 96.844 18.239 97.2227 18.3799C97.6014 18.5208 98.1035 18.6089 98.5174 18.7586V18.7938C97.6612 18.7066 96.8242 18.4837 96.0381 18.1333C95.3106 17.8025 94.6331 17.3711 94.0256 16.8518C93.4342 16.358 92.9062 15.793 92.4535 15.1696C91.9995 14.4502 91.6245 13.6839 91.335 12.8841C91.335 12.862 91.335 12.84 91.3702 12.8576C91.7841 13.5006 92.0572 14.2184 92.4799 14.8525C92.9267 15.503 93.4518 16.096 94.0432 16.6184Z" fill="#55768C"/>
<path d="M138.076 18.3623C138.459 18.2346 138.829 18.0893 139.203 17.9219C139.957 17.5979 140.652 17.1515 141.26 16.6008C141.855 16.0735 142.384 15.4744 142.832 14.8173C143.272 14.1832 143.528 13.4654 143.937 12.8224C143.937 12.8224 143.986 12.8224 143.977 12.8488C143.687 13.6487 143.312 14.415 142.858 15.1344C142.406 15.7578 141.878 16.3228 141.286 16.8166C140.683 17.3445 140.009 17.7848 139.283 18.1245C138.497 18.4754 137.66 18.6984 136.803 18.785C136.803 18.785 136.777 18.7542 136.803 18.7498C137.208 18.5913 137.653 18.5032 138.076 18.3623Z" fill="#55768C"/>
</svg>
