<svg viewBox="0 0 14 14" fill="none" xmlns="http://www.w3.org/2000/svg">
<path fill-rule="evenodd" clip-rule="evenodd" d="M10.6444 9.2585C10.5523 9.1523 10.4383 9.06713 10.3104 9.00876C10.1824 8.95039 10.0433 8.92018 9.90266 8.92018C9.76197 8.92018 9.62293 8.95039 9.49495 9.00876C9.36697 9.06713 9.25304 9.1523 9.16087 9.2585C8.81067 9.60204 8.46684 9.94622 8.123 10.2955C8.10764 10.3177 8.08804 10.3367 8.06531 10.3514C8.04259 10.3661 8.01719 10.3761 7.99057 10.381C7.96396 10.3858 7.93664 10.3854 7.9102 10.3797C7.88376 10.3739 7.85871 10.3631 7.83648 10.3477C7.61362 10.2255 7.37166 10.1263 7.16154 9.99266C6.1722 9.35371 5.29457 8.55677 4.5637 7.63366C4.18399 7.18453 3.87091 6.68317 3.63407 6.14497C3.609 6.10067 3.60036 6.04896 3.60967 5.99892C3.61899 5.94889 3.64567 5.90374 3.68501 5.87141C4.03521 5.53677 4.37268 5.1926 4.71014 4.84905C4.82218 4.75684 4.91241 4.64099 4.97435 4.50983C5.03629 4.37866 5.06841 4.23543 5.06841 4.09039C5.06841 3.94536 5.03629 3.80212 4.97435 3.67096C4.91241 3.53979 4.82218 3.42395 4.71014 3.33173L3.89513 2.51614C3.61497 2.23685 3.34118 1.95438 3.05465 1.67764C2.96202 1.57218 2.84794 1.48769 2.72002 1.4298C2.5921 1.37192 2.45329 1.34197 2.31286 1.34197C2.17244 1.34197 2.03363 1.37192 1.90571 1.4298C1.77779 1.48769 1.6637 1.57218 1.57108 1.67764C1.22088 2.02118 0.889777 2.37363 0.533209 2.71145C0.214925 3.00749 0.0252363 3.41623 0.00472509 3.85023C-0.0267536 4.56114 0.0993524 5.27021 0.374027 5.92676C0.902209 7.28916 1.66029 8.55099 2.61531 9.65739C3.87523 11.1668 5.44237 12.3908 7.21248 13.2481C8.00088 13.663 8.86498 13.9146 9.75303 13.9879C10.0497 14.0218 10.3502 13.9842 10.6293 13.8782C10.9085 13.7723 11.1582 13.6012 11.3576 13.3791C11.6505 13.0477 11.9879 12.7429 12.3063 12.4248C12.4156 12.3318 12.5034 12.2162 12.5636 12.086C12.6238 11.9558 12.655 11.8141 12.655 11.6706C12.655 11.5272 12.6238 11.3854 12.5636 11.2552C12.5034 11.125 12.4156 11.0094 12.3063 10.9164C11.7587 10.3655 11.1984 9.81198 10.6444 9.2585ZM10.0841 6.93767L11.1602 6.75381C10.9867 5.74741 10.4981 4.82198 9.76462 4.11076C9.03117 3.39954 8.09075 2.93921 7.07877 2.79606L6.92595 3.87759C7.70889 3.98769 8.43662 4.34336 9.00421 4.89332C9.57181 5.44329 9.94995 6.15914 10.0841 6.93767ZM11.7651 2.26611C10.5401 1.03204 8.94234 0.235609 7.21885 0L7.06604 1.08153C8.51727 1.2862 9.86616 1.94543 10.9187 2.96444C11.9713 3.98344 12.6734 5.30971 12.9239 6.75254L14 6.56868C13.7206 4.93731 12.9394 3.43344 11.7651 2.26611Z" fill="#EB8271"/>
</svg>
