<svg width="97" height="52" viewBox="0 0 97 52" fill="none" xmlns="http://www.w3.org/2000/svg">
<path fill-rule="evenodd" clip-rule="evenodd" d="M63.3248 7.52402L63.4614 7.64317L62.3028 8.78557L59.3242 5.89102L59.2087 5.99615C58.6136 6.54983 58.0361 7.12453 57.4201 7.65018C56.8439 8.15752 56.1411 8.49903 55.3865 8.63839C54.8056 8.76892 54.2006 8.74229 53.6334 8.56122C53.0663 8.38016 52.5575 8.0512 52.1593 7.60813C51.7104 7.10737 51.4247 6.48147 51.3403 5.81392C51.2419 5.24676 51.2914 4.66379 51.4838 4.12134C51.6344 3.69715 51.8857 3.31599 52.2162 3.01074C52.5467 2.70549 52.9464 2.48531 53.3809 2.36919C54.0049 2.17196 54.6666 2.12534 55.3121 2.23315C55.9575 2.34095 56.5683 2.60011 57.0946 2.98945C57.5205 3.29235 57.9198 3.63117 58.2881 4.0022L58.3931 4.10032C58.3931 4.05827 58.4246 4.03023 58.4316 4.0022C58.5611 3.53613 58.6906 3.07356 58.8166 2.60048C58.8382 2.50036 58.8476 2.39799 58.8446 2.2956C58.8446 2.16244 58.7711 2.08885 58.6416 2.10987C58.5042 2.13791 58.3687 2.17419 58.2356 2.21851L58.1026 2.26757C58.0221 2.12389 58.0256 2.1274 58.1586 2.06081L59.5762 1.35995L59.7022 1.29688C59.6637 1.44756 59.6322 1.57722 59.5972 1.70688C59.4033 2.5422 59.1483 3.36209 58.8341 4.15989C58.7256 4.41921 58.7221 4.41921 58.9286 4.61896L59.6637 5.34084L62.7788 2.18697H62.6563H61.5328C61.455 2.18772 61.3775 2.19712 61.3018 2.215C61.2347 2.22263 61.1712 2.24951 61.1191 2.29241C61.0669 2.33531 61.0282 2.3924 61.0077 2.4568C60.9587 2.59347 60.9027 2.72663 60.8502 2.8633C60.7977 2.99997 60.7977 3.01398 60.6227 2.98595C60.6211 2.95911 60.6211 2.93219 60.6227 2.90535C60.7452 2.50236 60.8747 2.09936 60.9937 1.69286C61.0217 1.59825 61.0672 1.57722 61.1582 1.58072H63.2583H63.7064L59.8072 5.43195C59.8217 5.45742 59.8393 5.48097 59.8597 5.50204L62.1348 7.69573C62.2339 7.78062 62.3392 7.85793 62.4498 7.92702C62.5088 7.97603 62.5831 8.00285 62.6598 8.00285C62.7365 8.00285 62.8108 7.97603 62.8698 7.92702C63.0133 7.81839 63.1463 7.69924 63.2863 7.57659L63.3248 7.52402ZM55.208 5.9611C55.2109 5.97732 55.2109 5.99395 55.208 6.01017C55.2322 6.15859 55.3035 6.29527 55.4112 6.40002C55.519 6.50478 55.6576 6.57204 55.8065 6.59188C56.053 6.64813 56.3095 6.64304 56.5536 6.57706C56.7976 6.51109 57.0218 6.38623 57.2066 6.21341C57.627 5.82539 57.9527 5.3458 58.1586 4.81169C58.1602 4.78918 58.157 4.76658 58.1492 4.74542C58.1413 4.72426 58.129 4.70503 58.1131 4.68904C57.5811 4.22647 57.0631 3.74288 56.51 3.30484C56.1087 2.97533 55.6392 2.73929 55.1355 2.61383C54.6319 2.48837 54.1067 2.47663 53.5979 2.57945C53.0526 2.67255 52.5541 2.94566 52.1817 3.35527C51.8094 3.76487 51.5847 4.28743 51.5433 4.83973C51.5029 5.25318 51.5548 5.67045 51.6953 6.06135C51.8357 6.45225 52.0612 6.80703 52.3553 7.1C52.72 7.48246 53.1625 7.78205 53.6528 7.97854C54.1432 8.17502 54.6699 8.26381 55.1975 8.2389C55.9388 8.23363 56.6597 7.99587 57.2591 7.55907C57.8314 7.11915 58.3696 6.63652 58.8691 6.11529C58.9776 6.00666 59.0966 5.90854 59.1772 5.83495L58.4071 4.98691H58.3826C58.3441 5.05699 58.3021 5.12708 58.2601 5.19717C57.9354 5.769 57.4735 6.25077 56.916 6.59889C56.5489 6.83465 56.107 6.92463 55.677 6.8512C55.5753 6.8471 55.4764 6.81633 55.3903 6.76196C55.3043 6.70758 55.2339 6.63152 55.1864 6.54139C55.1389 6.45125 55.1159 6.3502 55.1197 6.24836C55.1235 6.14652 55.1539 6.04747 55.208 5.9611Z" fill="#133C58"/>
<path fill-rule="evenodd" clip-rule="evenodd" d="M67.6651 6.74316C67.7316 6.65205 67.7841 6.56444 67.9137 6.58197C68.0432 6.59949 68.2637 6.63453 68.3617 6.81325C68.4056 6.92635 68.4373 7.04383 68.4562 7.16368C68.4614 7.21611 68.4614 7.26894 68.4562 7.32137H68.4877L68.5437 7.21975C68.8843 6.47629 69.3469 5.79521 69.9122 5.20477C70.2425 4.8955 70.6107 4.62939 71.0078 4.4128C71.0806 4.37289 71.1629 4.35351 71.2458 4.35673C71.3858 4.35673 71.4383 4.43032 71.4033 4.56349C71.3771 4.66323 71.3456 4.76149 71.3088 4.85785C71.1233 5.37999 70.9343 5.90914 70.7453 6.42077C70.7327 6.45829 70.7327 6.49888 70.7453 6.53641C70.7663 6.50838 70.7908 6.48385 70.8153 6.45581C71.2038 6.00025 71.5783 5.53768 71.9808 5.09614C72.2263 4.81452 72.5328 4.59278 72.8769 4.44784C73.0138 4.39532 73.1577 4.36343 73.3039 4.35323C73.4439 4.33571 73.5069 4.40579 73.4964 4.54947C73.492 4.63046 73.473 4.70999 73.4404 4.78426C73.2234 5.27836 72.9959 5.76897 72.7859 6.26658C72.5759 6.76419 72.3799 7.27582 72.1803 7.78044C72.1601 7.83335 72.1472 7.88875 72.1418 7.94514C72.1418 8.08181 72.2118 8.14839 72.3484 8.11685L72.4849 8.06779L72.6284 8.00121L72.7019 8.10984C72.3052 8.39295 71.8639 8.60736 71.3963 8.74412C71.4208 8.57241 71.4383 8.42873 71.4698 8.28506C71.6329 7.61634 71.8603 6.96501 72.1488 6.34017C72.3028 5.98974 72.4744 5.63931 72.6354 5.27136C72.6739 5.18375 72.7334 5.08913 72.6354 5.00853C72.5374 4.92793 72.4604 5.00853 72.3869 5.04708C71.9149 5.36315 71.5006 5.75784 71.1618 6.21401C70.6868 6.84857 70.3234 7.55964 70.0872 8.3166C70.0347 8.47429 70.0347 8.47429 69.8387 8.49532C69.9259 7.23683 70.2216 6.00163 70.7138 4.84033C70.6578 4.87187 70.5983 4.8999 70.5423 4.93494C70.1745 5.18491 69.8574 5.50239 69.6077 5.87059C69.0875 6.62446 68.6631 7.44023 68.3442 8.29907C68.3277 8.36935 68.2911 8.4333 68.2389 8.48309C68.1866 8.53287 68.1211 8.56635 68.0502 8.57942C67.8954 8.62198 67.7444 8.67706 67.5986 8.74412C67.6301 8.67053 67.6546 8.60395 67.6826 8.53737C67.8228 8.20858 67.9102 7.85969 67.9417 7.5036C67.9663 7.3637 67.9537 7.21978 67.9051 7.0863C67.8566 6.95282 67.7738 6.83448 67.6651 6.74316Z" fill="#133C58"/>
<path fill-rule="evenodd" clip-rule="evenodd" d="M84.7251 8.72662L85.0751 7.93115C85.6771 6.58549 86.2792 5.23984 86.7657 3.84513C86.9022 3.45615 86.9967 3.05315 87.1157 2.65717C87.1384 2.57505 87.149 2.49005 87.1472 2.40486C87.1472 2.22263 87.0352 2.14204 86.8567 2.1911C86.7552 2.21913 86.6572 2.25417 86.5557 2.28571C86.4822 2.15605 86.4892 2.15956 86.6187 2.10349C87.0107 1.92827 87.4027 1.75306 87.7913 1.56032L87.9243 1.49023C87.9033 1.64793 87.8893 1.7846 87.8718 1.92126C87.7392 2.60435 87.5253 3.26907 87.2347 3.9012C86.9827 4.52146 86.7342 5.14522 86.4857 5.76549C86.4729 5.80417 86.4729 5.84595 86.4857 5.88463C86.5417 5.81805 86.5977 5.75497 86.6572 5.6919C87.0265 5.25664 87.4787 4.89927 87.9873 4.6406C88.3453 4.46228 88.7428 4.37788 89.1423 4.3953C89.2038 4.38946 89.2657 4.39999 89.3217 4.42582C89.3778 4.45165 89.4261 4.49187 89.4616 4.54239C89.4971 4.59292 89.5187 4.65195 89.5241 4.71351C89.5295 4.77507 89.5185 4.83696 89.4923 4.89291C89.423 5.12267 89.2773 5.32176 89.0793 5.45711C88.6396 5.82704 88.1112 6.07585 87.5462 6.17899C87.4506 6.18431 87.3548 6.18431 87.2592 6.17899H87.1402L87.1857 6.24558C87.3086 6.38884 87.3993 6.55681 87.4518 6.73816C87.5044 6.91951 87.5175 7.11003 87.4902 7.29687C87.4669 7.5672 87.4576 7.83856 87.4622 8.10987C87.4622 8.33064 87.6372 8.43577 87.8578 8.36568C88.0045 8.31777 88.1289 8.21815 88.2078 8.08534C88.3163 7.90311 88.4108 7.71388 88.5123 7.52815C88.5437 7.46507 88.5812 7.40521 88.6243 7.34943C88.6725 7.51213 88.6638 7.68641 88.5998 7.84354C88.485 8.08202 88.3148 8.2895 88.1035 8.44863C87.8922 8.60775 87.6459 8.71389 87.3852 8.75816C87.319 8.77578 87.2495 8.77692 87.1828 8.76147C87.116 8.74602 87.054 8.71446 87.0023 8.66953C86.9505 8.62461 86.9105 8.56769 86.8857 8.50373C86.861 8.43978 86.8522 8.37073 86.8602 8.3026C86.8602 7.99773 86.9127 7.69285 86.9302 7.38798C86.9442 7.20836 86.9442 7.02793 86.9302 6.84832C86.929 6.71571 86.8803 6.58795 86.7929 6.48827C86.7055 6.38859 86.5854 6.32361 86.4542 6.30515C86.6009 6.16627 86.7866 6.07576 86.9862 6.04583C87.2312 6.01429 87.4797 6.00728 87.7178 5.95472C88.0532 5.88958 88.3622 5.72756 88.6068 5.48865C88.6813 5.41794 88.7394 5.33168 88.7769 5.236C88.8144 5.14031 88.8304 5.03754 88.8238 4.93497C88.8267 4.86861 88.8033 4.80381 88.7587 4.7546C88.7142 4.7054 88.652 4.67577 88.5858 4.67214C88.4379 4.65701 88.2888 4.68372 88.1553 4.74924C87.8206 4.90985 87.5144 5.1241 87.2487 5.38352C86.9442 5.66386 86.6537 5.95121 86.3702 6.24558C86.2901 6.3309 86.2271 6.43083 86.1847 6.53994C85.9257 7.1637 85.6736 7.79097 85.4216 8.42175C85.4148 8.45205 85.3998 8.47988 85.3782 8.50214C85.3565 8.52441 85.3292 8.54025 85.2991 8.5479L84.8161 8.70209L84.7251 8.72662Z" fill="#133C58"/>
<path fill-rule="evenodd" clip-rule="evenodd" d="M76.8285 8.03591L76.888 8.13753C76.4524 8.44835 75.9543 8.66005 75.4284 8.7578C75.4529 8.64215 75.4704 8.54053 75.4984 8.44241C75.7323 7.71987 76.0226 7.01685 76.3665 6.33983C76.531 5.9894 76.7165 5.63896 76.8705 5.31306C76.9126 5.22471 76.9398 5.12998 76.951 5.03272C76.951 4.92058 76.902 4.87152 76.7935 4.89605C76.7035 4.9164 76.6173 4.95069 76.538 4.99768C76.2098 5.21134 75.911 5.46698 75.6489 5.75811C74.9138 6.53202 74.3213 7.43014 73.8988 8.41087C73.8858 8.44612 73.8638 8.47731 73.8349 8.5013C73.806 8.52529 73.7713 8.54124 73.7343 8.54754C73.5558 8.6001 73.3843 8.67019 73.1953 8.73677C73.2548 8.60711 73.3143 8.48446 73.3738 8.36531C73.7601 7.58639 74.1048 6.78745 74.4064 5.97187C74.4939 5.70427 74.5652 5.4316 74.6199 5.15537C74.6654 4.94511 74.5639 4.8575 74.3539 4.90656L74.0809 4.96614C74.0599 4.89956 74.0319 4.8505 74.1264 4.81545L75.3479 4.3669L75.4389 4.33887C75.4344 4.45703 75.418 4.57444 75.3899 4.6893C75.2079 5.19742 75.0154 5.70204 74.8264 6.20316C74.7844 6.31529 74.7319 6.42042 74.6829 6.52906H74.7074C74.7336 6.5051 74.7582 6.47934 74.7809 6.45196C75.2758 5.86477 75.8254 5.32617 76.4225 4.84349C76.6837 4.63381 76.9851 4.47996 77.308 4.39143L77.455 4.37041C77.6895 4.34237 77.777 4.45451 77.7525 4.69631C77.7199 4.9846 77.6243 5.26217 77.4725 5.50931C77.0706 6.16695 76.7106 6.84931 76.3945 7.55231C76.3337 7.69462 76.2868 7.8425 76.2545 7.99386C76.2195 8.14454 76.3105 8.22865 76.461 8.18659C76.5861 8.14314 76.7088 8.09283 76.8285 8.03591Z" fill="#133C58"/>
<path fill-rule="evenodd" clip-rule="evenodd" d="M80.9341 8.2464L81.0041 8.36554C80.7277 8.56061 80.4263 8.71739 80.108 8.83161C80.0667 8.85027 80.0215 8.85873 79.9762 8.85628C79.931 8.85384 79.8869 8.84056 79.8478 8.81756C79.8088 8.79456 79.7758 8.76252 79.7516 8.72411C79.7274 8.6857 79.7128 8.64205 79.709 8.59683C79.6708 8.3653 79.6567 8.13041 79.667 7.89597C79.6883 7.41651 79.7852 6.94343 79.954 6.49424C80.1325 6.02817 80.332 5.56911 80.521 5.09252L80.5735 4.95936L80.5525 4.93483C80.4755 4.96987 80.395 4.99791 80.318 5.03996C80.0201 5.21838 79.7626 5.45709 79.562 5.74082C79.0574 6.44414 78.6457 7.20973 78.3369 8.01862C78.2809 8.15528 78.2354 8.29195 78.1794 8.42512C78.1646 8.45858 78.1386 8.48583 78.1059 8.50221C77.9099 8.5723 77.7139 8.63537 77.5039 8.70196L77.5494 8.58631C77.7288 8.19417 77.8276 7.76992 77.8399 7.33878C77.849 7.22242 77.8298 7.10559 77.7841 6.99822C77.7384 6.89085 77.6675 6.7961 77.5774 6.72202C77.6614 6.56433 77.7244 6.53279 77.8889 6.56433C78.0183 6.57069 78.1399 6.62808 78.2271 6.72396C78.3144 6.81983 78.3602 6.94639 78.3544 7.07596C78.3544 7.15305 78.3719 7.23015 78.3859 7.33878L78.463 7.20562C78.7728 6.58557 79.1445 5.99853 79.5725 5.45347C79.8678 5.08208 80.2226 4.76234 80.6225 4.5073C80.7823 4.40461 80.9682 4.34988 81.1581 4.34961C81.2841 4.34961 81.3261 4.38115 81.3121 4.5038C81.2927 4.63227 81.2587 4.75809 81.2106 4.87876C81.0776 5.18714 80.9271 5.48851 80.7871 5.79338C80.5431 6.28001 80.38 6.80315 80.304 7.34229C80.2789 7.60782 80.2696 7.87462 80.276 8.14127C80.2797 8.19831 80.2939 8.25416 80.318 8.30597C80.326 8.33075 80.3391 8.35355 80.3566 8.37281C80.3741 8.39208 80.3955 8.40737 80.4194 8.41767C80.4432 8.42796 80.469 8.43301 80.495 8.43248C80.521 8.43195 80.5466 8.42586 80.57 8.4146C80.6855 8.36905 80.8081 8.30597 80.9341 8.2464Z" fill="#133C58"/>
<path fill-rule="evenodd" clip-rule="evenodd" d="M65.7224 6.26227C65.7059 6.17113 65.7102 6.07743 65.7351 5.98821C65.76 5.89899 65.8047 5.81657 65.8659 5.74713C66.034 5.52331 66.2522 5.34207 66.5029 5.21798C66.5726 5.1825 66.6468 5.15656 66.7234 5.14089C66.8075 5.12127 66.8949 5.121 66.9791 5.1401C67.0632 5.1592 67.142 5.19716 67.2094 5.25114C67.2768 5.30512 67.331 5.3737 67.3681 5.45172C67.4052 5.52974 67.4241 5.61517 67.4235 5.70158C67.439 6.05626 67.3488 6.40755 67.1645 6.71082C66.9001 7.15134 66.5628 7.54358 66.1669 7.87074C65.8741 8.14925 65.5385 8.37879 65.1729 8.55058C64.9794 8.63484 64.7759 8.69373 64.5673 8.72579C64.3915 8.74266 64.216 8.69025 64.0781 8.57967C63.9402 8.4691 63.8508 8.30907 63.8288 8.13356C63.7908 7.75517 63.8523 7.37341 64.0073 7.0262C64.258 6.45577 64.6322 5.94826 65.1029 5.54038C65.6647 5.02334 66.3509 4.6611 67.0945 4.48909C67.2418 4.45757 67.3918 4.43997 67.5425 4.43652C67.6265 4.43652 67.7245 4.45755 67.735 4.55217C67.7358 4.65125 67.7192 4.7497 67.686 4.84302C67.686 4.86054 67.5985 4.84302 67.5495 4.84302C67.2727 4.8383 66.9958 4.84766 66.7199 4.87106C66.3639 4.91706 66.0234 5.04513 65.7252 5.24518C65.427 5.44523 65.1792 5.71182 65.0013 6.02397C64.7013 6.51195 64.5026 7.0554 64.4168 7.62194C64.3994 7.71574 64.3994 7.81198 64.4168 7.90578C64.4274 7.99163 64.458 8.0738 64.506 8.14571C64.554 8.21761 64.6182 8.27724 64.6934 8.31983C64.7686 8.36242 64.8527 8.38677 64.939 8.39094C65.0253 8.3951 65.1114 8.37897 65.1904 8.34382C65.3471 8.29201 65.4922 8.20986 65.6174 8.10203C66.1709 7.63281 66.5749 7.01147 66.7794 6.31483C66.8423 6.13 66.8567 5.93214 66.8214 5.74012C66.8183 5.69109 66.803 5.64361 66.7769 5.60202C66.7508 5.56043 66.7147 5.52604 66.6719 5.502C66.6291 5.47797 66.5809 5.46504 66.5319 5.46439C66.4828 5.46375 66.4343 5.47542 66.3909 5.49833C66.2287 5.56204 66.0913 5.6763 65.9989 5.82423C65.9009 5.9644 65.8169 6.11158 65.7224 6.26227Z" fill="#133C58"/>
<path fill-rule="evenodd" clip-rule="evenodd" d="M82.8452 5.94734C83.0237 5.94734 83.1952 5.94734 83.3387 5.94734C83.5546 5.94466 83.7673 5.89427 83.9615 5.79977C84.1557 5.70527 84.3267 5.56899 84.4623 5.40067C84.552 5.29885 84.6029 5.16849 84.6058 5.03272C84.6058 4.82947 84.5218 4.73836 84.3153 4.72434C84.0986 4.71687 83.8845 4.7729 83.6992 4.88554C83.4241 5.05879 83.1861 5.28513 82.9992 5.55136C82.6011 6.03514 82.3121 6.59937 82.1522 7.20539C82.105 7.42305 82.0804 7.64499 82.0787 7.8677C82.0787 8.2707 82.3132 8.45993 82.7087 8.38284C83.0927 8.28777 83.4339 8.06699 83.6782 7.75556C83.9819 7.40426 84.2298 7.00832 84.4133 6.58162C84.4267 6.54816 84.4419 6.51541 84.4588 6.4835C84.5155 6.5912 84.5293 6.71646 84.4973 6.83393C84.4421 7.08318 84.3212 7.31308 84.1472 7.49975C83.7323 8.00532 83.2112 8.41328 82.6212 8.69472C82.4649 8.75936 82.2996 8.79954 82.1312 8.81387C82.0494 8.8217 81.9668 8.81229 81.8889 8.78623C81.811 8.76017 81.7393 8.71805 81.6787 8.66258C81.618 8.60711 81.5696 8.53953 81.5366 8.46418C81.5036 8.38884 81.4867 8.30741 81.4871 8.22514C81.4844 7.79975 81.5702 7.37847 81.7391 6.98812C81.9351 6.42372 82.2505 5.90831 82.6637 5.4771C83.0769 5.0459 83.5781 4.70904 84.1332 4.48955C84.3542 4.39296 84.5922 4.34172 84.8333 4.33887C85.1448 4.33887 85.2603 4.49306 85.1833 4.79793C85.137 4.985 85.0387 5.15511 84.8998 5.28853C84.4898 5.71685 83.9625 6.01432 83.3842 6.14358C83.2821 6.15933 83.1783 6.15933 83.0762 6.14358C83.0234 6.13532 82.9739 6.11262 82.9331 6.078C82.8924 6.04338 82.8619 5.99817 82.8452 5.94734Z" fill="#133C58"/>
<path fill-rule="evenodd" clip-rule="evenodd" d="M92.2116 6.59273C92.2239 6.69046 92.2239 6.78936 92.2116 6.88709C92.1758 7.03016 92.1167 7.16632 92.0366 7.29008C91.6182 7.90465 91.0379 8.39107 90.36 8.69531C90.1401 8.79254 89.8996 8.83348 89.66 8.81446C89.5121 8.81201 89.3706 8.75352 89.2641 8.65077C89.1576 8.54802 89.0939 8.40866 89.0859 8.26078C89.0412 7.84 89.1152 7.41509 89.2995 7.03427C89.7947 5.91137 90.6946 5.01668 91.8196 4.52869C92.1122 4.40211 92.4283 4.33882 92.7471 4.34297H92.9151C92.8906 4.39553 92.8801 4.42707 92.8626 4.46211C92.6561 4.84408 92.4496 5.22605 92.2501 5.61152C92.2433 5.63204 92.2322 5.65085 92.2175 5.66669C92.2029 5.68254 92.185 5.69504 92.1651 5.70334C92.1451 5.71165 92.1237 5.71558 92.1021 5.71485C92.0805 5.71412 92.0594 5.70876 92.0401 5.69913C92.0576 5.65358 92.0786 5.60451 92.0996 5.55896C92.1451 5.43981 92.1941 5.32417 92.2326 5.20853C92.2711 5.09289 92.2326 4.94921 92.0611 4.91066C91.8005 4.85212 91.5276 4.88814 91.291 5.01229C91.1079 5.09853 90.9419 5.21726 90.801 5.36272C90.333 5.85827 89.9909 6.45921 89.8035 7.11487C89.721 7.38981 89.7042 7.68029 89.7545 7.96291C89.7745 8.06489 89.8303 8.15632 89.9119 8.22061C89.9934 8.2849 90.0953 8.3178 90.199 8.31334C90.4328 8.31257 90.6636 8.26002 90.8748 8.15945C91.086 8.05888 91.2724 7.91278 91.4205 7.73163C91.7018 7.41565 91.9374 7.06178 92.1206 6.68034C92.1381 6.64529 92.1591 6.61375 92.1766 6.58222L92.2116 6.59273Z" fill="#133C58"/>
<path fill-rule="evenodd" clip-rule="evenodd" d="M12.555 4.80862C12.345 4.80862 12.1525 4.80862 11.9635 4.80862C11.932 4.80862 11.8899 4.86469 11.8724 4.90324C11.6064 5.49196 11.3509 6.08769 11.0814 6.67642C10.7666 7.38106 10.2863 7.99903 9.68135 8.47763C9.53833 8.60264 9.36191 8.68304 9.17382 8.70891C9.29633 8.59327 9.39433 8.49515 9.50284 8.40404C10.079 7.92331 10.5174 7.29813 10.7734 6.59231C10.9764 6.05265 11.1934 5.51299 11.4034 4.97332C11.4034 4.94529 11.4034 4.91025 11.4349 4.8682C11.2214 4.8682 11.0254 4.8682 10.8294 4.8682C10.7944 4.8682 10.7489 4.92426 10.7314 4.96281C10.1863 6.05189 9.38807 6.99407 8.40379 7.71019C7.75636 8.21637 6.99409 8.55462 6.18468 8.6949C5.68279 8.80422 5.16328 8.80416 4.66141 8.69472C4.15954 8.58528 3.68706 8.36902 3.27605 8.06062C2.98026 7.84589 2.72991 7.5746 2.53946 7.26243C2.34902 6.95026 2.22225 6.60339 2.1665 6.24188C1.93198 4.64742 2.84203 3.50853 4.17209 3.22117C4.87543 3.07316 5.60794 3.16314 6.25469 3.47699C7.18765 3.9195 8.00852 4.56762 8.6558 5.37282C8.7363 5.46743 8.81331 5.56906 8.89381 5.66718C8.89381 5.66718 8.89381 5.66718 8.91131 5.66718C8.97626 5.60205 9.02362 5.52148 9.04894 5.43301C9.07426 5.34454 9.07671 5.25108 9.05607 5.1614C9.03543 5.07172 8.99236 4.98876 8.93092 4.92031C8.86947 4.85186 8.79167 4.80017 8.7048 4.77007C8.7573 4.56332 8.8098 4.35657 8.86931 4.14981C8.87926 4.13584 8.89238 4.12442 8.90759 4.11651C8.9228 4.10859 8.93967 4.10439 8.95681 4.10426C9.47134 4.14631 9.98236 4.18836 10.4934 4.23742C10.5669 4.23742 10.5984 4.23742 10.6124 4.15682C10.6754 3.87297 10.7559 3.59263 10.7944 3.30878C10.8671 2.82495 10.8337 2.33107 10.6964 1.8615C10.5843 1.43645 10.3266 1.06435 9.96836 0.810211C9.86092 0.723397 9.73476 0.662829 9.59988 0.633306C9.465 0.603783 9.32511 0.606116 9.19129 0.640121C9.05747 0.674126 8.9334 0.738868 8.82891 0.829217C8.72441 0.919566 8.64238 1.03304 8.58929 1.16064C8.4462 1.47267 8.35742 1.80688 8.32678 2.14885C8.29625 2.45049 8.21705 2.74518 8.09227 3.02143C8.04143 3.12932 7.97412 3.22863 7.89276 3.31579C7.82455 3.39208 7.7339 3.44472 7.63389 3.46613C7.53387 3.48755 7.42965 3.47662 7.33624 3.43493C7.23617 3.40281 7.14724 3.34297 7.07972 3.26236C7.0122 3.18174 6.96887 3.08363 6.95472 2.97938C6.94743 2.88724 6.94743 2.79467 6.95472 2.70253C7.00492 2.72329 7.05399 2.74669 7.10173 2.77262C7.19963 2.83729 7.3126 2.87546 7.42963 2.88342C7.54666 2.89138 7.66374 2.86885 7.76949 2.81804C7.87523 2.76722 7.96603 2.68984 8.03302 2.59345C8.10002 2.49706 8.14093 2.38493 8.15177 2.268C8.18626 2.00614 8.23534 1.74642 8.29878 1.49005C8.37568 1.20395 8.53664 0.947567 8.7608 0.754142C8.9549 0.582226 9.20195 0.482051 9.46084 0.470293C9.88107 0.438471 10.2987 0.55954 10.6369 0.811255C10.9751 1.06297 11.2112 1.42842 11.3019 1.84048C11.4558 2.41611 11.4437 3.02362 11.2669 3.59263C11.2039 3.8134 11.1374 4.03067 11.0604 4.29349C11.2634 4.29349 11.4524 4.29349 11.6379 4.29349C11.6659 4.29349 11.7044 4.23392 11.7184 4.19537C11.9144 3.72229 12.1035 3.24921 12.296 2.77262C12.3033 2.74212 12.3195 2.71449 12.3426 2.69326C12.3656 2.67204 12.3945 2.65819 12.4255 2.65347C12.5275 2.63103 12.6232 2.58602 12.7055 2.52174C12.7879 2.45747 12.8548 2.37556 12.9015 2.28202C13.1243 1.92588 13.3175 1.55199 13.479 1.16415C13.626 0.813715 13.787 0.442259 13.941 0.0813153C13.9655 0.0287507 13.983 -0.0273182 14.0845 0.0147335C13.4545 1.43748 12.828 2.86373 12.1945 4.304C12.3975 4.304 12.5795 4.304 12.7615 4.304C12.793 4.304 12.828 4.24793 12.849 4.21289C13.0835 3.8134 13.297 3.4034 13.549 3.01792C13.973 2.45371 14.5124 1.98657 15.1311 1.64774C15.5583 1.37561 16.0335 1.18768 16.5312 1.09406C16.9464 1.00106 17.3799 1.03275 17.7772 1.18517C17.8903 1.22361 17.9938 1.28584 18.0808 1.36766C18.1679 1.44948 18.2364 1.54901 18.2818 1.65955C18.3272 1.7701 18.3485 1.88909 18.3442 2.00855C18.3399 2.128 18.31 2.24514 18.2567 2.3521C18.0664 2.77802 17.7609 3.14216 17.3747 3.4034C16.8223 3.7977 16.2051 4.09185 15.5511 4.27246C14.8555 4.48123 14.1437 4.63127 13.423 4.72101C13.3285 4.72101 13.234 4.74204 13.143 4.76307C13.1254 4.76731 13.109 4.77551 13.0951 4.78705C13.0811 4.79858 13.07 4.81315 13.0625 4.82965C12.8542 5.53243 12.8158 6.27474 12.9505 6.99531C13.0125 7.31945 13.177 7.61503 13.4196 7.83841C13.6623 8.06179 13.9702 8.20113 14.2981 8.23583C14.9203 8.35252 15.5634 8.2177 16.0866 7.86087C16.3299 7.68617 16.534 7.46251 16.6859 7.20423C16.8378 6.94595 16.9341 6.65875 16.9687 6.36103C16.9687 6.2524 16.9967 6.14026 17.0107 6.0106C17.0721 6.08507 17.1175 6.17145 17.144 6.26432C17.1705 6.35719 17.1775 6.45454 17.1647 6.55026C17.1196 6.97944 16.9351 7.38197 16.6397 7.69617C16.2001 8.2272 15.5968 8.59699 14.9246 8.74746C14.59 8.82805 14.2417 8.83209 13.9053 8.75929C13.569 8.68648 13.2534 8.53871 12.982 8.32694C12.6064 8.0128 12.3659 7.56617 12.31 7.07941C12.2127 6.37678 12.2884 5.661 12.5305 4.99435C12.5305 4.92076 12.555 4.8717 12.555 4.80862ZM9.19482 4.84016C9.20831 5.44617 9.12077 6.05018 8.93581 6.62736L8.86581 6.55026C8.54729 6.1753 8.24278 5.78983 7.91026 5.42888C7.37852 4.82544 6.74901 4.31603 6.04818 3.92203C5.48353 3.58399 4.82802 3.42971 4.17209 3.48049C3.83168 3.50601 3.50534 3.62704 3.23047 3.82972C2.95561 4.03239 2.74335 4.3085 2.61802 4.6264C2.50384 4.91121 2.4475 5.21596 2.45231 5.52282C2.45712 5.82968 2.52297 6.1325 2.64602 6.41359C2.91284 7.07791 3.42756 7.6121 4.08108 7.90292C4.87426 8.29174 5.77137 8.41461 6.6397 8.25335C7.55458 8.09647 8.38963 7.63461 9.00931 6.94274C9.54801 6.35696 9.98354 5.68393 10.2974 4.9523C10.3073 4.92628 10.3143 4.89925 10.3184 4.8717L9.19482 4.84016ZM13.2095 4.29349H13.3915C14.0325 4.27715 14.6708 4.20445 15.2991 4.07622C15.9393 3.96059 16.5513 3.72264 17.1017 3.37536C17.4118 3.17066 17.6551 2.87949 17.8017 2.53783C17.8817 2.36238 17.9038 2.166 17.8647 1.97714C17.8321 1.8515 17.7666 1.73686 17.6749 1.64506C17.5832 1.55327 17.4687 1.48765 17.3432 1.455C16.9212 1.31699 16.4693 1.2988 16.0376 1.40244C15.4014 1.52619 14.824 1.85772 14.3961 2.3451C13.9071 2.90934 13.5134 3.5497 13.2305 4.24093C13.2222 4.25423 13.2151 4.26831 13.2095 4.28298V4.29349Z" fill="#133C58"/>
<path fill-rule="evenodd" clip-rule="evenodd" d="M37.1403 5.50596C37.3083 5.35878 37.4518 5.22912 37.6023 5.10647C38.0297 4.76189 38.5361 4.52944 39.0759 4.43014C39.1918 4.41154 39.3099 4.41154 39.4259 4.43014C39.5158 4.4452 39.5973 4.49201 39.6558 4.56208C39.7142 4.63214 39.7456 4.72084 39.7444 4.81211C39.7539 5.23272 39.6315 5.64575 39.3944 5.99306C39.0774 6.50213 38.683 6.95852 38.2253 7.34572C37.6053 7.91741 36.8666 8.34463 36.0622 8.59676C35.7513 8.68865 35.4305 8.74277 35.1067 8.75796C35.0846 8.76117 35.0622 8.76117 35.0402 8.75796C35.0612 8.7124 35.0752 8.67385 35.0927 8.63531C35.5547 7.6506 36.0237 6.66238 36.4927 5.67417C36.5732 5.50596 36.6222 5.32374 36.6922 5.15203C36.9291 4.60737 37.2286 4.09225 37.5848 3.61714C38.0558 2.93894 38.712 2.41093 39.4749 2.09627L39.6464 2.01567C39.6464 2.01567 39.6464 1.99815 39.6744 1.98414C39.6149 1.9561 39.5624 1.93157 39.5064 1.91055C38.8815 1.64574 38.2286 1.45293 37.5603 1.33584C37.1884 1.26051 36.8052 1.26051 36.4332 1.33584C36.1735 1.40058 35.9349 1.53138 35.7405 1.71557C35.5461 1.89975 35.4026 2.13107 35.3237 2.38713C35.1679 2.84657 35.1153 3.33476 35.1697 3.81689C35.1697 3.86244 35.1697 3.9115 35.1697 3.98509C35.1176 3.93427 35.0685 3.88045 35.0227 3.8239C34.938 3.70822 34.8779 3.57642 34.846 3.4366C34.814 3.29678 34.8111 3.15191 34.8372 3.0109C34.8682 2.56188 35.0551 2.13788 35.3657 1.81242C35.7491 1.40271 36.2446 1.11508 36.7902 0.985409C37.3642 0.871105 37.9571 0.896342 38.5193 1.059C39.1596 1.22966 39.7857 1.44993 40.3919 1.71781C40.448 1.73351 40.5073 1.73351 40.5634 1.71781C41.2797 1.5429 42.0138 1.45119 42.751 1.44447C43.302 1.43413 43.8477 1.5542 44.3436 1.7949C44.4907 1.86865 44.6198 1.97394 44.7216 2.10328C44.7746 2.16828 44.812 2.24463 44.8308 2.3264C44.8496 2.40817 44.8493 2.49318 44.83 2.57484C44.8107 2.6565 44.7729 2.73262 44.7195 2.7973C44.6661 2.86198 44.5986 2.91348 44.5221 2.94782C44.2883 3.03605 44.0469 3.1029 43.8011 3.14756C43.5771 3.20714 43.3531 3.25269 43.1255 3.29825C43.0832 3.31042 43.0384 3.31042 42.996 3.29825L40.0594 2.12431C40.0197 2.10694 39.9768 2.09798 39.9334 2.09798C39.89 2.09798 39.8471 2.10694 39.8074 2.12431C38.9567 2.46489 38.2504 3.09032 37.8088 3.89398C37.5326 4.36681 37.3151 4.87167 37.1613 5.39733C37.1543 5.43237 37.1508 5.4569 37.1403 5.50596ZM35.8032 8.23932H35.8452H35.9292C36.4197 8.23524 36.8977 8.08387 37.3013 7.80479C37.9731 7.32185 38.4949 6.65855 38.8063 5.89144C38.9157 5.65339 38.9673 5.39282 38.9569 5.131C38.959 5.05412 38.9321 4.97926 38.8815 4.92143C38.8308 4.86359 38.7602 4.82704 38.6838 4.81912C38.5146 4.7974 38.3426 4.82287 38.1868 4.89271C37.8854 5.02388 37.6183 5.22295 37.4063 5.47442C36.7122 6.26337 36.1709 7.17484 35.8102 8.16222C35.805 8.18758 35.8027 8.21344 35.8032 8.23932ZM40.8189 1.84747C40.8189 1.84747 40.8189 1.872 40.8189 1.88601C40.8344 1.89885 40.8508 1.91056 40.8679 1.92106C41.6286 2.26482 42.4108 2.55864 43.2095 2.80064C43.5299 2.91116 43.869 2.95644 44.2071 2.9338C44.4731 2.90226 44.6306 2.74107 44.5746 2.51329C44.547 2.39702 44.4848 2.29191 44.3961 2.21192C44.2694 2.10458 44.128 2.01607 43.9761 1.94909C43.5322 1.76482 43.0565 1.66957 42.576 1.66875C42.2969 1.65761 42.0174 1.66581 41.7395 1.69328C41.4315 1.72482 41.127 1.7914 40.8189 1.84747Z" fill="#133C58"/>
<path fill-rule="evenodd" clip-rule="evenodd" d="M22.4497 5.06409L22.4007 4.92391L23.6572 4.3457L23.6957 4.36673C23.6919 4.49073 23.6755 4.61402 23.6467 4.73468C23.5067 5.17272 23.3527 5.60725 23.2057 6.04529C23.1865 6.08816 23.1781 6.13508 23.1812 6.18196C23.2197 6.13991 23.2582 6.09785 23.2932 6.0523C23.6586 5.56918 24.0791 5.1305 24.5463 4.74519C24.7568 4.56093 25.0091 4.431 25.2813 4.36673C25.3267 4.36325 25.3724 4.36325 25.4178 4.36673C25.5753 4.36673 25.6698 4.44382 25.6488 4.59801C25.6213 4.79981 25.5732 4.99826 25.5053 5.19024C25.4003 5.51264 25.2743 5.82802 25.1553 6.14341C25.1553 6.17845 25.1273 6.2135 25.1168 6.24854H25.1378C25.1623 6.22051 25.1903 6.19247 25.2148 6.16093C25.6111 5.64208 26.0669 5.17162 26.5729 4.75921C26.7945 4.57039 27.0551 4.4328 27.3359 4.35622C27.3872 4.35259 27.4386 4.35259 27.4899 4.35622C27.6824 4.35622 27.7734 4.45434 27.7104 4.63656C27.6159 4.90289 27.5074 5.16221 27.3954 5.42152C27.0874 6.12239 26.7759 6.84427 26.4714 7.55915C26.423 7.68029 26.3867 7.80588 26.3628 7.93411C26.3348 8.05676 26.3979 8.13386 26.5239 8.11283C26.6435 8.09015 26.7607 8.05613 26.8739 8.01121L26.9334 8.10933C26.5345 8.38902 26.0954 8.60643 25.6313 8.75412C25.6523 8.60343 25.6663 8.47728 25.6908 8.35463C25.8435 7.69397 26.0628 7.05054 26.3453 6.43427C26.5134 6.04529 26.6954 5.65982 26.8704 5.27434C26.9089 5.19024 26.9684 5.09562 26.8704 5.01503C26.7724 4.93443 26.6954 5.01503 26.6184 5.05007C26.1428 5.3587 25.7276 5.75181 25.3933 6.20999C24.9291 6.8476 24.5742 7.55819 24.3433 8.31258C24.3312 8.36273 24.3055 8.40856 24.2691 8.44504C24.2326 8.48152 24.1868 8.50723 24.1367 8.51933C23.9512 8.5754 23.7867 8.65249 23.5767 8.72959C23.5767 8.68754 23.6047 8.65249 23.6152 8.62095C23.9652 7.69582 24.3153 6.77769 24.6653 5.84905C24.74 5.62937 24.7985 5.40449 24.8403 5.17622C24.8753 5.01152 24.7703 4.9134 24.6128 4.97648C24.4699 5.0338 24.3375 5.11431 24.2208 5.21477C23.861 5.56628 23.5502 5.96468 23.2967 6.39923C22.9035 7.03252 22.5628 7.69706 22.2782 8.38617C22.265 8.41982 22.2443 8.44998 22.2175 8.47429C22.1908 8.49861 22.1589 8.51642 22.1242 8.52634C21.9456 8.58591 21.7741 8.656 21.5676 8.72959C21.6621 8.50181 21.7496 8.29505 21.8336 8.0848C22.1837 7.20522 22.5337 6.33264 22.8837 5.45306C22.91 5.3799 22.931 5.30495 22.9467 5.22879C22.9585 5.19949 22.9618 5.16747 22.9562 5.13638C22.9507 5.1053 22.9365 5.0764 22.9153 5.053C22.8942 5.0296 22.8668 5.01264 22.8365 5.00407C22.8061 4.99549 22.774 4.99565 22.7437 5.00451C22.6317 5.01502 22.5477 5.04306 22.4497 5.06409Z" fill="#133C58"/>
<path fill-rule="evenodd" clip-rule="evenodd" d="M21.7465 4.45474C21.5715 4.82269 21.3964 5.18013 21.2319 5.54458C20.9192 6.18859 20.6457 6.85094 20.4129 7.52801C20.3818 7.62556 20.3573 7.72507 20.3394 7.82588C20.3079 7.99409 20.3814 8.07468 20.5494 8.06768C20.6124 8.06313 20.6746 8.05137 20.7349 8.03263C20.7977 8.01596 20.8596 7.99608 20.9204 7.97306C20.9589 8.02212 21.0079 8.07118 20.9204 8.11323L19.6079 8.67042C19.7117 8.05611 19.8806 7.45463 20.1119 6.87621H20.0909L19.8109 7.22664C19.4721 7.64942 19.0777 8.02429 18.6383 8.34101C18.43 8.50233 18.1922 8.62137 17.9383 8.69144C17.8854 8.71041 17.8286 8.71551 17.7732 8.70625C17.7177 8.697 17.6656 8.6737 17.6218 8.63856C17.5779 8.60343 17.5438 8.55764 17.5226 8.50556C17.5014 8.45347 17.4939 8.39683 17.5008 8.34101C17.4979 8.00806 17.5735 7.67911 17.7213 7.38083C18.0153 6.7851 18.3163 6.19287 18.6068 5.59714C18.6769 5.45049 18.7343 5.29807 18.7783 5.14158C18.8238 4.97688 18.7083 4.86825 18.5368 4.89628C18.4633 4.89628 18.3898 4.92432 18.3023 4.94184C18.3023 4.89979 18.2813 4.86474 18.2708 4.82619L19.5554 4.34961C19.5239 4.52833 19.4994 4.70004 19.4609 4.86474C19.347 5.25453 19.1784 5.62618 18.9603 5.9686C18.6291 6.54363 18.3536 7.14914 18.1378 7.77682C18.1129 7.84656 18.0998 7.92001 18.0993 7.99409C18.0993 8.12024 18.1693 8.20785 18.2918 8.19033C18.4345 8.17815 18.5724 8.13254 18.6943 8.05716C18.9328 7.88082 19.1553 7.68382 19.3594 7.46844C20.0965 6.67772 20.6657 5.74545 21.0324 4.72807C21.0397 4.69314 21.0578 4.66141 21.0842 4.63747C21.1107 4.61353 21.144 4.59863 21.1794 4.59491C21.3579 4.55987 21.547 4.48978 21.7465 4.45474Z" fill="#133C58"/>
<path fill-rule="evenodd" clip-rule="evenodd" d="M40.504 4.9072C40.504 4.86164 40.483 4.8266 40.476 4.79155L41.7536 4.35352C41.7462 4.48225 41.7275 4.61007 41.6976 4.73549C41.6257 4.99639 41.532 5.25076 41.4175 5.49592C41.0523 6.1415 40.7261 6.80852 40.441 7.49337C40.3813 7.64752 40.3367 7.80714 40.308 7.96996C40.2986 8.00131 40.298 8.03463 40.3063 8.0663C40.3145 8.09797 40.3313 8.12675 40.3548 8.14953C40.3782 8.17231 40.4075 8.18819 40.4394 8.19546C40.4712 8.20272 40.5045 8.20109 40.5355 8.19073C40.6701 8.16731 40.7993 8.11983 40.917 8.05056C41.1843 7.87153 41.4207 7.65021 41.6171 7.39525C42.1606 6.78545 42.6144 6.10104 42.9646 5.36276C43.0591 5.1525 43.1396 4.93873 43.2201 4.72497C43.2287 4.69164 43.2469 4.66156 43.2724 4.63851C43.2979 4.61545 43.3296 4.60042 43.3636 4.59531C43.5562 4.56027 43.7452 4.5042 43.9447 4.45514C43.8257 4.71095 43.7032 4.96326 43.5946 5.21207C43.2419 5.94461 42.9288 6.69562 42.6566 7.46183C42.6197 7.57683 42.5893 7.69383 42.5656 7.81227C42.5306 7.98398 42.6041 8.07158 42.7791 8.05757C42.9067 8.03594 43.033 8.00669 43.1571 7.96996C43.1571 7.99449 43.1816 8.02603 43.2096 8.0821L41.8096 8.6568C41.9144 8.04462 42.0846 7.44546 42.3171 6.86961H42.2926L42.2051 6.97474C41.8415 7.45786 41.4141 7.88933 40.9345 8.25731C40.6969 8.44872 40.4213 8.58729 40.126 8.66381C40.0735 8.68227 40.0171 8.68694 39.9623 8.67738C39.9074 8.66782 39.856 8.64434 39.8128 8.60919C39.7696 8.57404 39.7362 8.52839 39.7156 8.4766C39.6951 8.42481 39.6881 8.36862 39.6955 8.31338C39.6903 7.97681 39.7659 7.64392 39.916 7.34269C40.21 6.75046 40.5075 6.16174 40.798 5.56951C40.8685 5.41941 40.9259 5.26347 40.9695 5.10344C41.015 4.94224 40.8995 4.83361 40.7385 4.85814L40.504 4.9072Z" fill="#133C58"/>
<path fill-rule="evenodd" clip-rule="evenodd" d="M44.7004 4.90679C44.7004 4.86124 44.6829 4.8297 44.6724 4.79115L45.957 4.34961C45.9255 4.52833 45.9045 4.70004 45.866 4.86124C45.7512 5.25072 45.5828 5.62225 45.3654 5.96509C45.0348 6.54167 44.7594 7.14828 44.5429 7.77682C44.518 7.84293 44.505 7.91292 44.5044 7.98357C44.5044 8.12725 44.5744 8.21135 44.7144 8.19033C44.8503 8.17647 44.9809 8.13086 45.0959 8.05717C45.3351 7.88172 45.5577 7.68465 45.761 7.46844C46.5009 6.67657 47.0715 5.74165 47.4375 4.72107C47.4458 4.68794 47.464 4.65812 47.4896 4.63559C47.5153 4.61305 47.5472 4.59887 47.581 4.59491C47.7701 4.55636 47.9591 4.5038 48.1586 4.45474C48.1411 4.48978 48.1271 4.52132 48.1131 4.55636C47.721 5.44295 47.322 6.30852 46.937 7.21613C46.8633 7.40658 46.8037 7.60217 46.7585 7.80135C46.713 7.99409 46.79 8.0852 46.9825 8.06768C47.101 8.04631 47.2179 8.01705 47.3325 7.98007C47.3745 8.03263 47.399 8.0817 47.3115 8.11674L46.0515 8.64238C46.0515 8.64238 46.0515 8.64238 46.0095 8.64238C46.1158 8.04229 46.2847 7.45502 46.5135 6.89023H46.489C46.461 6.92527 46.4295 6.96032 46.4015 6.99886C46.0367 7.48208 45.6081 7.91354 45.1274 8.28144C44.8931 8.47029 44.6209 8.60653 44.3294 8.68093C44.2765 8.70097 44.2193 8.70687 44.1635 8.69804C44.1076 8.68922 44.055 8.66598 44.0108 8.63061C43.9667 8.59524 43.9325 8.54897 43.9116 8.49634C43.8908 8.44372 43.884 8.38656 43.8919 8.3305C43.8882 7.99673 43.9625 7.66672 44.1089 7.36682C44.4029 6.77459 44.7039 6.18236 44.9979 5.58313C45.0678 5.43799 45.1241 5.28665 45.1659 5.13107C45.2114 4.95936 45.0994 4.85073 44.9209 4.88226L44.7004 4.90679Z" fill="#133C58"/>
<path fill-rule="evenodd" clip-rule="evenodd" d="M30.9483 8.24622L31.0183 8.36537C30.7325 8.5686 30.4173 8.72695 30.0838 8.83495C30.0431 8.84941 29.9997 8.8546 29.9567 8.85016C29.9138 8.84571 29.8724 8.83174 29.8355 8.80925C29.7986 8.78676 29.7672 8.75632 29.7435 8.72015C29.7199 8.68399 29.7046 8.64299 29.6988 8.60016C29.6446 8.35158 29.6339 8.09546 29.6673 7.84323C29.7654 6.98846 30.0142 6.15791 30.4023 5.39021C30.4548 5.26756 30.5073 5.14491 30.5563 5.01876C30.5587 5.00367 30.5587 4.9883 30.5563 4.9732C30.5159 4.98231 30.4762 4.99401 30.4373 5.00825C30.1178 5.16449 29.8414 5.3967 29.6323 5.68458C29.1781 6.27961 28.8028 6.93098 28.5157 7.62246C28.3932 7.8993 28.2847 8.17964 28.1657 8.45648C28.1572 8.48254 28.1421 8.50594 28.1219 8.52438C28.1016 8.54282 28.0769 8.55565 28.0502 8.56161C27.8612 8.61768 27.6792 8.68426 27.4937 8.74734C27.5707 8.52657 27.6547 8.30229 27.7212 8.07451C27.8176 7.78225 27.8452 7.4716 27.8017 7.1669C27.7884 7.08587 27.7594 7.00825 27.7161 6.9385C27.6729 6.86874 27.6163 6.80822 27.5497 6.7604C27.6197 6.66228 27.6792 6.57817 27.8157 6.5992C28.0047 6.62723 28.1902 6.66929 28.2637 6.86553C28.3067 6.99905 28.3372 7.13632 28.3547 7.27553C28.3547 7.30006 28.3547 7.3281 28.3547 7.38767L28.4352 7.24399C28.7446 6.62447 29.1151 6.03749 29.5412 5.49184C29.8354 5.11936 30.1904 4.79945 30.5913 4.54568C30.7474 4.43384 30.9318 4.36826 31.1233 4.35645C31.2563 4.35645 31.2983 4.38798 31.2808 4.51764C31.2635 4.63822 31.2306 4.75602 31.1828 4.86807C31.0708 5.19047 30.9133 5.5409 30.7558 5.85629C30.5267 6.32686 30.3731 6.83066 30.3008 7.34912C30.2774 7.61126 30.2681 7.87445 30.2728 8.13759C30.2765 8.19126 30.2907 8.24367 30.3148 8.29178C30.3209 8.31873 30.333 8.34394 30.3503 8.3655C30.3676 8.38706 30.3895 8.40441 30.4145 8.41623C30.4394 8.42804 30.4667 8.43402 30.4943 8.43371C30.5219 8.4334 30.5491 8.42681 30.5738 8.41443C30.7033 8.36887 30.8153 8.3058 30.9483 8.24622Z" fill="#133C58"/>
<path fill-rule="evenodd" clip-rule="evenodd" d="M33.4789 6.26256C33.4622 6.17222 33.4662 6.07929 33.4904 5.9907C33.5147 5.90211 33.5586 5.82014 33.6189 5.75093C33.7896 5.52004 34.0144 5.33472 34.2734 5.21126C34.3698 5.16842 34.4728 5.14235 34.578 5.13417C34.6523 5.12796 34.7271 5.13688 34.7979 5.16037C34.8687 5.18387 34.9341 5.22147 34.99 5.2709C35.0459 5.32034 35.0912 5.38059 35.1233 5.44803C35.1553 5.51546 35.1734 5.5887 35.1765 5.66332C35.2079 6.06225 35.1003 6.45975 34.872 6.7882C34.3893 7.53417 33.7178 8.13875 32.9259 8.54035C32.7374 8.62756 32.5368 8.68547 32.3309 8.71206C32.1528 8.73077 31.9745 8.6783 31.8349 8.56607C31.6953 8.45385 31.6056 8.29095 31.5853 8.11283C31.5365 7.64542 31.6396 7.17472 31.8793 6.77068C32.1876 6.19945 32.6114 5.69878 33.1236 5.30057C33.6359 4.90236 34.2253 4.61536 34.8545 4.45784C34.9927 4.42806 35.1332 4.41047 35.2745 4.40527C35.362 4.40527 35.4705 4.40527 35.488 4.51741C35.493 4.61618 35.4788 4.71497 35.446 4.80827C35.446 4.82929 35.3655 4.8328 35.3235 4.8328C35.089 4.8328 34.858 4.81528 34.6235 4.8328C34.2601 4.85763 33.9076 4.96761 33.5945 5.15387C33.2814 5.34014 33.0164 5.59747 32.8209 5.90512C32.4723 6.42749 32.2451 7.02141 32.1558 7.64325C32.1383 7.73823 32.1383 7.83562 32.1558 7.9306C32.1686 8.01606 32.2012 8.0973 32.2512 8.16777C32.3011 8.23823 32.3669 8.29594 32.4432 8.3362C32.5196 8.37647 32.6043 8.39817 32.6906 8.39954C32.7769 8.40092 32.8623 8.38193 32.9399 8.34411C33.1006 8.2907 33.2493 8.20616 33.3774 8.09531C33.9304 7.62631 34.3333 7.00476 34.536 6.30811C34.5988 6.12328 34.6132 5.92542 34.578 5.7334C34.5747 5.68527 34.5594 5.63872 34.5337 5.59793C34.5079 5.55715 34.4725 5.52342 34.4305 5.49978C34.3884 5.47614 34.3412 5.46334 34.293 5.46253C34.2449 5.46171 34.1972 5.47291 34.1544 5.49511C33.9872 5.55662 33.8454 5.67263 33.7519 5.82452C33.6539 5.96819 33.5559 6.11537 33.4789 6.26256Z" fill="#133C58"/>
<path fill-rule="evenodd" clip-rule="evenodd" d="M45.2114 3.4592C45.2674 3.38911 45.3164 3.33655 45.3584 3.27697C45.4234 3.16339 45.5274 3.0773 45.651 3.03476C45.7746 2.99221 45.9095 2.99609 46.0305 3.04569C46.699 3.23142 47.3815 3.39612 48.0606 3.53279C48.2275 3.57543 48.4022 3.57765 48.5702 3.53926C48.7382 3.50086 48.8947 3.42297 49.0266 3.31202C49.1152 3.23701 49.1855 3.14268 49.232 3.03627C49.2785 2.92985 49.3001 2.81418 49.295 2.69813C49.2899 2.58208 49.2584 2.46873 49.2027 2.36679C49.1471 2.26484 49.0689 2.17702 48.9741 2.11004C48.9246 2.07268 48.8681 2.04567 48.808 2.03062C48.7479 2.01557 48.6853 2.01278 48.6241 2.02243H48.5436C48.5676 1.94993 48.6088 1.88432 48.6637 1.83123C48.7185 1.77814 48.7854 1.73914 48.8586 1.71756C48.9343 1.69259 49.0156 1.68954 49.093 1.70876C49.1704 1.72797 49.2408 1.76868 49.2961 1.82619C49.3718 1.90166 49.4299 1.99295 49.4662 2.09351C49.5025 2.19408 49.5161 2.30144 49.5061 2.40791C49.4947 2.77605 49.3436 3.12599 49.0834 3.38642C48.8233 3.64686 48.4738 3.79821 48.1061 3.80963C47.8632 3.81014 47.6212 3.78191 47.385 3.72552C46.776 3.63091 46.1705 3.52227 45.5614 3.43116C45.444 3.42424 45.3262 3.43368 45.2114 3.4592Z" fill="#133C58"/>
<path fill-rule="evenodd" clip-rule="evenodd" d="M24.6797 42.346L23.4966 41.6591L22.275 41.0424L21.0185 40.4992L19.7339 40.0296L18.4214 39.6371L17.0913 39.3253L15.7402 39.087L14.3822 38.9293L13.0171 38.8522L11.6485 38.8557L10.2835 38.9398L8.92542 39.101L7.57785 39.3463L6.24779 39.6652L4.93873 40.0647L3.65417 40.5377L2.40111 41.0879L1.18306 41.7082L0 42.402L0.836539 41.561L1.72558 40.776L2.66712 40.0577L3.65767 39.3988L4.68672 38.8136L5.75427 38.2985L6.85332 37.857L7.98037 37.4925L9.13193 37.2052L10.2975 36.9949L11.477 36.8652L12.6076 36.8687L13.7381 36.9493L14.8617 37.1L15.9712 37.3243L17.0633 37.6222L18.1378 37.9866L19.1844 38.4211L20.1994 38.9223L21.1795 39.4865L22.121 40.1137L23.0241 40.8041L23.8781 41.547L24.6797 42.346Z" fill="#133C58"/>
<path fill-rule="evenodd" clip-rule="evenodd" d="M7.85767 34.8472L9.32773 34.5354L10.8153 34.2971L12.3099 34.1394L13.8149 34.0588L15.32 34.0518L16.8251 34.1253L18.3232 34.2725L19.7197 34.5248L21.1023 34.8437L22.4708 35.2257L23.8184 35.6707L25.145 36.1789L26.447 36.7501L27.7211 37.3808L28.9636 38.0677L30.1712 38.8176L31.5468 39.6411L32.9573 40.4016L34.3994 41.0989L35.8695 41.7297L37.3675 42.2904L38.8936 42.7845L40.4372 43.212L41.9983 43.5659L43.5733 43.8498L45.1624 44.0601L46.755 44.2002L48.3546 44.2668L50.2096 44.1757L52.0577 44.0075L53.8988 43.7587L55.7259 43.4328L57.5355 43.0298L59.3311 42.5497L61.1021 41.9925L62.8487 41.3617L64.5638 40.6574L66.2509 39.8794L67.903 39.0314L69.5165 38.1132L68.491 39.168L67.4129 40.1738L66.2894 41.1199L65.1168 42.0135L63.9023 42.8476L62.6492 43.6185L61.3577 44.3264L60.0346 44.9677L58.68 45.5459L57.301 46.054L55.8974 46.4955L54.4728 46.8635L53.0308 47.1649L51.5782 47.3891L49.9856 47.4943L48.3931 47.5223L46.8005 47.4697L45.2114 47.3331L43.6293 47.1228L42.0613 46.832L40.5107 46.464L38.9811 46.0225L37.4725 45.5038L35.3899 44.6838L33.3354 43.7902L31.3193 42.823L29.3347 41.7858L27.3921 40.6749L25.866 39.7638L24.3014 38.9192L22.7089 38.1413L21.0813 37.4299L19.4257 36.7851L17.7456 36.2139L16.041 35.7093L14.697 35.4254L13.3389 35.1977L11.9739 35.026L10.6053 34.9068L9.22973 34.8472H7.85767Z" fill="#133C58"/>
<path fill-rule="evenodd" clip-rule="evenodd" d="M94.6931 38.9789L93.7201 38.229L92.7015 37.5456L91.6375 36.9324L90.5349 36.3892L89.4009 35.9161L88.2423 35.5202L87.0558 35.2013L85.8517 34.956L84.6372 34.7948L83.4121 34.7107L82.1835 34.7072L80.9585 34.7808L79.7404 34.9384L78.5364 35.1697L77.3498 35.4816L76.1843 35.8706L75.0502 36.3367L73.9442 36.8728L72.8766 37.4791L71.8511 38.1554L70.8745 38.8983L71.6165 38.0678L72.4181 37.2933L73.2686 36.582L74.1682 35.9267L75.1097 35.3344L76.0898 34.8088L77.1048 34.3532L78.1479 33.9678L79.2154 33.6594L80.304 33.4211L81.403 33.2599L82.5126 33.1758L83.5801 33.2283L84.6442 33.351L85.6942 33.5437L86.7338 33.8066L87.7523 34.136L88.7463 34.5284L89.7124 34.991L90.6469 35.5132L91.543 36.0949L92.4005 36.7362L93.2126 37.4335L93.9791 38.1799L94.6931 38.9789Z" fill="#133C58"/>
<path fill-rule="evenodd" clip-rule="evenodd" d="M44.2107 49.702L45.5513 49.9578L46.9023 50.1365L48.2604 50.2381L49.6254 50.2591L50.987 50.2031L52.3416 50.0699L53.6891 49.8561L54.8792 49.5863L56.0482 49.2464L57.1963 48.8399L58.3199 48.3598L59.4119 47.8201L61.0955 46.8775L62.7476 45.8823L64.3646 44.8345L66.2897 43.5869L68.2463 42.3885L70.2344 41.2391L72.2505 40.1422L73.3706 39.564L74.5221 39.0384L75.6947 38.5758L76.8882 38.1693L78.1028 37.8224L79.3348 37.5385L80.5774 37.3142L81.827 37.153L83.087 37.125L84.3471 37.1706L85.6036 37.2897L86.8497 37.4789L88.0817 37.7383L89.2998 38.0712L90.4934 38.4742L91.6624 38.9437L92.8035 39.4799L93.913 40.0826L94.9806 40.7485L96.0131 41.4738L97.0002 42.2588L95.7296 41.6596L94.4275 41.1374L93.0975 40.6889L91.7464 40.3139L90.3743 40.0196L88.9883 39.8023L87.5917 39.6621L86.1917 39.606L84.7881 39.6271L83.388 39.7287L81.995 39.9074L80.8084 40.1597L79.6358 40.4751L78.4808 40.8536L77.3502 41.2916L76.2407 41.7892L75.1591 42.3429L73.157 43.4783L71.1935 44.6733L69.2684 45.9313L67.9838 46.8179L66.6572 47.6484L65.2992 48.4194L63.9096 49.1273L62.4885 49.7791L61.043 50.3643L59.5694 50.8899L58.2989 51.1878L57.0073 51.4156L55.7087 51.5698L54.4032 51.6539L53.0976 51.6609L51.792 51.5978L50.49 51.4611L49.1984 51.2509L47.9209 50.9705L46.6608 50.6166L45.4253 50.1961L44.2107 49.702Z" fill="#133C58"/>
<path fill-rule="evenodd" clip-rule="evenodd" d="M96.2089 15.2723C96.2245 15.2506 96.2341 15.2253 96.2369 15.1987C96.3208 15.2198 96.4086 15.2198 96.4924 15.1987C96.479 15.1787 96.4638 15.1599 96.4469 15.1427C96.0479 14.8532 95.6155 14.6132 95.1589 14.4278C94.5358 14.158 93.8008 13.811 93.1043 13.8531C92.5963 13.9417 92.1073 14.1171 91.6587 14.3717C91.4697 14.4558 91.0917 14.6486 91.0567 14.6766C91.1407 14.7817 91.3297 14.8308 91.3577 15.027C91.307 15.0131 91.2578 14.9944 91.2107 14.971C91.1329 14.8844 91.0308 14.8233 90.9177 14.7958C90.8047 14.7683 90.686 14.7756 90.5772 14.8168C90.464 14.8468 90.3529 14.8842 90.2446 14.9289C90.1036 14.9873 89.9586 15.0353 89.8106 15.0726C89.6804 15.0883 89.5488 15.0883 89.4186 15.0726C89.1106 15.0726 88.8026 15.0446 88.4981 15.013C88.132 14.9219 87.7548 14.8841 87.378 14.9009C86.9755 15.0174 86.5964 15.2036 86.258 15.4511C85.7049 15.7735 85.1659 16.1239 84.6339 16.4813L83.8359 17.014C83.7238 17.0876 83.6118 17.1612 83.5033 17.2383C83.3948 17.3153 83.2443 17.4695 83.1533 17.466C83.2068 17.4789 83.2626 17.4789 83.3161 17.4661C83.3696 17.4533 83.4194 17.4281 83.4613 17.3924C83.4832 17.3737 83.5092 17.3605 83.5372 17.3538C83.5652 17.3471 83.5944 17.3471 83.6223 17.3539C83.7028 17.3749 83.8499 17.2488 83.9164 17.2102C84.3749 16.9579 84.7949 16.639 85.2604 16.3937C85.9808 16.0379 86.8019 15.9425 87.5845 16.1239C87.777 16.1589 87.9835 16.1694 88.1796 16.187C88.3756 16.2045 88.7536 16.187 88.6836 16.4673C88.5915 16.7541 88.419 17.0084 88.1865 17.1997C88.092 17.2943 87.7665 17.466 87.8085 17.6202C87.875 17.8725 88.4561 17.7429 88.5786 17.6202C88.5656 17.6685 88.5562 17.7177 88.5506 17.7674C88.6836 17.876 88.9601 17.4941 89.0476 17.417C89.1524 17.2888 89.2696 17.1714 89.3976 17.0665C89.7476 16.8388 90.1151 16.6075 90.4477 16.3657C90.7025 16.1321 90.9042 15.8465 91.0392 15.5282C91.0904 15.4249 91.1775 15.3439 91.2842 15.3004C91.3302 15.2838 91.3788 15.2754 91.4277 15.2758C91.5467 15.2758 91.5922 15.2934 91.6097 15.1777C91.6097 15.1497 91.5292 15.1357 91.5467 15.1322C91.6949 15.0869 91.8457 15.0506 91.9982 15.0235C92.2852 14.964 92.6073 15.0235 92.8978 14.978C93.0671 14.9437 93.2396 14.9284 93.4123 14.9324C93.5943 14.9324 93.7063 15.0621 93.8708 15.1252C93.9988 15.1629 94.1301 15.1888 94.2628 15.2023C94.494 15.2499 94.7277 15.2838 94.9629 15.3039C95.2534 15.3039 95.5579 15.3319 95.8484 15.3599C95.9639 15.3284 96.1529 15.3529 96.2089 15.2723Z" fill="#133C58"/>
<path d="M85.2812 20.8511C85.2812 20.8511 86.5132 20.809 87.1048 20.7459C87.6963 20.6829 88.1548 20.5883 88.5608 20.8896C88.9668 21.191 89.4359 21.4328 89.6109 21.3872C89.7811 21.3632 89.938 21.2816 90.0554 21.156C90.4587 20.7967 90.9593 20.565 91.494 20.4901C92.0995 20.4551 92.544 20.4901 92.0295 20.6338C91.5685 20.774 91.1162 20.9413 90.6749 21.1349C90.6399 21.1349 90.2409 21.2506 90.3494 21.3136C90.4165 21.3401 90.4756 21.3836 90.5209 21.4398C90.5734 21.5064 90.4964 21.5134 90.4649 21.4959C90.4334 21.4783 90.3704 21.5274 90.3389 21.608C90.139 21.895 89.8707 22.1274 89.5584 22.2843C89.2399 22.379 89.0929 22.3649 89.0369 22.4876C88.9726 22.5964 88.8683 22.6756 88.7463 22.7084C88.6518 22.7469 88.6168 22.7084 88.6238 22.6488C88.6308 22.5892 88.5608 22.5822 88.5958 22.5402C88.6308 22.4981 88.3543 22.6593 88.4558 22.5402C88.5573 22.421 88.7568 22.2248 88.8268 22.1021C88.8968 21.9795 88.8758 21.9514 88.7148 21.8638C88.5538 21.7762 87.6088 21.2716 87.4163 21.2225C86.9683 21.1351 86.5143 21.0823 86.0582 21.0648C85.4317 21.0368 85.2322 20.9667 85.2322 20.9071C85.2322 20.8476 85.2812 20.8511 85.2812 20.8511Z" fill="#133C58"/>
<path d="M8.27083 29.1461H2.05454L2.08954 28.1755H2.69857C2.86703 28.1887 3.03639 28.1668 3.19602 28.1114C3.35564 28.0559 3.50208 27.9679 3.62612 27.8531C3.73751 27.7283 3.82279 27.5825 3.8769 27.4242C3.93101 27.2659 3.95285 27.0983 3.94113 26.9314L3.89213 17.9814C3.90549 17.7479 3.85465 17.5152 3.74512 17.3086C3.65236 17.1578 3.51888 17.0363 3.3601 16.9582C3.18935 16.8792 3.00535 16.8328 2.81758 16.8215C2.60057 16.8075 2.39056 16.8005 2.18755 16.8005H2.02304L1.97754 16.0996H2.15255C2.53017 16.073 2.90486 16.0144 3.2726 15.9244C3.59238 15.8487 3.89671 15.7183 4.17214 15.5389C4.44766 15.3517 4.68521 15.1139 4.87217 14.8381C5.09448 14.5091 5.25463 14.1421 5.3447 13.7552L5.3797 13.6151L5.99923 13.6571V23.3886L6.28974 23.2694C6.61525 23.1363 7.04227 22.9646 7.5743 22.7578C8.10632 22.551 8.62435 22.3408 9.13187 22.127C9.63939 21.9133 10.1014 21.724 10.5074 21.5628C11.0045 21.3631 11.176 21.286 11.2355 21.258C11.5695 21.1094 11.8661 20.8879 12.1035 20.6097C12.3402 20.3391 12.5328 20.0328 12.674 19.702C12.8158 19.3651 12.9157 19.012 12.9715 18.6508C13.0265 18.3159 13.0558 17.9773 13.0591 17.638C13.0722 17.1044 12.9719 16.5741 12.765 16.0821C12.5914 15.6875 12.3305 15.3376 12.002 15.0588C11.6925 14.8026 11.3357 14.6097 10.952 14.4911C10.5921 14.374 10.2123 14.3311 9.8354 14.365C9.46986 14.3953 9.11346 14.4952 8.78536 14.6593C8.49057 14.8021 8.23922 15.021 8.05732 15.2936C7.84111 15.6213 7.74466 16.0138 7.78431 16.4045C7.81359 16.7091 7.92206 17.0008 8.09892 17.2504C8.27578 17.5 8.51486 17.6989 8.79236 17.8272C9.00673 17.9447 9.24808 18.0039 9.49239 17.999L9.8424 17.9779L9.6359 18.2758C9.47139 18.5106 9.31038 18.7454 9.14587 18.9767C8.98136 19.2079 8.83086 19.4112 8.68735 19.5934C8.54384 19.7756 8.42134 19.9193 8.33734 20.0244C8.25333 20.1296 8.14133 20.2137 8.03632 20.2137H7.99432L7.94532 20.1926C7.59639 20.0425 7.30451 19.7847 7.11228 19.4567C6.86261 19.0705 6.68584 18.6418 6.59075 18.1917C6.48095 17.6986 6.44555 17.1919 6.48575 16.6883C6.5234 16.1628 6.67893 15.6525 6.94077 15.1955C7.23029 14.7109 7.64188 14.3109 8.13433 14.0356C8.77293 13.6957 9.48326 13.5131 10.2064 13.5029C10.3709 13.5029 10.5354 13.5029 10.6929 13.5029C12.1735 13.5029 13.3216 13.8323 14.1091 14.4736C14.9911 15.1745 15.4287 16.2959 15.4147 17.7466C15.4111 18.1923 15.3281 18.6338 15.1697 19.0502C15.0008 19.4874 14.7646 19.8953 14.4696 20.2592C14.1507 20.6538 13.777 21.0007 13.3601 21.2895C12.8893 21.6169 12.3743 21.8754 11.8305 22.0569L10.5319 22.551C10.0174 22.7508 9.48189 22.9575 8.97436 23.1713C8.46684 23.3851 7.95232 23.5953 7.47279 23.8021C6.99327 24.0088 6.61525 24.1525 6.33874 24.2787L5.98873 24.4223V27.0085C5.9813 27.2079 6.01342 27.4068 6.08323 27.5937C6.13607 27.7223 6.22031 27.8356 6.32824 27.9231C6.43439 28.0058 6.55239 28.072 6.67826 28.1194C6.80873 28.1643 6.9437 28.1948 7.08078 28.2105C7.24865 28.2364 7.41852 28.247 7.5883 28.242C7.73764 28.242 7.90215 28.242 8.08182 28.242H8.25683L8.27083 29.1461Z" fill="#133C58"/>
<path d="M24.1439 29.1705H15.978V28.2664L17.9451 28.2418C18.0933 28.2496 18.2415 28.2269 18.3806 28.1751C18.5197 28.1232 18.6466 28.0434 18.7537 27.9405C18.9864 27.6329 19.0939 27.2485 19.0547 26.8647V16.2501C19.0924 15.8593 18.9839 15.4685 18.7502 15.1533C18.6365 15.0411 18.5004 14.9543 18.3507 14.8987C18.2011 14.8431 18.0414 14.82 17.8821 14.8309H15.978V13.9268H24.1439V14.8309H22.0858C21.9529 14.8335 21.822 14.8638 21.7015 14.9199C21.5809 14.976 21.4734 15.0567 21.3858 15.1568C21.2643 15.3085 21.1747 15.4833 21.1224 15.6706C21.0701 15.8578 21.0561 16.0538 21.0813 16.2466V26.8647C21.0421 27.2539 21.155 27.6432 21.3963 27.951C21.4846 28.0495 21.5925 28.1284 21.713 28.1827C21.8336 28.2371 21.9641 28.2655 22.0963 28.2664H24.1544L24.1439 29.1705Z" fill="#133C58"/>
<path d="M34.3506 29.1704L24.6797 29.1458V28.2102L25.5512 28.2663H25.6912C26.0041 28.2804 26.3164 28.2291 26.6083 28.1156C26.8251 28.0223 27.0101 27.8676 27.1403 27.6705C27.2604 27.4749 27.339 27.2566 27.3713 27.0292C27.406 26.7843 27.4235 26.5372 27.4238 26.2898V18.3561C27.4382 18.1321 27.3987 17.9079 27.3085 17.7024C27.2184 17.4969 27.0803 17.3161 26.9058 17.1751C26.5558 16.9018 25.8802 16.7897 24.9002 16.8457H24.7147V16.1098L24.8652 16.0888C25.3797 16.0152 25.8452 15.9416 26.2443 15.868C26.6091 15.8017 26.9627 15.6837 27.2943 15.5176C27.6177 15.3519 27.9083 15.1287 28.1518 14.8588C28.468 14.4992 28.7341 14.0984 28.9429 13.6673L29.0059 13.6007L29.5029 13.6498V20.9037C29.5029 21.6046 29.5029 22.3054 29.5029 23.0063C29.8529 22.8346 30.2204 22.6559 30.6195 22.4631C31.113 22.2283 31.645 21.983 32.205 21.7307C32.6776 21.4994 33.1606 21.2366 33.6366 20.9423C34.0861 20.6688 34.506 20.3493 34.8897 19.9891C35.2401 19.6625 35.5356 19.2815 35.7647 18.8607C35.9788 18.456 36.0895 18.0045 36.0867 17.5466C36.0891 17.136 36.0253 16.7278 35.8977 16.3376C35.7796 15.9746 35.5943 15.637 35.3517 15.3424C35.1158 15.0591 34.819 14.8327 34.4836 14.6801C34.1098 14.5162 33.7051 14.4349 33.2971 14.4418C33.0412 14.4412 32.787 14.4826 32.5446 14.5644C32.315 14.6442 32.1007 14.7627 31.911 14.9149C31.7314 15.064 31.5848 15.249 31.4805 15.458C31.3555 15.7461 31.3035 16.0606 31.3291 16.3736C31.3548 16.6866 31.4573 16.9884 31.6275 17.2522C31.8844 17.5556 32.2078 17.7954 32.5726 17.9531L32.7476 18.0337L32.6496 18.2019C32.469 18.4995 32.2679 18.7841 32.0475 19.0534C31.834 19.3128 31.624 19.5721 31.421 19.8349L31.3685 19.905H31.281C31.1461 19.8998 31.0139 19.8659 30.8932 19.8054C30.7725 19.745 30.666 19.6595 30.581 19.5546C30.3861 19.3315 30.2267 19.0798 30.1084 18.8081C29.9883 18.5344 29.8923 18.2506 29.8214 17.9601C29.7618 17.731 29.7278 17.4959 29.7199 17.2592C29.7176 16.7757 29.8203 16.2974 30.0209 15.8575C30.221 15.4285 30.5014 15.0418 30.847 14.7186C31.1966 14.3935 31.5991 14.1304 32.037 13.9407C32.4927 13.7356 32.9834 13.6202 33.4826 13.6007C34.059 13.5867 34.635 13.6431 35.1977 13.7689C35.7412 13.889 36.2607 14.0999 36.7343 14.3927C37.1858 14.6743 37.5648 15.0585 37.8403 15.5141C38.1342 16.0134 38.2822 16.5853 38.2673 17.1646C38.2822 17.751 38.1537 18.332 37.8928 18.8572C37.648 19.3255 37.3194 19.7448 36.9233 20.0942C36.5183 20.4493 36.0702 20.7519 35.5897 20.9948L35.1522 21.2086C35.6173 21.2216 36.0763 21.319 36.5067 21.4959C36.9616 21.6802 37.3782 21.9476 37.7353 22.2844C38.0879 22.6246 38.3688 23.0321 38.5613 23.4829C38.7713 23.9926 38.8734 24.5404 38.8614 25.0917C38.8493 25.643 38.7233 26.1857 38.4913 26.6858C38.2516 27.1873 37.9135 27.6354 37.4973 28.0034C37.0758 28.3774 36.5894 28.6707 36.0622 28.869C35.5149 29.0732 34.9348 29.1754 34.3506 29.1704ZM29.4784 28.2417L33.2446 28.2663C35.4182 28.2663 36.4787 27.215 36.4787 25.1124C36.4809 24.7027 36.4481 24.2935 36.3807 23.8894C36.3327 23.5657 36.2131 23.2568 36.0307 22.9853C35.8531 22.7317 35.6116 22.5298 35.3307 22.4001C34.9641 22.2425 34.5673 22.1683 34.1686 22.1828C33.8105 22.1984 33.4567 22.2668 33.1186 22.386C32.6881 22.5227 32.24 22.6944 31.7815 22.8907C31.323 23.0869 30.882 23.2972 30.469 23.5144L29.5099 24.019L29.4784 28.2417Z" fill="#133C58"/>
<path d="M40.3742 20.066C40.2996 20.0645 40.2264 20.0453 40.1607 20.01C40.0934 19.9809 40.037 19.9314 39.9993 19.8686C39.9617 19.8057 39.9446 19.7326 39.9506 19.6595C39.9501 19.5726 39.9671 19.4865 40.0008 19.4063C40.0345 19.3262 40.0841 19.2538 40.1467 19.1935C40.24 19.1 40.3415 18.9914 40.4512 18.8676C40.5604 18.7414 40.6576 18.6053 40.7417 18.4611C40.8282 18.291 40.8692 18.1015 40.8607 17.9109C40.8558 17.7431 40.8152 17.5782 40.7417 17.4273C40.6542 17.2416 40.5597 17.0523 40.4582 16.8631C40.3567 16.6739 40.2587 16.4671 40.1677 16.2639C40.0738 16.064 40.0226 15.8468 40.0171 15.6261C40.02 15.4439 40.0447 15.2627 40.0906 15.0864C40.1364 14.8897 40.2157 14.7024 40.3252 14.5327C40.4278 14.3731 40.5568 14.2321 40.7067 14.1157C40.8691 13.9878 41.0706 13.9197 41.2772 13.923C41.4069 13.9208 41.5358 13.9448 41.6561 13.9936C41.7763 14.0424 41.8856 14.1149 41.9772 14.2068C42.1487 14.378 42.2801 14.585 42.3623 14.8131C42.4374 15.0223 42.4925 15.2382 42.5268 15.4579C42.5504 15.6088 42.5656 15.7609 42.5723 15.9134C42.5709 16.2319 42.5522 16.5501 42.5163 16.8666C42.4728 17.2093 42.3784 17.5436 42.2362 17.8583C42.0679 18.2322 41.8565 18.585 41.6062 18.9096C41.2816 19.3188 40.917 19.6945 40.5177 20.031L40.4582 20.066C40.4303 20.0703 40.402 20.0703 40.3742 20.066Z" fill="#133C58"/>
<path d="M50.6648 29.3706H50.3148C49.2798 29.336 48.2618 29.0978 47.3186 28.6697C46.4706 28.2706 45.7157 27.6975 45.103 26.9876C44.4763 26.2495 44.007 25.3909 43.724 24.4645C43.4166 23.4827 43.2642 22.4587 43.2724 21.4298C43.2511 20.3761 43.4317 19.3281 43.8045 18.3425C44.1526 17.4216 44.6662 16.5724 45.32 15.8369C45.965 15.1249 46.7568 14.5618 47.6407 14.1864C48.5629 13.7958 49.5643 13.6289 50.5633 13.6993C51.1289 13.7358 51.6914 13.8107 52.2469 13.9236C52.8609 14.0429 53.4581 14.2371 54.0249 14.5018C54.5965 14.7693 55.1231 15.1239 55.586 15.5531C56.0567 15.9957 56.4227 16.5381 56.6571 17.1405L56.7061 17.2667L56.5941 17.3473C56.3071 17.5505 55.9815 17.8063 55.607 18.1568C55.2325 18.5072 54.851 18.8576 54.48 19.2326C54.1294 19.5926 53.813 19.9844 53.5349 20.403C53.3236 20.7049 53.1934 21.056 53.1569 21.4228C53.1569 21.5595 53.1814 21.6716 53.1884 21.7382C53.205 21.7714 53.2262 21.8021 53.2514 21.8293C53.3001 21.7448 53.3399 21.6556 53.3704 21.563C53.4193 21.4281 53.5011 21.3076 53.6084 21.2125C53.6911 21.1508 53.7863 21.1081 53.8874 21.0875C53.9884 21.0669 54.0928 21.0689 54.193 21.0934C54.3688 21.1412 54.5215 21.2506 54.6235 21.4018C54.714 21.5312 54.7629 21.6853 54.7635 21.8433C54.7456 22.0192 54.6816 22.1873 54.578 22.3304C54.4764 22.4762 54.3422 22.5963 54.186 22.6808C54.0453 22.7612 53.8947 22.8225 53.7379 22.8631C53.5759 22.9033 53.4065 22.9033 53.2444 22.8631C52.8139 22.7544 52.3134 22.418 52.3554 21.4228C52.3675 21.0577 52.457 20.6994 52.6179 20.3715C52.7649 20.0701 52.9259 19.7617 53.0974 19.4639C53.2689 19.166 53.4229 18.8752 53.5664 18.5773C53.7046 18.2949 53.7753 17.9842 53.7729 17.6697C53.8094 17.2292 53.7423 16.7864 53.5769 16.3766C53.4233 16.0187 53.1926 15.6992 52.9014 15.4409C52.6003 15.1765 52.2508 14.973 51.8723 14.8417C51.4524 14.6959 51.0141 14.6097 50.5703 14.5859C49.7755 14.4717 48.9651 14.6111 48.2539 14.9841C47.5427 15.3571 46.9668 15.9448 46.6081 16.6639C46.2432 17.3725 46.0063 18.1401 45.9081 18.9312C45.8276 19.5129 45.7716 20.0947 45.7401 20.6624L51.4663 20.7079V21.6996H45.6981C45.6808 22.4621 45.7335 23.2246 45.8556 23.9774C45.9556 24.7381 46.1928 25.4743 46.5556 26.1501C46.902 26.7807 47.3955 27.3181 47.9942 27.7165C48.7075 28.1574 49.5256 28.3993 50.3638 28.4174C50.9647 28.4619 51.5671 28.3521 52.1139 28.0985C52.6478 27.8482 53.1244 27.4903 53.5139 27.0472C53.9138 26.5918 54.2291 26.0684 54.445 25.5018C54.6699 24.9328 54.7713 24.3224 54.7425 23.7111V23.4378L56.6991 24.2403L56.6711 24.3804C56.5417 25.1106 56.2706 25.8083 55.873 26.4339C55.0936 27.6801 53.9019 28.6128 52.5059 29.0692C51.912 29.2664 51.2905 29.3682 50.6648 29.3706Z" fill="#133C58"/>
<path d="M63.7659 29.146H57.5427L57.5777 28.1753H58.1902C58.3581 28.1884 58.5269 28.1666 58.686 28.1111C58.845 28.0556 58.9908 27.9677 59.1142 27.8529C59.2261 27.7284 59.3119 27.5826 59.3666 27.4243C59.4213 27.2661 59.4438 27.0984 59.4327 26.9313L59.3872 17.9813C59.4014 17.7473 59.3492 17.5141 59.2367 17.3085C59.1443 17.1586 59.0123 17.0373 58.8552 16.958C58.6832 16.879 58.4981 16.8327 58.3092 16.8214C58.0922 16.8073 57.8822 16.8003 57.6792 16.8003H57.5147L57.4727 16.0995H57.6477C58.0253 16.0728 58.4 16.0142 58.7677 15.9243C59.0862 15.8479 59.3892 15.7175 59.6638 15.5388C59.9399 15.3524 60.1776 15.1144 60.3638 14.8379C60.5847 14.5081 60.7447 14.1414 60.8363 13.7551L60.8713 13.6149L61.4908 13.657V23.3884L61.7779 23.2693C62.1034 23.1361 62.5339 22.9644 63.0659 22.7577C63.5979 22.5509 64.116 22.3406 64.6235 22.1269C65.131 21.9131 65.5895 21.7239 65.999 21.5627C66.4926 21.3629 66.6676 21.2858 66.7271 21.2578C67.0617 21.1132 67.3604 20.8966 67.6021 20.6235C67.8378 20.3528 68.0292 20.0465 68.1691 19.7159C68.3125 19.3796 68.4125 19.0263 68.4667 18.6646C68.5234 18.33 68.5527 17.9913 68.5542 17.6519C68.569 17.1181 68.4687 16.5874 68.2601 16.096C68.0886 15.708 67.8312 15.3641 67.5076 15.0902C67.1981 14.834 66.8413 14.6411 66.4576 14.5225C66.0977 14.4054 65.7179 14.3625 65.341 14.3964C64.9815 14.4289 64.6312 14.5287 64.3085 14.6907C64.0124 14.8315 63.7606 15.0509 63.5804 15.325C63.3589 15.6409 63.2503 16.0225 63.2724 16.4078C63.3017 16.7125 63.4102 17.0041 63.587 17.2537C63.7639 17.5034 64.003 17.7022 64.2805 17.8306C64.4948 17.948 64.7362 18.0072 64.9805 18.0023L65.3305 17.9813L65.1275 18.2791C64.963 18.5139 64.802 18.7487 64.6375 18.98C64.473 19.2113 64.319 19.4145 64.179 19.5933C64.039 19.772 63.913 19.9227 63.829 20.0278C63.7449 20.1329 63.6294 20.217 63.5244 20.217H63.4824L63.4334 20.196C63.0857 20.0455 62.795 19.7876 62.6039 19.4601C62.3531 19.0741 62.1752 18.6453 62.0789 18.195C61.972 17.7016 61.9378 17.1951 61.9774 16.6917C62.0127 16.1657 62.1684 15.655 62.4324 15.1989C62.7206 14.7144 63.131 14.3143 63.6224 14.0389C64.2614 13.7 64.9715 13.5175 65.6945 13.5063C67.4446 13.4292 68.7292 13.7516 69.6007 14.463C70.4723 15.1743 70.9203 16.2852 70.9028 17.736C70.9005 18.1814 70.8187 18.6229 70.6613 19.0396C70.4921 19.4805 70.2547 19.892 69.9577 20.2591C69.6405 20.6553 69.2666 21.0024 68.8482 21.2893C68.379 21.6173 67.865 21.8758 67.3221 22.0568C66.9721 22.1864 66.5381 22.3547 66.0235 22.5509C65.509 22.7471 64.9735 22.9574 64.466 23.1712C63.9585 23.3849 63.4404 23.5952 62.9609 23.8019C62.4814 24.0087 62.1034 24.1524 61.8304 24.2785L61.4803 24.4222V27.0084C61.4729 27.2078 61.505 27.4067 61.5748 27.5936C61.6267 27.7227 61.7111 27.8362 61.8199 27.923C61.9256 28.0063 62.0437 28.0725 62.1699 28.1192C62.3002 28.1645 62.4352 28.1951 62.5724 28.2104C62.7391 28.2364 62.9078 28.2469 63.0764 28.2419C63.2269 28.2419 63.3914 28.2419 63.5734 28.2419H63.7484L63.7659 29.146Z" fill="#133C58"/>
<path d="M68.8865 33.6355C68.7255 33.6347 68.5649 33.6182 68.407 33.5865C67.8794 33.4666 67.395 33.2035 67.0069 32.8261L66.9509 32.7735V28.8522L67.3009 29.9035C67.3879 30.2295 67.594 30.5109 67.8785 30.6919C68.1534 30.8531 68.4606 30.9512 68.778 30.9793C69.0961 31.0045 69.4161 30.9797 69.7266 30.9057C69.9704 30.8509 70.2058 30.7637 70.4266 30.6464C70.7401 30.4477 71.024 30.2059 71.2701 29.928C71.5466 29.622 71.7961 29.2925 72.0157 28.9433C72.2397 28.5928 72.4497 28.2179 72.6387 27.8464C72.8032 27.5275 72.9467 27.2297 73.0622 26.9598C72.683 26.7035 72.3444 26.3916 72.0577 26.0347C71.7506 25.6475 71.5481 25.1877 71.4696 24.6996C71.3821 24.1787 71.3821 23.6469 71.4696 23.1261C71.5472 22.6057 71.7489 22.1116 72.0577 21.6859C72.3894 21.2488 72.8201 20.8969 73.3142 20.6591C73.8888 20.3924 74.515 20.256 75.1483 20.2596C75.4598 19.2083 75.7678 18.2166 76.0723 17.2354L76.7899 14.9331H76.0303C75.8868 14.9331 75.7328 14.9331 75.5753 14.9331H75.1133H74.7913C74.7546 14.9333 74.7182 14.926 74.6845 14.9115C74.6508 14.8971 74.6204 14.8758 74.5953 14.849C74.5646 14.8117 74.5419 14.7685 74.5286 14.7221C74.5154 14.6757 74.5118 14.627 74.5183 14.5791C74.5183 14.4693 74.5183 14.3292 74.5183 14.1586V13.9834L82.9082 13.9939V14.1691C82.9082 14.6387 82.7752 14.87 82.5126 14.87C82.3621 14.87 82.1976 14.87 82.0191 14.87C81.8406 14.87 81.6691 14.87 81.4941 14.87H81.1861C81.071 14.8564 80.9544 14.8675 80.8439 14.9025C80.7335 14.9375 80.6318 14.9958 80.5456 15.0732C80.4305 15.2 80.3657 15.3645 80.3635 15.5358C80.3554 15.6139 80.3554 15.6925 80.3635 15.7706C80.3977 15.857 80.4246 15.9461 80.4441 16.0369C80.4791 16.1771 80.5351 16.3874 80.6086 16.6186C80.7696 17.1162 80.9586 17.7505 81.2036 18.511C81.4486 19.2714 81.6936 20.0949 81.9596 20.985L82.5547 22.8773C82.7483 23.4917 82.9187 24.0419 83.0657 24.5279C83.2127 25.0138 83.3749 25.5616 83.5522 26.1714C83.6195 26.4257 83.7158 26.6715 83.8392 26.9038C83.9721 27.1582 84.138 27.3938 84.3327 27.6046C84.5264 27.8171 84.7548 27.9948 85.0083 28.1303C85.2479 28.2616 85.5194 28.3235 85.7923 28.309H85.9883C86.1158 28.31 86.2432 28.3182 86.3698 28.3335H86.5308V29.1781H78.7255L78.764 28.295H80.2795C80.4238 28.2896 80.5669 28.2684 80.7066 28.2319C80.8747 28.1925 81.0323 28.1172 81.1686 28.0111C81.3147 27.8909 81.4219 27.7299 81.4766 27.5486C81.5515 27.2756 81.5515 26.9875 81.4766 26.7145C81.3611 26.1889 81.2421 25.7298 81.1266 25.3549C81.025 25.0076 80.8853 24.6727 80.7101 24.3561C80.5452 24.0741 80.3427 23.8159 80.108 23.5887C79.833 23.3196 79.5395 23.0702 79.2295 22.8423C78.6978 22.4638 78.1346 22.132 77.5459 21.8506C77.0136 21.5935 76.4482 21.4118 75.8658 21.3109C75.5578 22.2991 75.2708 23.2348 75.0153 24.1143C74.7598 24.9939 74.5393 25.7509 74.4063 26.2695C74.3888 26.3221 74.3748 26.3676 74.3608 26.4167C74.6764 26.5258 75.012 26.5653 75.3443 26.5323C75.4545 26.5128 75.5633 26.4859 75.6698 26.4517C75.8107 26.4059 75.9414 26.3333 76.0548 26.238C76.3616 25.984 76.5727 25.633 76.6534 25.2427L75.4388 24.5208L76.0723 22.9019V23.7639C76.2132 23.8553 76.3593 23.9384 76.5099 24.0127L77.6824 24.6225C78.1094 24.8467 78.505 25.0465 78.8655 25.2322C79.443 25.5266 79.4885 25.5827 79.5165 25.6773L79.5375 25.7333L79.5165 25.7894C79.3441 26.3413 79.0114 26.8292 78.561 27.1911C78.138 27.5235 77.6447 27.7549 77.1189 27.8675C76.5708 27.983 76.0064 27.9985 75.4528 27.913C74.9577 27.8448 74.4731 27.7141 74.0108 27.524C73.7815 28.1773 73.5186 28.8183 73.2232 29.4444C72.8902 30.1606 72.4918 30.8445 72.0332 31.4874C71.7097 31.9307 71.3465 32.3436 70.9481 32.7209C70.602 33.0598 70.1913 33.3255 69.7406 33.5024C69.4659 33.5967 69.1768 33.6417 68.8865 33.6355ZM74.8578 21.2443C74.7398 21.2589 74.6229 21.2811 74.5078 21.3109C73.8738 21.4305 73.3092 21.7877 72.9292 22.3096C72.5122 22.9571 72.3431 23.7338 72.4532 24.4963C72.4793 24.8169 72.6082 25.1205 72.8207 25.3619C73.0054 25.5793 73.2158 25.7735 73.4472 25.9401C73.5802 25.5301 73.7447 25.0114 73.9372 24.3912C74.1648 23.6588 74.4343 22.7512 74.7458 21.6894L74.8578 21.2443ZM76.1424 20.3297H76.2019C77.4864 20.4944 78.785 21.1357 80.0835 22.243L77.8854 14.884H77.7909C77.7524 15.0032 77.6999 15.1819 77.6299 15.4237C77.5284 15.7741 77.3954 16.2226 77.2309 16.7553L76.6884 18.539L76.1424 20.3297Z" fill="#133C58"/>
</svg>
