<svg viewBox="0 0 12 12" fill="none" xmlns="http://www.w3.org/2000/svg">
<path d="M11.3827 2.88494L11.3792 2.8711C11.0992 1.73879 9.83645 0.523814 8.67683 0.271048L8.66377 0.268346C6.78815 -0.0894487 4.88637 -0.0894487 3.01116 0.268346L2.99769 0.271048C1.83848 0.523814 0.575714 1.73888 0.295269 2.8711L0.292156 2.88494C-0.0540912 4.46619 -0.0540912 6.06984 0.292156 7.65109L0.295269 7.66493C0.563799 8.74888 1.73247 9.90809 2.8488 10.2269V11.4908C2.8488 11.9483 3.4063 12.173 3.72331 11.8428L5.00393 10.5117C5.28171 10.5272 5.55962 10.5359 5.83744 10.5359C6.78156 10.5359 7.72612 10.4466 8.66373 10.2677L8.67679 10.265C9.83641 10.0123 11.0991 8.7972 11.3792 7.66497L11.3826 7.65113C11.7289 6.06984 11.7289 4.46627 11.3827 2.88494ZM10.3692 7.42183C10.1822 8.16055 9.22347 9.07891 8.46169 9.2486C7.46443 9.43826 6.45922 9.5193 5.45504 9.4915C5.43506 9.49092 5.41585 9.4987 5.40197 9.51303C5.25943 9.6593 4.46695 10.4729 4.46695 10.4729L3.47243 11.4936C3.3997 11.5695 3.27195 11.5178 3.27195 11.4132V9.31935C3.27195 9.28475 3.24726 9.2554 3.21327 9.24868C3.21307 9.2486 3.2129 9.2486 3.2127 9.24856C2.45092 9.07887 1.49252 8.16051 1.30518 7.42179C0.993537 5.99249 0.993537 4.54354 1.30518 3.11425C1.49252 2.37552 2.45092 1.45716 3.2127 1.28748C4.95442 0.956215 6.72038 0.956215 8.46173 1.28748C9.22388 1.45716 10.1822 2.37552 10.3692 3.11425C10.6812 4.54358 10.6812 5.99253 10.3692 7.42183Z" fill="#EB8271"/>
<path d="M7.49388 8.38817C7.37677 8.35259 7.26519 8.32871 7.16147 8.28576C6.08739 7.84013 5.09893 7.26524 4.31598 6.38402C3.87072 5.88291 3.52222 5.31715 3.22765 4.71842C3.08794 4.43449 2.97021 4.13947 2.8502 3.84629C2.74079 3.57899 2.90196 3.30284 3.07164 3.10138C3.23088 2.91233 3.43582 2.7677 3.65776 2.66104C3.83096 2.57783 4.00179 2.62582 4.12832 2.77262C4.40176 3.09004 4.65302 3.42367 4.85636 3.79162C4.98145 4.01794 4.94714 4.29458 4.72041 4.44858C4.6653 4.486 4.6151 4.52998 4.56379 4.57224C4.51875 4.60929 4.47641 4.64672 4.44554 4.69688C4.38915 4.78864 4.38645 4.89695 4.42273 4.99673C4.70227 5.76494 5.17345 6.36236 5.94674 6.68416C6.07048 6.73563 6.19471 6.79554 6.33729 6.77895C6.57601 6.75107 6.65332 6.48917 6.82063 6.35237C6.98413 6.21868 7.19312 6.21691 7.36924 6.32837C7.54543 6.43991 7.71618 6.55956 7.88595 6.68056C8.0526 6.7993 8.21848 6.91539 8.37215 7.0508C8.51997 7.18097 8.57087 7.35172 8.48762 7.52832C8.3353 7.85185 8.11357 8.12091 7.79382 8.29272C7.70353 8.34112 7.59567 8.3568 7.49388 8.38817C7.37677 8.35259 7.59567 8.3568 7.49388 8.38817Z" fill="#EB8271"/>
<path d="M5.84034 2.29133C7.24519 2.33072 8.39911 3.26304 8.64639 4.65196C8.68853 4.88864 8.70351 5.13055 8.72227 5.37079C8.73017 5.4718 8.67293 5.56778 8.56393 5.56914C8.45132 5.57049 8.40067 5.47623 8.3933 5.37529C8.37885 5.17539 8.36881 4.97454 8.34126 4.77636C8.19585 3.7298 7.36135 2.86397 6.31966 2.67819C6.16288 2.65023 6.00253 2.6429 5.8437 2.62623C5.74333 2.61571 5.61189 2.60965 5.58966 2.48484C5.57103 2.38022 5.65931 2.29694 5.75893 2.29157C5.78592 2.28998 5.81315 2.29124 5.84034 2.29133C7.24527 2.33072 5.81315 2.29124 5.84034 2.29133Z" fill="#EB8271"/>
<path d="M7.9752 5.05881C7.97287 5.07638 7.97168 5.11761 7.96136 5.15643C7.9241 5.29745 7.71019 5.3151 7.66101 5.17281C7.6464 5.13059 7.64423 5.08252 7.64414 5.03707C7.64365 4.73955 7.579 4.44227 7.42893 4.18336C7.27468 3.91725 7.03899 3.69364 6.76264 3.55822C6.59549 3.47641 6.41479 3.42552 6.23159 3.39526C6.15154 3.38199 6.07063 3.374 5.99017 3.36278C5.89268 3.34923 5.84059 3.28711 5.84526 3.19105C5.84956 3.10105 5.91536 3.03623 6.01347 3.04184C6.33585 3.0601 6.64729 3.12988 6.93396 3.28163C7.5168 3.59033 7.84978 4.07751 7.94699 4.72812C7.95137 4.75764 7.95841 4.7868 7.96066 4.81636C7.96615 4.88933 7.96963 4.96242 7.9752 5.05881C7.97287 5.07629 7.96963 4.96242 7.9752 5.05881Z" fill="#EB8271"/>
<path d="M7.10109 5.02498C6.98357 5.02711 6.92068 4.96201 6.90851 4.85432C6.90012 4.77922 6.8934 4.70306 6.87547 4.62993C6.84017 4.48592 6.76364 4.35251 6.64252 4.26427C6.58536 4.22263 6.52054 4.19229 6.45269 4.17263C6.3665 4.14769 6.2769 4.15457 6.19096 4.13353C6.09756 4.11064 6.04588 4.03497 6.06058 3.94738C6.07393 3.86762 6.15148 3.80538 6.23866 3.81172C6.78334 3.85103 7.17262 4.13263 7.22819 4.77385C7.23216 4.8191 7.23675 4.86689 7.22671 4.91025C7.20943 4.98424 7.15457 5.02138 7.10109 5.02498C6.98353 5.02707 7.15457 5.02138 7.10109 5.02498Z" fill="#EB8271"/>
<path d="M7.49424 8.38817C7.59604 8.3568 7.37713 8.35259 7.49424 8.38817V8.38817Z" fill="#EB8271"/>
<path d="M5.72395 2.29164C5.72341 2.29164 5.72288 2.29153 5.72234 2.29153C5.72182 2.29146 5.72249 2.29153 5.72395 2.29164Z" fill="#EB8271"/>
<path d="M5.72314 2.29126C5.72433 2.29126 5.72548 2.29138 5.72667 2.29138C5.80463 2.29417 7.07268 2.32909 5.72314 2.29126Z" fill="#EB8271"/>
<path d="M7.85788 5.05966C7.85219 4.96101 7.8555 5.07756 7.85788 5.05966V5.05966Z" fill="#EB8271"/>
<path d="M6.98366 5.02596C6.98549 5.02572 6.98723 5.02384 6.98898 5.02344C6.98406 5.02344 6.97651 5.02368 6.96875 5.02425C6.97379 5.0245 6.97838 5.02604 6.98366 5.02596Z" fill="#EB8271"/>
<path d="M6.98508 5.02325C6.97967 5.02341 6.9749 5.02182 6.9697 5.02148C6.94367 5.02291 6.9168 5.02568 6.98508 5.02325Z" fill="#EB8271"/>
<path d="M6.99048 5.02393C6.98855 5.02435 6.98671 5.02633 6.98486 5.02659C6.99927 5.02461 6.99803 5.02393 6.99048 5.02393Z" fill="#EB8271"/>
</svg>
