<?xml version="1.0" standalone="no"?>
<!DOCTYPE svg PUBLIC "-//W3C//DTD SVG 20010904//EN"
 "http://www.w3.org/TR/2001/REC-SVG-20010904/DTD/svg10.dtd">
<svg version="1.0" xmlns="http://www.w3.org/2000/svg"
 width="526.000000pt" height="526.000000pt" viewBox="0 0 526.000000 526.000000"
 preserveAspectRatio="xMidYMid meet">
<metadata>
Created by potrace 1.11, written by Peter Selinger 2001-2013
</metadata>
<g transform="translate(0.000000,526.000000) scale(0.100000,-0.100000)"
fill="#000000" stroke="none">
<path d="M2460 5056 c-3 -2 -32 -6 -65 -9 -33 -3 -71 -8 -85 -11 -14 -2 -65
-11 -115 -20 -373 -68 -737 -228 -1040 -456 -108 -81 -310 -275 -396 -380
-171 -211 -339 -534 -421 -810 -23 -80 -65 -268 -74 -335 -3 -27 -8 -59 -10
-70 -2 -11 -7 -65 -10 -120 -4 -55 -8 -102 -10 -104 -5 -5 -143 67 -161 84 -8
9 -25 15 -37 13 -39 -6 -47 -86 -11 -121 23 -23 161 -77 255 -100 47 -11 88
-23 92 -27 5 -3 -17 -61 -47 -127 -110 -244 -144 -398 -98 -444 11 -12 35 -22
53 -24 32 -2 32 -2 82 -151 153 -458 442 -858 834 -1154 169 -128 327 -216
589 -330 104 -45 378 -118 511 -136 27 -3 58 -8 69 -10 116 -23 442 -22 595 2
269 41 478 107 716 225 147 73 350 203 430 274 6 6 36 30 65 55 70 59 189 177
267 266 l61 70 53 -6 c66 -7 236 -5 303 4 185 24 336 110 385 219 29 63 27
150 -6 215 -43 86 -162 178 -296 227 -27 10 -48 22 -48 27 0 6 15 60 34 122
79 254 105 437 101 701 -2 110 -6 211 -8 225 -3 14 -8 48 -11 75 -11 85 -16
116 -42 235 -24 107 -103 360 -126 404 -6 11 -11 69 -12 130 -2 93 -6 119 -25
158 -31 63 -90 121 -159 155 -46 22 -67 42 -106 95 -26 36 -55 75 -64 85 -10
10 -30 34 -46 53 -86 105 -253 263 -381 360 -170 128 -373 238 -580 315 -101
38 -408 118 -500 131 -27 3 -59 9 -70 11 -26 7 -430 15 -435 9z m407 -129 c5
-3 35 -8 67 -11 31 -4 98 -15 149 -27 51 -11 100 -22 111 -24 129 -28 342
-109 501 -190 230 -117 425 -258 605 -436 69 -68 170 -181 170 -190 0 -2 -26
-4 -58 -5 -202 -3 -460 -71 -660 -173 l-92 -48 -17 35 c-38 80 -146 153 -248
168 -204 29 -499 -26 -752 -142 -43 -19 -79 -31 -81 -25 -9 28 -66 94 -99 114
-80 50 -136 62 -298 61 -125 0 -168 -4 -260 -26 -249 -59 -461 -161 -690 -332
-92 -69 -305 -278 -390 -381 -31 -38 -64 -79 -73 -90 -50 -62 -207 -306 -260
-407 l-62 -116 -58 14 c-31 7 -61 13 -66 14 -8 0 -2 138 9 190 3 14 8 43 10
64 3 21 15 80 26 130 149 672 620 1284 1229 1595 241 124 552 216 800 237 36
3 66 7 68 9 6 6 409 -2 419 -8z m1675 -1029 c46 -21 64 -37 93 -82 79 -125 43
-243 -155 -500 -31 -40 -217 -223 -255 -252 -22 -16 -42 -31 -45 -35 -15 -16
-188 -124 -270 -168 -201 -106 -464 -189 -685 -216 -151 -18 -127 -25 -220 68
l-82 84 36 18 c89 46 288 170 311 195 3 3 23 18 45 35 67 49 191 181 239 254
84 126 122 243 125 383 1 35 4 39 79 81 138 77 303 136 431 153 25 3 48 8 49
9 2 2 59 3 125 2 109 -2 128 -5 179 -29z m-2312 1 c64 -13 125 -51 157 -98 30
-44 29 -53 -7 -74 -16 -10 -35 -23 -42 -30 -7 -7 -44 -38 -83 -68 -132 -106
-298 -279 -417 -438 -32 -42 -63 -82 -68 -88 -26 -31 -133 -203 -157 -251 -30
-61 -34 -63 -163 -107 l-97 -33 -67 29 c-36 16 -86 42 -111 59 -24 16 -51 30
-59 30 -32 0 -48 -78 -23 -111 7 -9 23 -22 37 -29 l25 -14 -40 -7 c-22 -4 -69
-10 -105 -14 -36 -4 -76 -8 -90 -11 -20 -3 -102 -4 -272 -3 -33 0 -29 19 23
117 142 263 250 421 410 597 61 68 77 83 170 171 227 210 511 357 735 379 38
4 70 8 71 9 6 6 123 -4 173 -15z m1052 11 c105 -19 170 -65 202 -142 l16 -37
-83 -64 c-111 -88 -259 -234 -373 -369 -81 -96 -264 -358 -264 -378 0 -16 -23
-12 -107 16 -137 46 -299 39 -365 -17 -30 -25 -33 -31 -33 -85 0 -37 7 -72 18
-93 11 -23 14 -37 7 -41 -31 -19 -483 -59 -587 -52 -21 2 -21 2 6 52 26 48 34
54 147 109 441 216 723 546 726 850 0 36 5 72 11 79 17 21 178 99 263 128 145
48 299 65 416 44z m-871 -367 c-50 -195 -237 -419 -484 -577 -96 -62 -96 -63
-29 49 72 121 220 303 348 430 78 76 168 154 173 149 2 -2 -2 -25 -8 -51z
m1077 0 c-32 -117 -126 -261 -249 -382 -70 -69 -215 -181 -234 -181 -16 0 194
286 294 400 53 60 190 199 198 200 1 0 -3 -17 -9 -37z m1322 -85 c33 -92 74
-235 95 -333 22 -102 27 -133 41 -255 11 -96 10 -344 -2 -442 -25 -199 -39
-262 -101 -461 l-47 -148 -35 6 c-20 3 -43 7 -51 10 -55 16 -185 29 -290 29
-84 0 -241 -11 -270 -19 -8 -2 -33 -6 -55 -10 -138 -19 -253 -53 -256 -75 0
-3 -2 -13 -4 -23 -2 -9 6 -23 17 -31 17 -12 31 -11 106 9 216 57 379 72 572
53 63 -7 210 -35 217 -42 6 -6 -79 -174 -127 -253 -58 -96 -64 -106 -73 -117
-4 -6 -26 -36 -49 -66 -22 -30 -45 -58 -50 -61 -21 -13 -232 53 -333 104 -186
93 -387 282 -535 502 -19 28 -37 52 -40 55 -6 4 -97 149 -125 198 -5 9 -41 67
-78 127 -220 355 -209 334 -184 339 12 3 63 10 112 16 50 7 110 16 135 22 25
5 52 11 60 13 330 70 714 250 965 451 146 117 302 298 346 402 8 17 17 32 20
32 4 0 12 -15 19 -32z m-2180 -629 l55 -25 -82 -32 c-45 -17 -98 -34 -117 -37
-34 -7 -36 -5 -66 41 -16 26 -30 52 -30 56 0 36 159 33 240 -3z m20 -158 c0
-15 -17 -22 -36 -14 -16 6 -16 7 2 14 27 11 34 10 34 0z m213 -27 c17 -20 17
-21 -10 -18 -16 1 -29 2 -31 3 -1 1 2 10 8 22 7 11 12 19 13 17 1 -1 10 -12
20 -24z m-1405 -49 c1 -1 -21 -53 -49 -116 -101 -224 -142 -384 -113 -440 15
-30 33 -39 74 -39 53 0 79 43 141 232 31 95 73 212 93 259 37 85 38 86 69 82
18 -2 104 -5 192 -5 193 -2 270 5 462 43 76 15 106 17 120 9 10 -6 45 -19 79
-28 l61 -17 -49 -115 c-84 -196 -113 -294 -111 -385 1 -47 30 -75 77 -75 55 0
80 35 125 177 22 70 63 182 89 248 l49 120 87 -2 c48 0 89 -3 90 -5 1 -1 83
-133 181 -293 225 -364 296 -471 388 -582 65 -77 196 -208 253 -253 158 -124
352 -222 527 -266 37 -9 67 -20 67 -24 0 -10 -192 -195 -267 -257 -170 -141
-460 -305 -683 -387 -178 -65 -407 -116 -590 -133 -145 -12 -395 -7 -505 12
-28 5 -63 11 -125 21 -14 3 -69 16 -122 29 -331 85 -683 267 -953 494 -68 58
-265 261 -324 336 -157 195 -313 479 -386 697 l-35 106 30 99 c34 109 108 314
139 384 l20 45 203 -2 c207 -3 321 8 493 44 71 15 87 16 140 3 33 -8 61 -15
63 -16z m3426 -920 c52 -22 134 -74 167 -106 69 -67 95 -188 54 -246 -28 -37
-134 -89 -220 -107 -73 -15 -305 -20 -305 -6 0 4 17 32 37 61 53 77 167 280
199 355 15 35 28 64 29 64 2 0 19 -7 39 -15z"/>
</g>
</svg>
